<svg width="32" height="32" viewBox="0 0 32 32" fill="none" xmlns="http://www.w3.org/2000/svg">
<path d="M0 16.0029C0 7.16637 7.16344 0.00292969 16 0.00292969C24.8366 0.00292969 32 7.16637 32 16.0029C32 24.8395 24.8366 32.0029 16 32.0029C7.16344 32.0029 0 24.8395 0 16.0029Z" fill="#03091F"/>
<path d="M23.9287 15.7449C24.0238 15.9033 24.0238 16.1017 23.9287 16.2601L16.4225 28.7629C16.2305 29.0829 15.7699 29.0829 15.5778 28.763L8.07131 16.261C7.97623 16.1025 7.97623 15.9041 8.07131 15.7458L15.5778 3.24289C15.7699 2.92294 16.2305 2.92294 16.4226 3.24289L23.9287 15.7449ZM11.6006 15.2449C11.4014 15.5765 11.6383 16 12.0229 16H19.9779C20.3625 16 20.5994 15.5765 20.4002 15.2449L16.4225 8.6223C16.2304 8.30244 15.77 8.30245 15.5779 8.62232L11.6006 15.2449ZM16.0002 11.7389C16.7738 11.7389 17.401 12.3722 17.401 13.1533C17.4009 13.9342 16.7737 14.5671 16.0002 14.5671C15.2266 14.5671 14.5995 13.9342 14.5994 13.1533C14.5994 12.3722 15.2266 11.7389 16.0002 11.7389Z" fill="url(#paint0_linear_5350_2646)"/>
<defs>
<linearGradient id="paint0_linear_5350_2646" x1="16" y1="13.0762" x2="16" y2="24.7831" gradientUnits="userSpaceOnUse">
<stop stop-color="#FE7109"/>
<stop offset="1" stop-color="#003BFF"/>
</linearGradient>
</defs>
</svg>
