<svg width="32" height="32" viewBox="0 0 32 32" fill="none" xmlns="http://www.w3.org/2000/svg">
<g clip-path="url(#clip0_3350_337)">
<rect width="32" height="32" rx="16" fill="#0054FA"/>
<path fill-rule="evenodd" clip-rule="evenodd" d="M-6.22901 0C-6.36448 0 -6.4743 0.109819 -6.4743 0.245289V32.9702C-6.4743 33.1057 -6.36449 33.2155 -6.22902 33.2155H36.6665C36.8019 33.2155 36.9117 33.1057 36.9117 32.9702V0.245291C36.9117 0.10982 36.8019 0 36.6665 0H-6.22901ZM10.7469 9.99166H8.53434L7.10736 21.8564H8.88707L9.0955 19.275H10.0896L10.298 21.8564H12.1739L10.7469 9.99166ZM9.22377 17.7037L9.41617 15.2667L9.56047 13.2144H9.60857L9.75288 15.2667L9.96131 17.7037H9.22377ZM14.1976 21.8564H16.1056V17.3831H16.6989C18.0617 17.3831 18.8954 16.5814 18.8954 15.1544V12.2363C18.8954 10.7933 18.0617 9.99166 16.6989 9.99166H14.1976V21.8564ZM16.5385 15.9561H16.1216V11.4186H16.5385C16.8592 11.4186 16.9875 11.7072 16.9875 12.2363V15.1544C16.9875 15.6675 16.8592 15.9561 16.5385 15.9561ZM21.0933 9.99166V21.8564H24.813V20.2851H23.0012V16.6455H24.6206V15.0743H23.0012V11.5629H24.813V9.99166H21.0933Z" fill="white"/>
</g>
<defs>
<clipPath id="clip0_3350_337">
<rect width="32" height="32" rx="16" fill="white"/>
</clipPath>
</defs>
</svg>
