<svg width="32" height="32" viewBox="0 0 32 32" fill="none" xmlns="http://www.w3.org/2000/svg">
<circle cx="16" cy="16.0029" r="16" fill="#181818"/>
<mask id="mask0_2395_1813" style="mask-type:luminance" maskUnits="userSpaceOnUse" x="6" y="9" width="20" height="14">
<path d="M25.6466 9.42566H6.35339V22.5801H25.6466V9.42566Z" fill="white"/>
</mask>
<g mask="url(#mask0_2395_1813)">
<path d="M13.0465 9.42566H11.2796C11.1575 9.42566 11.0486 9.50217 11.0068 9.61709L6.3623 22.3846C6.32777 22.4796 6.3979 22.5801 6.49871 22.5801H8.26568C8.3877 22.5801 8.49662 22.5036 8.53849 22.3888L13.1829 9.62116C13.2175 9.52616 13.1473 9.42566 13.0465 9.42566ZM15.1957 14.7754C15.1493 14.6478 14.9694 14.6478 14.9229 14.7754L14.0069 17.2939C13.9834 17.3583 13.9834 17.429 14.0069 17.4934L15.7876 22.3887C15.8294 22.5036 15.9384 22.58 16.0604 22.58H17.8274C17.9282 22.58 17.9983 22.4795 17.9638 22.3845L15.1957 14.7754ZM19.7002 17.2405C19.7466 17.3681 19.9265 17.3681 19.9729 17.2405L22.7446 9.62116C22.7791 9.52616 22.709 9.42566 22.6082 9.42566H20.8412C20.7192 9.42566 20.6103 9.50208 20.5684 9.61709L18.784 14.5223C18.7606 14.5867 18.7606 14.6573 18.784 14.7218L19.7002 17.2405ZM16.2162 9.61574C16.1748 9.50159 16.0666 9.42566 15.9455 9.42566H14.1726C14.0506 9.42566 13.9417 9.50208 13.8999 9.617L9.25551 22.3846C9.22098 22.4796 9.29112 22.5801 9.39192 22.5801H11.159C11.281 22.5801 11.3899 22.5037 11.4318 22.3888L14.9877 12.6132C15.0111 12.5491 15.1015 12.5491 15.1247 12.6132L18.6807 22.3888C18.7225 22.5037 18.8315 22.5801 18.9535 22.5801H20.7206C20.8214 22.5801 20.8915 22.4796 20.857 22.3847L16.2162 9.61574ZM25.5014 9.42566H23.7342C23.6123 9.42566 23.5033 9.50208 23.4615 9.617L20.2306 18.499C20.2071 18.5634 20.2071 18.634 20.2306 18.6984L21.1468 21.2172C21.1932 21.3447 21.3731 21.3447 21.4195 21.2172L24.6178 12.4249L25.6378 9.62106C25.6724 9.52616 25.6022 9.42566 25.5014 9.42566Z" fill="#EF8220"/>
</g>
</svg>
