<svg width="32" height="32" viewBox="0 0 32 32" fill="none" xmlns="http://www.w3.org/2000/svg">
<path d="M0 16C0 7.16344 7.16344 0 16 0C24.8366 0 32 7.16344 32 16C32 24.8366 24.8366 32 16 32C7.16344 32 0 24.8366 0 16Z" fill="#203156"/>
<path d="M7 24.9988C7.15296 20.3474 7.93588 16.0067 9.24479 12.6311C10.9019 8.3549 13.3015 6 15.9997 6C18.6979 6 21.0975 8.3549 22.7552 12.6317C23.6173 14.8557 24.2515 17.4987 24.6276 20.3736C24.6614 20.6306 24.6899 20.8912 24.7189 21.1519C24.7285 21.1677 24.734 21.1829 24.7322 21.1951C24.7322 21.1951 24.9528 22.5848 25 24.9994H24.9752C24.6475 24.7284 20.7837 21.6707 14.3788 22.5562C14.4756 21.4643 14.6086 20.4022 14.7803 19.384C14.7893 19.3323 14.799 19.2817 14.8081 19.23C17.3201 19.1538 19.5189 19.4474 21.2051 19.8329C21.199 19.7927 21.1936 19.7512 21.1869 19.7111C20.8405 17.537 20.3291 15.5469 19.6695 13.846C18.5915 11.0648 17.1847 9.33718 15.9991 9.33718C14.8135 9.33718 13.4067 11.0648 12.3287 13.846C12.0675 14.5189 11.8299 15.2363 11.6171 15.9927C11.3179 17.0529 11.0664 18.1898 10.865 19.384C10.5676 21.1482 10.382 23.0397 10.3137 25H7V24.9988Z" fill="white"/>
</svg>
