<svg width="32" height="32" viewBox="0 0 32 32" fill="none" xmlns="http://www.w3.org/2000/svg">
<path d="M32 16.0007C32 24.8373 24.8366 32.0007 16 32.0007C7.16344 32.0007 0 24.8373 0 16.0007C0 7.16418 7.16344 0.000732422 16 0.000732422C24.8366 0.000732422 32 7.16418 32 16.0007Z" fill="#EFEDFF"/>
<path d="M27.97 14.8121C27.5207 8.19946 21.7971 3.20446 15.1854 3.65375C11.8925 3.8784 8.99999 5.41251 6.98202 7.70985L6.97626 7.70601C6.96186 7.72425 6.94938 7.74249 6.9369 7.76169C4.93238 10.0744 3.80435 13.1464 4.02804 16.4403C4.04916 16.7552 4.08564 17.0624 4.13076 17.3686C4.13076 17.383 4.1346 17.3955 4.13652 17.4099C4.16724 17.6115 4.20276 17.8131 4.24116 18.0099C4.27764 18.1923 4.31892 18.3738 4.36404 18.5542C5.75032 24.0811 10.9277 27.9951 16.8136 27.5948C23.4243 27.1455 28.4212 21.4218 27.9719 14.8092C27.9729 14.8082 27.97 14.8121 27.97 14.8121ZM25.3578 14.9906C25.4135 15.8047 25.3616 16.6016 25.2157 17.3696C25.2157 17.3657 25.2119 17.3619 25.2119 17.3571C24.3402 15.2316 22.6198 13.6956 21.1078 12.8469C21.414 9.24492 20.1919 7.72521 18.8076 7.47848C17.7208 7.274 16.6744 7.99017 16.4699 9.07692C16.4622 9.11532 16.4565 9.15468 16.4517 9.19404C16.3105 10.2904 17.0843 11.2946 18.1807 11.4357C18.1826 11.4357 18.1835 11.4357 18.1855 11.4366C18.2815 11.4491 18.3765 11.453 18.4687 11.451C18.4754 11.5797 18.4792 11.7083 18.4792 11.837C17.1995 11.5211 16.0043 11.4568 14.9137 11.5557C14.5038 11.5826 14.0958 11.6344 13.6916 11.7093C13.8279 10.4929 14.2849 9.12588 15.17 8.12745C16.0264 7.15975 17.2994 6.60774 18.6876 6.74982C18.9506 6.7767 19.2319 6.84199 19.4844 6.92647C19.4969 6.93031 19.5093 6.93415 19.5199 6.93607C22.736 8.2465 25.1043 11.3003 25.3549 14.9906C25.3559 14.9906 25.3578 14.9906 25.3578 14.9906ZM16.9931 16.8233C16.9931 16.8233 16.9931 16.8252 16.9912 16.8272C16.6878 17.263 16.3441 17.6701 15.964 18.0416C15.3889 17.4339 14.9022 16.7494 14.5182 16.0064C14.4999 15.967 14.4798 15.9324 14.4606 15.8931V15.8892C14.235 15.4083 14.0555 14.9062 13.923 14.3916C14.7755 14.19 15.6107 14.1161 16.4104 14.1554L16.5381 14.1612H16.5419C17.043 14.2025 17.5643 14.2946 18.1048 14.4425C17.8543 15.2854 17.4808 16.087 16.996 16.8204C16.995 16.8214 16.9931 16.8233 16.9931 16.8233ZM12.8938 6.77382L12.8881 6.7815C11.4816 8.59787 11.0132 10.8549 11.0333 12.5877C7.75964 14.1237 7.0569 15.9411 7.53403 17.264C7.54555 17.3014 7.56091 17.336 7.57532 17.3715C8.00252 18.392 9.17663 18.8739 10.1981 18.4477C11.2186 18.0205 11.7005 16.8464 11.2743 15.8249C11.2368 15.7375 11.1936 15.6531 11.1447 15.5724C11.2474 15.5043 11.3588 15.4371 11.4778 15.367C11.8426 16.6342 12.3831 17.7046 13.0138 18.5994C13.2423 18.9383 13.4881 19.2647 13.7569 19.5786C12.6356 20.0692 11.2224 20.3572 9.91393 20.0903C8.64862 19.832 7.53403 19.0064 6.9609 17.7325C6.85146 17.4829 6.7689 17.2217 6.71418 16.9549C6.68058 16.7254 6.65465 16.494 6.63833 16.2627C6.34649 11.9637 9.01247 8.13801 12.8938 6.77382ZM16.636 24.9845C14.0833 25.1592 11.6967 24.2885 9.89377 22.7399C12.169 23.05 14.3588 22.3271 15.8497 21.442C18.8172 23.5099 20.7439 23.2104 21.6511 22.1361C22.3721 21.2961 22.2752 20.0308 21.4351 19.3098C21.4054 19.2839 21.3747 19.2599 21.343 19.2359C20.4626 18.5648 19.205 18.7347 18.534 19.6151L18.533 19.616C18.4754 19.6919 18.4245 19.7744 18.3794 19.856C18.2709 19.8004 18.1557 19.7389 18.0386 19.6708C18.8748 18.8077 19.5602 17.8112 20.0652 16.7216C20.2466 16.3529 20.405 15.9737 20.5414 15.5859C21.5273 16.3136 22.4844 17.3907 22.9078 18.6579C23.3168 19.882 23.1603 21.2625 22.3433 22.3943C22.182 22.6142 21.9977 22.8158 21.7932 22.9963L21.7855 23.0039C20.309 24.1675 18.5148 24.8568 16.6389 24.9816C16.6379 24.9825 16.636 24.9845 16.636 24.9845Z" fill="url(#paint0_linear_36_1606)"/>
<path opacity="0.9" d="M18.8086 7.47663C18.5839 7.43343 18.3525 7.43151 18.1269 7.46895C19.2751 8.09297 20.1113 9.83252 19.6716 13.2665C19.5266 14.383 19.1983 15.4688 18.7001 16.4788C18.2709 17.4004 17.7132 18.2567 17.0421 19.0209C17.3599 19.2599 17.693 19.4788 18.0386 19.6766C18.8748 18.8145 19.5602 17.817 20.0662 16.7274C20.5654 15.7175 20.8928 14.6326 21.0377 13.5152C21.5619 9.42836 20.2764 7.74064 18.8095 7.47855L18.8086 7.47663Z" fill="url(#paint1_radial_36_1606)"/>
<path opacity="0.8" d="M19.6716 13.2636C20.1113 9.83156 19.2751 8.09008 18.127 7.46606C18.0818 7.47182 18.0386 7.48238 17.9935 7.49294C19.1167 8.14 19.926 9.87668 19.4931 13.2636C19.3481 14.3801 19.0198 15.4659 18.5215 16.4759C18.1078 17.3648 17.574 18.1933 16.9337 18.9364C16.9701 18.9652 17.0057 18.9921 17.0421 19.018C17.7122 18.2529 18.27 17.3975 18.6991 16.4759C19.1983 15.4659 19.5267 14.3811 19.6716 13.2636Z" fill="white"/>
<path opacity="0.5" d="M15.3074 21.0494C15.1989 20.9678 15.0962 20.8814 14.9915 20.795C13.2971 21.5016 10.9499 21.9451 8.617 21.4027C8.99717 21.8894 9.42438 22.3368 9.89191 22.74C12.1672 23.0501 14.357 22.3272 15.8479 21.4421C15.6645 21.3144 15.484 21.1829 15.3055 21.0475L15.3074 21.0494Z" fill="url(#paint2_radial_36_1606)"/>
<path opacity="0.6" d="M14.9925 20.795C14.9417 20.7518 14.8879 20.7086 14.8389 20.6654C13.132 21.347 10.7723 21.756 8.44519 21.1742C8.50279 21.2501 8.56039 21.3278 8.61799 21.4027C10.9499 21.9451 13.2991 21.5016 14.9925 20.795Z" fill="url(#paint3_linear_36_1606)"/>
<path opacity="0.9" d="M7.53603 17.2669C7.54755 17.3034 7.56291 17.3389 7.57731 17.3735C7.65315 17.554 7.75203 17.7162 7.87108 17.8621C7.83844 16.5565 8.9271 14.96 12.1182 13.6256C13.1579 13.1936 14.2619 12.9353 15.3852 12.8614C16.398 12.7711 17.4194 12.8268 18.4169 13.0255C18.4687 12.5945 18.4889 12.1923 18.4851 11.8361C17.3206 11.5433 16.1138 11.4482 14.9176 11.5548C13.7934 11.6287 12.6894 11.887 11.6497 12.319C7.849 13.9088 7.02914 15.8663 7.53699 17.2679L7.53603 17.2669Z" fill="url(#paint4_radial_36_1606)"/>
<path opacity="0.8" d="M12.1182 13.6275C8.92709 14.9629 7.83843 16.5584 7.87107 17.8641C7.89987 17.8986 7.93059 17.9322 7.96131 17.9649C7.95939 16.6688 9.05958 15.1002 12.2084 13.7811C13.2481 13.3491 14.3522 13.0908 15.4754 13.0169C16.4517 12.9305 17.4367 12.9785 18.3996 13.1609C18.4063 13.1158 18.4111 13.0707 18.4159 13.0256C17.4185 12.8278 16.398 12.7721 15.3842 12.8614C14.261 12.9353 13.1569 13.1936 12.1172 13.6256C12.1182 13.6256 12.1182 13.6275 12.1182 13.6275Z" fill="white"/>
<path opacity="0.4" d="M21.0416 13.5123C21.0253 13.6477 21.0032 13.7792 20.9802 13.9126C22.4384 15.0262 23.9975 16.8388 24.6954 19.1284C24.9259 18.5553 25.1006 17.961 25.2148 17.3543C24.346 15.2288 22.6247 13.6937 21.1136 12.846C21.0954 13.062 21.0723 13.2819 21.0435 13.5113C21.0435 13.5123 21.0416 13.5123 21.0416 13.5123Z" fill="url(#paint5_radial_36_1606)"/>
<path opacity="0.5" d="M20.9792 13.9126C20.9667 13.9779 20.9561 14.0461 20.9437 14.1123C22.3875 15.2499 23.9217 17.0884 24.5812 19.3944C24.6196 19.306 24.657 19.2177 24.6916 19.1294C23.9937 16.8397 22.4365 15.0282 20.9763 13.9126C20.9773 13.9126 20.9792 13.9126 20.9792 13.9126Z" fill="url(#paint6_linear_36_1606)"/>
<path opacity="0.9" d="M21.6513 22.1342C21.8001 21.9595 21.9181 21.7608 22.0007 21.5467C20.8852 22.2283 18.9603 22.0824 16.207 19.9857C15.3122 19.3022 14.5356 18.4746 13.9106 17.5377C13.326 16.7053 12.8632 15.7943 12.5368 14.8314C12.1384 15.0022 11.7794 15.1866 11.4712 15.3671C11.8005 16.522 12.3208 17.6145 13.0111 18.5975C13.6274 19.5172 14.3954 20.3496 15.3074 21.0456C18.5849 23.5426 20.6903 23.2738 21.6493 22.1333L21.6513 22.1342Z" fill="url(#paint7_radial_36_1606)"/>
<path opacity="0.8" d="M16.2088 19.9857C18.9602 22.0824 20.887 22.2283 22.0016 21.5458C22.0179 21.5026 22.0323 21.4594 22.0448 21.4181C20.9235 22.069 19.0131 21.8981 16.2991 19.8312C15.4043 19.1476 14.6277 18.3201 14.0027 17.3831C13.4392 16.5805 12.9899 15.704 12.6654 14.7786C12.6222 14.7968 12.5809 14.8131 12.5406 14.8314C12.867 15.7943 13.3297 16.7063 13.9144 17.5386C14.5307 18.4583 15.2987 19.2907 16.2107 19.9867L16.2088 19.9857Z" fill="white"/>
<path opacity="0.3" d="M11.6478 12.3152C11.7726 12.2633 11.8984 12.2163 12.0251 12.1692C12.2593 10.35 13.0504 8.09299 14.6853 6.34479C14.0728 6.43311 13.4709 6.57711 12.8882 6.77968C11.4808 8.59604 11.0123 10.853 11.0334 12.5868C11.2283 12.4947 11.4318 12.4044 11.6459 12.3161L11.6478 12.3152Z" fill="url(#paint8_radial_36_1606)"/>
<path opacity="0.4" d="M12.025 12.1692C12.0893 12.1472 12.1508 12.1222 12.2141 12.0992C12.4772 10.279 13.3028 8.0325 14.9684 6.30734C14.8744 6.3179 14.7793 6.33038 14.6852 6.34286C13.0503 8.09298 12.2602 10.3471 12.026 12.1673L12.025 12.1692Z" fill="url(#paint9_linear_36_1606)"/>
<path opacity="0.4" d="M15.1855 3.65481C11.8916 3.87849 9.00004 5.41261 6.98207 7.7109L6.93695 7.76178C7.32864 8.15251 8.61507 8.92053 9.13444 9.24021C10.1703 8.12467 11.4615 7.27793 12.8977 6.77392C12.9985 6.6424 13.1051 6.51279 13.2164 6.38799C14.5701 4.85868 16.421 4.0513 18.5686 4.0513C18.8067 4.0513 19.2934 4.09066 19.3039 4.09066C17.9676 3.70569 16.5736 3.55785 15.1855 3.65481Z" fill="url(#paint10_linear_36_1606)"/>
<path opacity="0.4" d="M16.636 24.9865C14.0833 25.1612 11.6967 24.2905 9.89381 22.7419C9.72485 22.7199 9.55589 22.692 9.38884 22.6575C7.38624 22.2485 5.75996 21.0494 4.68762 19.1908C4.56954 18.9854 4.46201 18.7742 4.36505 18.5582C5.75132 24.085 10.9287 27.999 16.8127 27.5987C16.8396 26.9929 16.661 25.5865 16.6341 24.9865H16.636Z" fill="url(#paint11_linear_36_1606)"/>
<path opacity="0.4" d="M27.971 14.8122C27.6014 14.7747 25.8023 14.9168 25.3588 14.9907C25.4145 15.8048 25.3626 16.6017 25.2167 17.3697C25.2782 17.5214 25.3377 17.6778 25.3914 17.8353C26.0385 19.7745 25.8129 21.781 24.7405 23.6415C24.6215 23.8469 24.4929 24.0457 24.3546 24.2377C24.3546 24.2377 24.3604 24.2329 24.3623 24.229C26.8007 21.8568 28.2197 18.4727 27.971 14.8151V14.8122Z" fill="url(#paint12_linear_36_1606)"/>
<path opacity="0.5" d="M18.6925 6.74798C18.9555 6.77486 19.2368 6.84014 19.4893 6.92462C19.5008 6.92846 19.5143 6.93231 19.5239 6.93423C20.554 7.35471 21.5015 7.95377 22.3233 8.7045C22.3233 8.7045 22.3271 8.70642 22.329 8.70834C22.7236 8.25905 23.4811 7.76368 23.4811 7.76368C23.4811 7.76368 22.3214 6.57614 20.5444 6.20653C19.3021 5.94732 16.4988 5.69964 14.7305 8.70738L14.7468 8.69106C14.8783 8.4933 15.0156 8.30034 15.174 8.12369C16.0303 7.15791 17.3033 6.6059 18.6925 6.74798Z" fill="url(#paint13_linear_36_1606)"/>
<path opacity="0.5" d="M22.3434 22.3963C22.1821 22.6162 21.9978 22.8178 21.7933 22.9982C21.7856 23.0059 21.7751 23.0146 21.7664 23.0232C20.887 23.7048 19.8944 24.2252 18.8336 24.5612C18.8316 24.5612 18.8297 24.5612 18.8268 24.5631C19.0198 25.1295 19.0697 26.0338 19.0697 26.0338C19.0697 26.0338 20.6778 25.6229 21.8855 24.2693C22.7293 23.3227 24.3479 21.0187 22.6266 17.9831C22.6266 17.9831 22.6285 17.9927 22.6333 18.0052C22.7399 18.2173 22.8369 18.4343 22.9108 18.658C23.3197 19.882 23.1633 21.2625 22.3463 22.3934C22.3453 22.3944 22.3434 22.3963 22.3434 22.3963Z" fill="url(#paint14_linear_36_1606)"/>
<path opacity="0.5" d="M6.96577 17.7373C6.85633 17.4877 6.77281 17.2266 6.71904 16.9587C6.71712 16.9472 6.71328 16.9338 6.71136 16.9213C6.55968 15.8144 6.60864 14.6931 6.84481 13.6131V13.6064C6.25727 13.4912 5.4499 13.0803 5.4499 13.0803C5.4499 13.0803 5.00157 14.6806 5.57086 16.401C5.96927 17.6058 7.15393 20.1595 10.6427 20.1863C10.6427 20.1863 10.6331 20.1844 10.6206 20.1796C10.3844 20.1652 10.1482 20.1412 9.91687 20.0932C8.65157 19.834 7.53602 19.0084 6.96289 17.7354C6.96289 17.7373 6.96577 17.7373 6.96577 17.7373Z" fill="url(#paint15_linear_36_1606)"/>
<path opacity="0.6" d="M18.1865 11.4348C18.2825 11.4463 18.3776 11.4511 18.4697 11.4492C18.4697 11.4492 18.4064 10.2031 18.2537 9.56181C18.1001 8.9234 17.8735 8.49811 17.6268 8.2581C17.4483 8.0853 16.8876 7.87121 16.4527 9.19028C16.3106 10.2866 17.0854 11.2908 18.1817 11.4329C18.1836 11.4329 18.1846 11.4329 18.1865 11.4339V11.4348Z" fill="url(#paint16_linear_36_1606)"/>
<path opacity="0.5" d="M11.2763 15.8288C11.2388 15.7414 11.1956 15.6579 11.1466 15.5763C11.1466 15.5763 10.0973 16.2541 9.62022 16.7053C9.14405 17.1575 8.88868 17.5664 8.80516 17.9005C8.74564 18.1405 8.83972 18.7329 10.2001 18.4506C11.2215 18.0244 11.7025 16.8503 11.2763 15.8288Z" fill="url(#paint17_linear_36_1606)"/>
<path opacity="0.6" d="M18.5359 19.6142C18.4783 19.69 18.4274 19.7726 18.3823 19.8542C18.3823 19.8542 19.494 20.4235 20.1238 20.6107C20.7545 20.7979 21.2345 20.8142 21.5658 20.7192C21.8038 20.652 22.2685 20.2718 21.3459 19.2369C20.4656 18.5658 19.2079 18.7358 18.5369 19.6161C18.5369 19.6161 18.5369 19.6171 18.5359 19.6171C18.5359 19.6161 18.5359 19.6142 18.5359 19.6142Z" fill="url(#paint18_linear_36_1606)"/>
<path opacity="0.3" d="M18.1049 14.4445C17.8524 15.2826 17.4991 16.0448 17.0661 16.7159C17.0431 16.7504 17.021 16.7859 16.9961 16.8224C16.9961 16.8224 16.9961 16.8244 16.9941 16.8263C16.6908 17.2621 16.3471 17.6692 15.9669 18.0407C16.2424 18.3325 16.5381 18.6158 16.8645 18.8846C17.2361 19.1764 17.6287 19.4404 18.0386 19.6727C18.8748 18.8106 19.5603 17.8132 20.0662 16.7235C20.2467 16.3549 20.4061 15.9757 20.5424 15.5878C20.12 15.2778 19.6928 15.0291 19.2982 14.8611C18.9094 14.695 18.51 14.5558 18.103 14.4445H18.1049Z" fill="url(#paint19_linear_36_1606)"/>
<path opacity="0.3" d="M9.89385 22.7419C12.1691 23.052 14.358 22.3291 15.8498 21.444C15.6665 21.3163 15.486 21.1848 15.3074 21.0494C14.74 20.6155 14.2197 20.124 13.7551 19.5815C12.6338 20.0721 11.2206 20.3592 9.91209 20.0923C8.64678 19.834 7.5322 19.0084 6.95907 17.7354C6.84962 17.4858 6.76706 17.2247 6.71234 16.9568C7.04355 19.2772 8.21381 21.3019 9.89193 22.7419H9.89385Z" fill="url(#paint20_linear_36_1606)"/>
<path opacity="0.3" d="M15.9669 18.0407C15.3918 17.433 14.9051 16.7485 14.5211 16.0055C14.5028 15.9661 14.4817 15.9316 14.4635 15.8922V15.8884C14.2379 15.4074 14.0584 14.9053 13.9259 14.3907C13.5351 14.4829 13.1435 14.5981 12.7489 14.7459C12.3111 14.9206 11.8868 15.128 11.4797 15.3661C11.8455 16.6333 12.385 17.7037 13.0158 18.5985C13.2443 18.9374 13.491 19.2638 13.7598 19.5777C14.2398 19.3684 14.6699 19.1198 15.0117 18.8625C15.3486 18.6091 15.6683 18.3335 15.9688 18.0369C15.9688 18.0388 15.9669 18.0407 15.9669 18.0407Z" fill="url(#paint21_linear_36_1606)"/>
<path opacity="0.3" d="M12.8891 6.78253C11.4817 8.59793 11.0132 10.8549 11.0344 12.5878C11.2369 12.4927 11.4414 12.4015 11.6488 12.3151C12.3074 12.0406 12.9928 11.8361 13.6936 11.7055C13.83 10.4892 14.2869 9.1221 15.1721 8.12368C16.0284 7.15598 17.3014 6.60397 18.6905 6.74605C18.9536 6.77293 19.2349 6.83821 19.4874 6.92269C19.4989 6.92653 19.5114 6.93037 19.5219 6.93229C18.2038 6.39468 16.7801 6.1662 15.3602 6.26508C14.4981 6.3246 13.6725 6.49932 12.892 6.77389C12.8901 6.77581 12.8882 6.77965 12.8863 6.78157H12.8891V6.78253Z" fill="url(#paint22_linear_36_1606)"/>
<path opacity="0.3" d="M25.2148 17.3533C24.3441 15.2278 22.6228 13.6908 21.1117 12.8431C21.0935 13.0591 21.0714 13.2809 21.0397 13.5132C20.9485 14.2208 20.7824 14.9168 20.5453 15.5898C21.5312 16.3175 22.4884 17.3946 22.9117 18.6618C23.3197 19.8859 23.1642 21.2664 22.3472 22.3973C22.186 22.6171 22.0016 22.8187 21.7972 22.9992L21.7895 23.0069C23.5511 21.6225 24.7972 19.6267 25.2254 17.3677C25.2254 17.3639 25.2216 17.3591 25.2216 17.3552L25.2148 17.3533Z" fill="url(#paint23_linear_36_1606)"/>
<path opacity="0.3" d="M13.6869 13.1513C13.7368 13.5699 13.8155 13.9846 13.923 14.3917C14.7755 14.1901 15.6108 14.1161 16.4105 14.1555L16.5381 14.1613H16.542C17.0431 14.2025 17.5644 14.2947 18.1049 14.4425C18.2201 14.0585 18.3161 13.6601 18.3862 13.2444C18.462 12.727 18.4841 12.2479 18.4822 11.8313C17.2025 11.5154 16.0073 11.4511 14.9176 11.55C14.5077 11.5769 14.0997 11.6287 13.6955 11.7036C13.6379 12.2249 13.636 12.7203 13.6888 13.1475C13.6888 13.1494 13.6869 13.1513 13.6869 13.1513Z" fill="url(#paint24_linear_36_1606)"/>
<defs>
<linearGradient id="paint0_linear_36_1606" x1="7.81071" y1="23.8154" x2="23.1108" y2="8.51339" gradientUnits="userSpaceOnUse">
<stop stop-color="#E6007A"/>
<stop offset="0.21" stop-color="#703AC2"/>
<stop offset="0.46" stop-color="#0070EB"/>
<stop offset="0.77" stop-color="#0297FB"/>
<stop offset="1" stop-color="#0AE2FF"/>
</linearGradient>
<radialGradient id="paint1_radial_36_1606" cx="0" cy="0" r="1" gradientUnits="userSpaceOnUse" gradientTransform="translate(19.4208 13.1961) scale(4.56334 4.56334)">
<stop stop-color="white"/>
<stop offset="1" stop-color="white" stop-opacity="0"/>
</radialGradient>
<radialGradient id="paint2_radial_36_1606" cx="0" cy="0" r="1" gradientUnits="userSpaceOnUse" gradientTransform="translate(12.6767 21.6614) scale(2.65544)">
<stop stop-color="white"/>
<stop offset="1" stop-color="white" stop-opacity="0"/>
</radialGradient>
<linearGradient id="paint3_linear_36_1606" x1="8.69214" y1="21.212" x2="11.2514" y2="21.1768" gradientUnits="userSpaceOnUse">
<stop stop-color="white" stop-opacity="0"/>
<stop offset="1" stop-color="white"/>
</linearGradient>
<radialGradient id="paint4_radial_36_1606" cx="0" cy="0" r="1" gradientUnits="userSpaceOnUse" gradientTransform="translate(12.1867 13.8773) rotate(-120) scale(4.56333)">
<stop stop-color="white"/>
<stop offset="1" stop-color="white" stop-opacity="0"/>
</radialGradient>
<radialGradient id="paint5_radial_36_1606" cx="0" cy="0" r="1" gradientUnits="userSpaceOnUse" gradientTransform="translate(22.8902 15.486) rotate(-120) scale(2.65543)">
<stop stop-color="white"/>
<stop offset="1" stop-color="white" stop-opacity="0"/>
</radialGradient>
<linearGradient id="paint6_linear_36_1606" x1="24.4899" y1="19.1606" x2="23.1798" y2="16.9622" gradientUnits="userSpaceOnUse">
<stop stop-color="white" stop-opacity="0"/>
<stop offset="1" stop-color="white"/>
</linearGradient>
<radialGradient id="paint7_radial_36_1606" cx="0" cy="0" r="1" gradientUnits="userSpaceOnUse" gradientTransform="translate(16.1766 19.5911) rotate(120) scale(4.56333)">
<stop stop-color="white"/>
<stop offset="1" stop-color="white" stop-opacity="0"/>
</radialGradient>
<radialGradient id="paint8_radial_36_1606" cx="0" cy="0" r="1" gradientUnits="userSpaceOnUse" gradientTransform="translate(12.4335 9.73071) rotate(120) scale(2.65543)">
<stop stop-color="white"/>
<stop offset="1" stop-color="white" stop-opacity="0"/>
</radialGradient>
<linearGradient id="paint9_linear_36_1606" x1="14.8108" y1="6.50203" x2="13.5631" y2="8.7369" gradientUnits="userSpaceOnUse">
<stop stop-color="white" stop-opacity="0"/>
<stop offset="1" stop-color="white"/>
</linearGradient>
<linearGradient id="paint10_linear_36_1606" x1="15.3713" y1="5.3681" x2="11.4607" y2="6.50573" gradientUnits="userSpaceOnUse">
<stop stop-color="#231F20"/>
<stop offset="1" stop-color="white"/>
</linearGradient>
<linearGradient id="paint11_linear_36_1606" x1="7.983" y1="20.2782" x2="11.2527" y2="23.6911" gradientUnits="userSpaceOnUse">
<stop stop-color="#231F20"/>
<stop offset="1" stop-color="white"/>
</linearGradient>
<linearGradient id="paint12_linear_36_1606" x1="25.5307" y1="19.7638" x2="26.6683" y2="16.3053" gradientUnits="userSpaceOnUse">
<stop stop-color="#231F20"/>
<stop offset="1" stop-color="white"/>
</linearGradient>
<linearGradient id="paint13_linear_36_1606" x1="17.1518" y1="7.34645" x2="22.3931" y2="8.54608" gradientUnits="userSpaceOnUse">
<stop stop-color="#231F20"/>
<stop offset="1" stop-color="white"/>
</linearGradient>
<linearGradient id="paint14_linear_36_1606" x1="22.5952" y1="20.7626" x2="18.9331" y2="24.7027" gradientUnits="userSpaceOnUse">
<stop stop-color="#231F20"/>
<stop offset="1" stop-color="white"/>
</linearGradient>
<linearGradient id="paint15_linear_36_1606" x1="8.25318" y1="18.7712" x2="6.67313" y2="13.6315" gradientUnits="userSpaceOnUse">
<stop stop-color="#231F20"/>
<stop offset="1" stop-color="white"/>
</linearGradient>
<linearGradient id="paint16_linear_36_1606" x1="18.2969" y1="9.27894" x2="16.6397" y2="10.9386" gradientUnits="userSpaceOnUse">
<stop stop-color="#231F20"/>
<stop offset="1" stop-color="white"/>
</linearGradient>
<linearGradient id="paint17_linear_36_1606" x1="9.35548" y1="16.8094" x2="11.6203" y2="17.4178" gradientUnits="userSpaceOnUse">
<stop stop-color="#231F20"/>
<stop offset="1" stop-color="white"/>
</linearGradient>
<linearGradient id="paint18_linear_36_1606" x1="20.3456" y1="20.7878" x2="19.7388" y2="18.5238" gradientUnits="userSpaceOnUse">
<stop stop-color="#231F20"/>
<stop offset="1" stop-color="white"/>
</linearGradient>
<linearGradient id="paint19_linear_36_1606" x1="16.8958" y1="18.7726" x2="17.8918" y2="17.399" gradientUnits="userSpaceOnUse">
<stop stop-color="#231F20"/>
<stop offset="1" stop-color="white"/>
</linearGradient>
<linearGradient id="paint20_linear_36_1606" x1="13.4714" y1="18.1777" x2="11.4814" y2="19.1266" gradientUnits="userSpaceOnUse">
<stop stop-color="#231F20"/>
<stop offset="1" stop-color="white"/>
</linearGradient>
<linearGradient id="paint21_linear_36_1606" x1="12.7509" y1="14.8647" x2="13.3669" y2="16.1443" gradientUnits="userSpaceOnUse">
<stop stop-color="#231F20"/>
<stop offset="1" stop-color="white"/>
</linearGradient>
<linearGradient id="paint22_linear_36_1606" x1="15.6125" y1="10.9149" x2="15.1873" y2="9.44642" gradientUnits="userSpaceOnUse">
<stop stop-color="#231F20"/>
<stop offset="1" stop-color="white"/>
</linearGradient>
<linearGradient id="paint23_linear_36_1606" x1="20.2103" y1="17.6394" x2="21.4423" y2="17.923" gradientUnits="userSpaceOnUse">
<stop stop-color="#231F20"/>
<stop offset="1" stop-color="white"/>
</linearGradient>
<linearGradient id="paint24_linear_36_1606" x1="18.2773" y1="13.477" x2="16.7145" y2="13.1934" gradientUnits="userSpaceOnUse">
<stop stop-color="#231F20"/>
<stop offset="1" stop-color="white"/>
</linearGradient>
</defs>
</svg>
