<svg width="32" height="32" viewBox="0 0 32 32" fill="none" xmlns="http://www.w3.org/2000/svg">
<circle cx="16" cy="16" r="16" fill="#171717"/>
<path d="M20.7453 19.0659V17.9056C21.4595 17.6606 21.9796 16.8999 21.9796 15.9995C21.9796 15.0992 21.4595 14.3363 20.7453 14.0935V12.9331C21.4179 12.7032 21.9195 12.0134 21.975 11.1797H21.1567V11.5342C21.1567 11.8071 20.9903 12.0478 20.7453 12.1682V12.0027C20.7453 11.7599 20.5326 11.5622 20.2715 11.5622H20.2299C19.9687 11.5622 19.756 11.7599 19.756 12.0027V12.1682C19.511 12.0478 19.3445 11.8093 19.3445 11.5342V11.1797H18.5264C18.5818 12.0134 19.0834 12.7032 19.756 12.9331V14.0935C19.0441 14.3363 18.5217 15.097 18.5217 15.9995C18.5217 16.902 19.0418 17.6627 19.756 17.9056V19.0659C19.0834 19.2959 18.5818 19.9857 18.5264 20.8194H19.3445V20.4648C19.3445 20.1919 19.511 19.9512 19.756 19.8309V19.9964C19.756 20.2392 19.9687 20.4369 20.2299 20.4369H20.2715C20.5326 20.4369 20.7453 20.2392 20.7453 19.9964V19.8309C20.9903 19.9512 21.1567 20.1898 21.1567 20.4648V20.8194H21.975C21.9195 19.9857 21.4179 19.2959 20.7453 19.0659ZM19.3445 16.5067V15.4903C19.3445 15.2174 19.511 14.9767 19.756 14.8563V15.0218C19.756 15.2646 19.9687 15.4623 20.2299 15.4623H20.2715C20.5326 15.4623 20.7453 15.2646 20.7453 15.0218V14.8563C20.9903 14.9767 21.1567 15.2152 21.1567 15.4903V16.5067C21.1567 16.7796 20.9903 17.0202 20.7453 17.1406V16.9751C20.7453 16.7323 20.5326 16.5346 20.2715 16.5346H20.2299C19.9687 16.5346 19.756 16.7323 19.756 16.9751V17.1406C19.5133 17.0202 19.3445 16.7817 19.3445 16.5067Z" fill="white"/>
<path d="M25.7657 16.6163V15.3807C26.4799 15.1357 27 14.375 27 13.4746C27 12.5743 26.4799 11.8114 25.7657 11.5686V11.1797H24.7787V11.5686C24.0645 11.8136 23.5444 12.5743 23.5444 13.4746C23.5444 14.375 24.0645 15.1378 24.7787 15.3807V16.6163C24.0645 16.8612 23.5444 17.6219 23.5444 18.5223C23.5444 19.4226 24.0645 20.1855 24.7787 20.4283V20.8172H25.7657V20.4283C26.4799 20.1833 27 19.4226 27 18.5223C27 17.6219 26.4799 16.8612 25.7657 16.6163ZM24.3649 13.9818V12.9654C24.3649 12.6925 24.5314 12.4518 24.7764 12.3315V12.4969C24.7764 12.7397 24.9891 12.9374 25.2503 12.9374H25.2896C25.5507 12.9374 25.7633 12.7397 25.7633 12.4969V12.3315C26.0084 12.4518 26.1748 12.6903 26.1748 12.9654V13.9818C26.1748 14.2547 26.0084 14.4954 25.7633 14.6157V14.4502C25.7633 14.2074 25.5507 14.0097 25.2896 14.0097H25.2479C24.9868 14.0097 24.7741 14.2074 24.7741 14.4502V14.6157C24.5337 14.4954 24.3649 14.2568 24.3649 13.9818ZM26.1771 19.0315C26.1771 19.3045 26.0107 19.5451 25.7657 19.6654V19.4226C25.7657 19.1798 25.553 18.9821 25.2919 18.9821H25.2526C24.9914 18.9821 24.7787 19.1798 24.7787 19.4226V19.6654C24.5337 19.5451 24.3672 19.3066 24.3672 19.0315V18.0151C24.3672 17.7422 24.5337 17.5016 24.7787 17.3812V17.4693C24.7787 17.7122 24.9914 17.9099 25.2526 17.9099H25.2942C25.5554 17.9099 25.768 17.7122 25.768 17.4693V17.3812C26.013 17.5016 26.1794 17.7401 26.1794 18.0151V19.0315H26.1771Z" fill="white"/>
<path d="M15.0894 15.0159C15.0801 14.9665 15.0686 14.9192 15.0501 14.8741C15.057 14.8633 16.5917 12.8756 15.1703 11.6465C13.7511 10.4174 12.0937 12.0204 12.0845 12.029C11.821 11.9516 11.5552 11.9044 11.2917 11.8829C11.2917 11.8829 11.2917 11.8829 11.2894 11.8829C10.7485 11.7991 9.99035 11.8829 9.99035 11.8829C9.72916 11.9044 9.46566 11.9516 9.20447 12.0268C9.19522 12.0182 7.53793 10.4152 6.11873 11.6444C4.69952 12.8735 6.23198 14.8633 6.23892 14.8719C6.22274 14.9192 6.20887 14.9665 6.19962 15.0137C6.04708 15.8647 5 16.1268 5 17.6095C5 19.1202 6.0933 20.3106 8.32613 20.3106H9.24145C9.24608 20.3149 9.59972 20.7834 10.3301 20.8113C10.3301 20.8113 10.4989 20.8285 10.8872 20.8156C11.6615 20.8156 12.0383 20.3192 12.0406 20.3127H12.9559C15.1887 20.3127 16.282 19.1223 16.282 17.6117C16.2889 16.1311 15.2419 15.8668 15.0894 15.0159Z" fill="white"/>
</svg>
