<svg width="32" height="32" viewBox="0 0 32 32" fill="none" xmlns="http://www.w3.org/2000/svg">
<path d="M2.24387 7.78225C2.75483 7.06878 3.22966 6.33085 3.80536 5.6625C4.85244 4.44689 6.03817 3.4051 7.39593 2.54278C8.61393 1.76926 9.8984 1.15957 11.2729 0.733244C13.413 0.0693381 15.5977 -0.128084 17.823 0.125867C19.4495 0.311493 21.0167 0.726749 22.5092 1.39927C23.4127 1.80631 24.2625 2.30924 25.0955 2.8524C26.774 3.94687 28.1186 5.37164 29.2427 6.99946C30.4433 8.73815 31.2235 10.6723 31.6514 12.7468C31.952 14.2037 32.0788 15.6741 31.9498 17.1541C31.7908 18.979 31.3856 20.7385 30.6285 22.4296C29.9882 23.8599 29.1978 25.1733 28.1857 26.3595C27.1956 27.52 26.0791 28.5353 24.796 29.3723C23.9223 29.9422 23.0116 30.4509 22.0501 30.8286C20.4414 31.4606 18.7732 31.888 17.0276 31.9629C15.7986 32.0155 14.5766 31.9949 13.3642 31.7797C12.3229 31.595 11.3065 31.3253 10.3115 30.9516C9.34623 30.5891 8.41002 30.1597 7.54743 29.6167C6.30378 28.8339 5.18267 27.8839 4.18503 26.7894C3.07346 25.5698 2.17217 24.2175 1.48255 22.724C0.508362 20.6143 0.0292874 18.3898 0.000790776 16.0687C-0.00994517 15.1958 0.0901907 14.3295 0.206563 13.4654C0.214913 13.4036 0.20643 13.3396 0.205768 13.2765C0.30756 13.2134 0.298548 13.103 0.316905 13.0067C0.57576 11.6492 1.01236 10.3519 1.60376 9.10291C1.81331 8.66061 2.10245 8.25702 2.24387 7.78225ZM20.9143 16.3558C21.3475 16.1255 21.7592 15.9936 22.0845 15.703C23.3382 14.5831 23.6724 11.9472 21.6374 10.6774C21.0034 10.2819 20.3272 9.98869 19.5982 9.68954C19.7187 8.7133 20.1091 7.79975 20.2359 6.79991C19.6344 6.65087 19.0709 6.45305 18.4846 6.3895C18.2449 7.32902 18.0151 8.22978 17.7773 9.16209C17.3279 9.02451 16.8653 9.03756 16.4424 8.79938C16.595 7.84574 16.9576 6.95227 17.0566 5.99518C16.4388 5.89816 15.9157 5.6576 15.316 5.63168C15.0799 6.57333 14.8514 7.4845 14.6145 8.42933C13.4253 8.24708 12.3335 7.83812 11.1339 7.61823C10.8703 8.20871 10.7536 8.83173 10.6479 9.49457C11.0386 9.58682 11.3783 9.6684 11.7187 9.74713C12.5779 9.94581 12.8133 10.4155 12.6093 11.1669C12.4642 11.7014 12.3332 12.2398 12.1996 12.7774C11.7195 14.7099 11.2432 16.6432 10.7602 18.5749C10.6514 19.0101 10.3802 19.1519 9.93856 19.0873C9.50363 19.0237 9.09314 18.8283 8.6138 18.8425C8.40598 19.5074 7.99231 20.0931 7.84585 20.8271C8.9881 21.1181 10.0932 21.3996 11.2485 21.6939C11.1615 22.7018 10.7439 23.6241 10.6205 24.6391C11.1996 24.7779 11.7448 24.9085 12.3133 25.0449C12.688 24.1141 12.7744 23.136 13.1236 22.1733C13.5444 22.3897 14.0114 22.3269 14.4233 22.5993C14.1988 23.5272 13.9751 24.4517 13.7488 25.3877C14.3443 25.6009 14.9253 25.6878 15.5221 25.8364C15.7636 24.8686 15.9971 23.9326 16.2231 23.0274C16.3638 22.9551 16.4667 22.9686 16.5639 22.9894C17.4992 23.1896 18.4453 23.2363 19.3921 23.1312C20.2117 23.0402 20.9391 22.7278 21.5226 22.1125C22.1714 21.4284 22.4974 20.5914 22.6544 19.6913C22.7823 18.958 22.7495 18.2149 22.319 17.5659C21.9816 17.0573 21.5182 16.6692 20.9143 16.3558ZM14.1527 20.1768C15.3065 20.4634 16.4591 20.7699 17.6664 20.5495C18.3102 20.4319 18.7955 20.1035 18.9908 19.4558C19.1751 18.8449 19.068 18.2899 18.6149 17.807C18.1437 17.305 17.5377 17.044 16.9129 16.8258C16.1664 16.5651 15.4097 16.3282 14.5941 16.2638C14.2815 17.5341 13.9782 18.767 13.6681 20.0272C13.8657 20.0888 14.0072 20.1407 14.1527 20.1768ZM18.2284 14.8536C18.8664 14.7629 19.3955 14.3408 19.551 13.7672C19.7411 13.0659 19.5287 12.4507 18.9611 12.0324C18.317 11.5577 17.5755 11.3162 16.8092 11.1485C16.5238 11.086 16.243 10.9196 15.8976 11.0319C15.623 12.1477 15.3474 13.2684 15.0627 14.4256C16.1533 14.701 17.1576 15.0057 18.2284 14.8536Z" fill="#F39321"/>
</svg>
