<svg width="32" height="32" viewBox="0 0 32 32" fill="none" xmlns="http://www.w3.org/2000/svg">
<g clip-path="url(#clip0_2527_319)">
<path d="M16 32C24.8365 32 32 24.8365 32 16C32 7.16344 24.8365 0 16 0C7.16345 0 0 7.16344 0 16C0 24.8365 7.16345 32 16 32Z" fill="#F25D00"/>
<path d="M9.98816 12.6652V17.5437C9.98816 17.7115 10.1242 17.8477 10.2922 17.8477H15.1705C15.3384 17.8477 15.4745 17.7115 15.4745 17.5437V12.6652C15.4745 12.4973 15.3384 12.3612 15.1705 12.3612H10.2922C10.1242 12.3612 9.98816 12.4973 9.98816 12.6652Z" fill="white"/>
<path d="M9.98993 19.5211V24.3994C9.98993 24.5674 10.1261 24.7034 10.2939 24.7034H15.1724C15.3402 24.7034 15.4764 24.5674 15.4764 24.3994V19.5211C15.4764 19.3531 15.3402 19.217 15.1724 19.217H10.2939C10.1261 19.217 9.98993 19.3531 9.98993 19.5211Z" fill="white"/>
<path d="M16.8452 19.5215V24.4C16.8452 24.5678 16.9813 24.704 17.1492 24.704H22.0275C22.1955 24.704 22.3315 24.5678 22.3315 24.4V19.5215C22.3315 19.3537 22.1955 19.2175 22.0275 19.2175H17.1492C16.9813 19.2175 16.8452 19.3537 16.8452 19.5215Z" fill="white"/>
<path d="M16.8452 12.6636V17.542C16.8452 17.7099 16.9813 17.846 17.1492 17.846H22.0276C22.1955 17.846 22.3315 17.7099 22.3315 17.542V12.6636C22.3315 12.4957 22.1955 12.3596 22.0276 12.3596H17.1492C16.9813 12.3596 16.8452 12.4957 16.8452 12.6636Z" fill="white"/>
<path d="M15.1705 5.50378H10.2921C10.1242 5.50378 9.98816 5.63989 9.98816 5.80779V10.6862C9.98816 10.8541 10.1242 10.9902 10.2921 10.9902H15.1705C15.3384 10.9902 15.4745 10.8541 15.4745 10.6862V5.80779C15.4745 5.63989 15.3384 5.50378 15.1705 5.50378Z" fill="white"/>
</g>
<defs>
<clipPath id="clip0_2527_319">
<rect width="32" height="32" fill="white" transform="translate(0 0.00292969)"/>
</clipPath>
</defs>
</svg>
