<svg width="32" height="32" viewBox="0 0 32 32" fill="none" xmlns="http://www.w3.org/2000/svg">
<path d="M0 16.0029C0 7.16637 7.16344 0.00292969 16 0.00292969C24.8366 0.00292969 32 7.16637 32 16.0029C32 24.8395 24.8366 32.0029 16 32.0029C7.16344 32.0029 0 24.8395 0 16.0029Z" fill="black"/>
<path d="M16.0527 19.2935H7.00859C7.00384 19.2935 7 19.2897 7 19.2849V7.25216C7 6.63399 7.50374 6.13281 8.12501 6.13281H16.0441C19.1561 6.13281 21.6789 8.64274 21.6789 11.739V13.6959C21.6789 16.7874 19.16 19.2935 16.0527 19.2935Z" fill="#A4EA72"/>
<path d="M18.3863 25.873H8.12501C7.50374 25.873 7 25.3718 7 24.7537V19.3012C7 15.6622 9.96505 12.7123 13.6223 12.7123H18.2647C21.9894 12.7123 25.0731 15.7216 24.9987 19.4267C24.9268 22.999 21.9938 25.873 18.3861 25.873H18.3863Z" fill="#AAABA6"/>
<path d="M21.6792 13.5878V13.6973C21.6792 16.7889 19.1614 19.294 16.0518 19.294H7.00877C7.00402 19.294 7 19.29 7 19.2853C7.00238 17.4719 7.74318 15.8302 8.936 14.641C10.1332 13.4499 11.7866 12.7147 13.6152 12.7147H18.3861C19.586 12.7147 20.7096 13.0329 21.6792 13.5878Z" fill="#478954"/>
</svg>
