<svg width="32" height="32" viewBox="0 0 32 32" fill="none" xmlns="http://www.w3.org/2000/svg">
<path d="M25.1172 27.4491L23.4219 28.0374L21.7374 23.008C21.7374 23.008 21.5171 22.1778 20.8481 22.1778H11.1438C11.1438 22.1778 10.6119 22.0623 10.2089 23.2176C9.80589 24.3701 8.63987 28.0294 8.63987 28.0294L6.88548 27.4302L8.70973 21.893C8.70973 21.893 9.42438 20.2998 11.168 20.2998H20.9636C20.9636 20.2998 22.855 20.2434 23.4891 22.2718C24.1231 24.3003 25.1172 27.4517 25.1172 27.4517V27.4491Z" fill="#211D1D"/>
<path d="M28 23.8274L26.3423 24.5958L23.9834 19.4777C23.9834 19.4777 23.6449 18.6851 23.0941 18.6475C22.6455 18.618 9.23094 18.6206 8.89242 18.6475C8.5539 18.6744 8.36852 18.5669 7.69148 19.9989C7.07623 21.2992 5.67648 24.5689 5.67648 24.5689L4 23.814L6.4583 18.3573C6.4583 18.3573 7.04668 16.7534 8.9166 16.7642C10.6602 16.7749 22.5434 16.7373 23.2097 16.7642C23.876 16.791 24.8781 16.8662 25.6922 18.6448C26.662 20.6679 27.9973 23.8274 27.9973 23.8274H28Z" fill="#211D1D"/>
<path d="M4 8.04048L5.65767 7.27209L8.01657 12.3902C8.01657 12.3902 8.35509 13.1828 8.90585 13.2204C9.35453 13.2499 22.7691 13.2472 23.1076 13.2204C23.4461 13.1935 23.6315 13.301 24.3085 11.869C24.9238 10.5686 26.3235 7.29896 26.3235 7.29896L28 8.05391L25.5417 13.5105C25.5417 13.5105 24.9533 15.1145 23.0834 15.1037C21.3398 15.093 9.45662 15.1306 8.79033 15.1037C8.12403 15.0769 7.12191 15.0016 6.30785 13.2231C5.33527 11.2 4 8.04048 4 8.04048Z" fill="#FFD966"/>
<path d="M6.88548 4.54517L8.58077 3.95679L10.2653 8.98623C10.2653 8.98623 10.4856 9.81641 11.1546 9.81641H20.8588C20.8588 9.81641 21.3908 9.93194 21.7938 8.77667C22.1968 7.6214 23.3628 3.96753 23.3628 3.96753L25.1172 4.56666L23.293 10.1039C23.293 10.1039 22.5783 11.6971 20.8347 11.6971H11.0391C11.0391 11.6971 9.14765 11.7535 8.5136 9.72506C7.87954 7.69663 6.88548 4.54517 6.88548 4.54517Z" fill="#FFD966"/>
</svg>
