<svg width="32" height="32" viewBox="0 0 32 32" fill="none" xmlns="http://www.w3.org/2000/svg">
<g clip-path="url(#clip0_4389_3378)">
<path d="M32 0H0V32H32V0Z" fill="#7B2BF9"/>
<path d="M26.112 13.8501C25.7246 12.0307 24.8535 10.3495 23.5905 8.98374C22.3275 7.61799 20.7194 6.61832 18.9358 6.0901C17.1521 5.56189 15.259 5.5247 13.456 5.98247C11.653 6.44024 10.0069 7.37599 8.69121 8.69108C8.22185 9.16044 7.79819 9.67336 7.42593 10.2229C7.31657 10.3691 7.21807 10.5231 7.13121 10.6837C6.40743 11.8952 5.93929 13.2419 5.75562 14.6411C5.57195 16.0403 5.67663 17.4623 6.06322 18.8195C6.44982 20.1767 7.11014 21.4404 8.00352 22.5328C8.89691 23.6252 10.0044 24.5231 11.2579 25.1713C12.5114 25.8196 13.8844 26.2043 15.2922 26.302C16.7 26.3996 18.1129 26.208 19.4438 25.739C20.7748 25.27 21.9957 24.5335 23.0313 23.5749C24.0669 22.6163 24.8954 21.4559 25.4656 20.165C25.5275 20.0369 25.582 19.9054 25.6288 19.7711C26.098 18.5692 26.3379 17.2901 26.336 15.9999C26.3362 15.2867 26.2633 14.5753 26.1184 13.877C26.1165 13.868 26.1149 13.8591 26.112 13.8501ZM22.528 9.12404C22.5875 9.18036 22.6464 9.23796 22.7046 9.2962C23.6046 10.1933 24.3147 11.2624 24.7926 12.4399C24.8034 12.4664 24.8069 12.4953 24.8026 12.5237C24.7984 12.552 24.7866 12.5786 24.7686 12.6009C24.7506 12.6231 24.7269 12.6401 24.7 12.65C24.6732 12.66 24.6442 12.6626 24.616 12.6575C24.3129 12.6067 24.0055 12.5853 23.6982 12.5935C23.5847 12.5958 23.4739 12.5576 23.386 12.4857C23.298 12.4138 23.2385 12.3129 23.2182 12.2012C23.0339 11.1676 22.7674 10.213 22.425 9.37972C22.4054 9.33236 22.3859 9.28532 22.3658 9.23892C22.3563 9.21752 22.3546 9.19352 22.3608 9.17098C22.3671 9.14844 22.3809 9.12874 22.4 9.11523C22.4191 9.10171 22.4422 9.09521 22.4656 9.09681C22.4889 9.09842 22.511 9.10804 22.528 9.12404ZM23.511 15.1877C23.5105 15.1642 23.5175 15.1411 23.531 15.1218C23.5446 15.1025 23.5639 15.0881 23.5863 15.0806C23.6086 15.0732 23.6328 15.0731 23.6552 15.0804C23.6776 15.0877 23.6971 15.102 23.7107 15.1212C23.7882 15.23 23.8628 15.3392 23.9347 15.4488C24.0299 15.5948 24.1184 15.7398 24.2003 15.884C24.2252 15.928 24.2355 15.9786 24.2297 16.0288C24.224 16.0789 24.2025 16.1259 24.1683 16.1631C24.0576 16.2847 23.9372 16.4106 23.807 16.5407C23.7594 16.5884 23.711 16.6367 23.6614 16.6837C23.6476 16.6961 23.6306 16.7042 23.6123 16.707C23.594 16.7099 23.5753 16.7074 23.5583 16.6998C23.5414 16.6923 23.5271 16.68 23.517 16.6645C23.5069 16.649 23.5015 16.6309 23.5014 16.6124C23.5076 16.4568 23.5121 16.3007 23.5149 16.1439C23.52 15.8226 23.5184 15.5039 23.5101 15.1877H23.511ZM10.496 8.27828C12.1007 7.12889 14.0262 6.51318 16 6.51828C16.5228 6.51821 17.0448 6.56102 17.5606 6.64628C17.5912 6.65135 17.6195 6.66515 17.6424 6.68601C17.6652 6.70687 17.6815 6.7339 17.6893 6.76383C17.6971 6.79376 17.696 6.8253 17.6862 6.85464C17.6765 6.88399 17.6584 6.90987 17.6342 6.92916C17.1392 7.31732 16.679 7.89172 16.272 8.63668C16.2239 8.72481 16.1473 8.794 16.0548 8.83294C15.9622 8.87189 15.8592 8.87828 15.7626 8.85108C14.4138 8.47124 13.0864 8.29268 11.8602 8.33556C11.4298 8.3494 11.001 8.39486 10.5773 8.47156C10.5534 8.47546 10.5289 8.4712 10.5077 8.45948C10.4865 8.44775 10.4699 8.42924 10.4605 8.40693C10.4512 8.38462 10.4495 8.3598 10.456 8.33646C10.4624 8.31313 10.4765 8.29263 10.496 8.27828ZM9.14241 22.4396C8.94337 22.0636 9.20097 21.1916 10.5094 19.8687C10.5417 19.8361 10.5668 19.7971 10.5829 19.7542C10.5991 19.7114 10.6061 19.6655 10.6033 19.6198C10.6006 19.574 10.5882 19.5294 10.567 19.4887C10.5458 19.4481 10.5163 19.4123 10.4803 19.3839C10.4278 19.3426 10.376 19.301 10.3242 19.2594C10.2614 19.2085 10.182 19.1827 10.1012 19.1869C10.0205 19.191 9.94422 19.225 9.88705 19.2821L9.83585 19.3336C9.18177 20.0056 8.72417 20.6264 8.46753 21.1855C8.45067 21.2213 8.42465 21.2519 8.39209 21.2744C8.35954 21.2969 8.32162 21.3103 8.28219 21.3134C8.24276 21.3164 8.20322 21.309 8.1676 21.2918C8.13197 21.2746 8.10153 21.2483 8.07937 21.2156C7.0566 19.6686 6.51366 17.854 6.51873 15.9996C6.51844 15.3347 6.58751 14.6716 6.72481 14.021C6.72888 13.9998 6.73998 13.9806 6.75631 13.9665C6.77264 13.9524 6.79324 13.9442 6.8148 13.9432C6.83636 13.9423 6.85762 13.9486 6.87514 13.9612C6.89266 13.9738 6.90542 13.9919 6.91137 14.0127C7.10785 14.6623 7.42817 15.334 7.87137 16.013C8.46689 16.9276 9.25217 17.8066 10.1827 18.613C10.5005 18.8882 10.8362 19.1544 11.1859 19.413C11.9148 19.9469 12.6837 20.424 13.4858 20.8399C13.8493 21.0287 14.2032 21.2088 14.5658 21.372C14.6655 21.4172 14.7733 21.442 14.8827 21.445C14.9922 21.448 15.1012 21.429 15.2032 21.3893C15.3739 21.3221 15.546 21.2525 15.7197 21.1804C15.8108 21.142 15.8851 21.0724 15.9292 20.9839C15.9733 20.8955 15.9842 20.7942 15.96 20.6984L15.9462 20.6421C15.6608 19.4408 15.5021 18.0882 15.4832 16.6719C15.4832 16.6549 15.4832 16.6376 15.4832 16.6207C15.4832 16.5432 15.4832 16.4655 15.4813 16.388C15.4813 16.3634 15.4813 16.3218 15.4813 16.2968C15.4813 16.2872 15.4813 16.2773 15.4813 16.2677C15.4813 16.1791 15.4813 16.0908 15.4842 16.0018C15.4883 15.7586 15.4973 15.5173 15.5098 15.2783C15.5981 13.5692 15.8877 11.9628 16.3491 10.6117C16.3696 10.5517 16.3654 10.4861 16.3374 10.4292C16.3094 10.3723 16.26 10.3288 16.2 10.3084C16.078 10.2657 15.9562 10.2258 15.8346 10.1887C15.7754 10.1702 15.7113 10.1755 15.6561 10.2035C15.6008 10.2316 15.5586 10.2801 15.5386 10.3388C15.0387 11.806 14.7306 13.5468 14.648 15.3887C14.643 15.5037 14.6095 15.6157 14.5503 15.7145C14.4911 15.8133 14.4082 15.8958 14.3091 15.9544C13.2182 16.6012 12.2163 17.2866 11.3507 17.9775C11.2631 18.047 11.154 18.0838 11.0422 18.0815C10.9304 18.0792 10.8229 18.0378 10.7382 17.9647C9.87073 17.2127 9.14049 16.3967 8.58849 15.548C7.50401 13.8821 7.24449 12.3132 7.86305 11.132L7.86785 11.1237C7.94635 10.9932 8.02817 10.8644 8.11329 10.7375C8.82209 9.79924 10.1414 9.25556 11.8893 9.19412C12 9.19028 12.1116 9.18836 12.224 9.18836C13.2973 9.18836 14.449 9.36532 15.6205 9.70324L15.6976 9.72596L15.7568 9.74324C16.0275 9.82431 16.2989 9.9137 16.5709 10.0114L16.5901 10.0184C16.6607 10.044 16.7314 10.0702 16.8022 10.0968L16.8688 10.1221L16.9328 10.1468C17.5158 10.3726 18.086 10.6304 18.6406 10.9189C19.6967 11.4636 20.6902 12.1218 21.6035 12.8818C19.9427 13.2623 18.0122 13.9964 16.0714 14.9861C16.0273 15.0085 15.9898 15.0421 15.9627 15.0834C15.9357 15.1248 15.92 15.1726 15.9171 15.222C15.9104 15.3423 15.9014 15.5842 15.895 15.7765C15.8941 15.804 15.9004 15.8313 15.9133 15.8556C15.9263 15.88 15.9453 15.9004 15.9687 15.9151C15.992 15.9297 16.0188 15.9379 16.0463 15.9389C16.0738 15.9399 16.1011 15.9337 16.1254 15.9208C18.0454 14.9119 19.9654 14.1576 21.6122 13.7589C21.7606 13.7228 21.8903 13.6329 21.976 13.5065C22.0618 13.3801 22.0975 13.2263 22.0762 13.0751C22.0457 12.8558 22.0116 12.6401 21.9741 12.428C21.9279 12.1612 21.783 11.9215 21.568 11.7567C20.7713 11.152 19.9243 10.6167 19.0362 10.1567C18.4329 9.84279 17.8121 9.56362 17.177 9.32052C17.1456 9.30853 17.1172 9.28993 17.0936 9.26598C17.0701 9.24204 17.052 9.21331 17.0405 9.18175C17.029 9.15019 17.0245 9.11652 17.0271 9.08305C17.0298 9.04957 17.0397 9.01706 17.056 8.98772C17.6982 7.83828 18.464 7.19572 19.207 7.19572H19.2301C20.1085 7.2114 20.984 8.12564 21.6326 9.70452C21.9606 10.5045 22.215 11.4252 22.3888 12.4268C22.388 12.4258 22.3872 12.425 22.3862 12.4242C22.4605 12.8517 22.52 13.2933 22.5645 13.7464L22.5526 13.7535L22.5686 13.7695C22.6434 14.5533 22.6734 15.3407 22.6586 16.1279C22.6493 16.6399 22.6221 17.1429 22.5782 17.636C21.4032 18.5855 19.9507 19.5304 18.3542 20.3765C17.8294 20.6546 17.3046 20.9135 16.7862 21.1519L16.7622 21.1628L16.6429 21.2175C16.2126 21.412 15.7872 21.5918 15.3667 21.7567L15.2957 21.7839L15.2074 21.8181C15.137 21.8452 15.0669 21.8718 14.9971 21.8978L14.9392 21.9196C14.8544 21.9516 14.7699 21.9816 14.6858 22.0117C14.6755 22.0156 14.665 22.0197 14.6538 22.0232C13.7552 22.3432 12.8992 22.5848 12.119 22.7352C10.2323 23.0994 9.34401 22.821 9.14241 22.4396ZM11.7405 18.7596C12.576 18.0792 13.5549 17.4005 14.6285 16.758C14.6515 18.1314 14.8022 19.4498 15.0688 20.6408C14.6705 20.4702 14.2742 20.2831 13.88 20.0796C13.1349 19.6935 12.4198 19.2523 11.7405 18.7596ZM17.223 25.4024C16.8174 25.4544 16.4089 25.4805 16 25.4805C14.1848 25.4855 12.4068 24.9658 10.88 23.9839C10.8575 23.969 10.8403 23.9474 10.8309 23.9222C10.8214 23.897 10.8201 23.8694 10.8272 23.8435C10.8343 23.8175 10.8494 23.7944 10.8704 23.7775C10.8913 23.7606 10.9171 23.7507 10.944 23.7493C10.9696 23.7493 10.9936 23.7471 11.0147 23.7455C11.4388 23.7154 11.8607 23.6589 12.2778 23.5765C13.2496 23.3893 14.3299 23.0687 15.4611 22.6367C15.51 22.6183 15.5641 22.6198 15.6119 22.6407C15.6597 22.6616 15.6975 22.7003 15.7171 22.7487V22.7506C16.1555 23.8178 16.695 24.6245 17.3008 25.1375C17.323 25.1565 17.3392 25.1814 17.3475 25.2094C17.3558 25.2374 17.3559 25.2671 17.3476 25.2951C17.3394 25.3231 17.3233 25.3481 17.3012 25.3672C17.2791 25.3862 17.252 25.3985 17.223 25.4024ZM21.231 22.8709C20.5542 24.2021 19.7206 24.9493 18.9126 24.9343C18.0346 24.9186 17.1587 24.0044 16.5104 22.4255C16.4907 22.3772 16.4907 22.3232 16.5104 22.2749C16.5301 22.2266 16.5679 22.188 16.6157 22.1672L16.6365 22.1583C16.6791 22.1398 16.7268 22.1365 16.7715 22.149C17.9843 22.4895 19.1795 22.6671 20.2995 22.6671C20.4211 22.6671 20.5419 22.6651 20.6618 22.661C20.8019 22.6559 20.9398 22.648 21.0755 22.6373C21.1039 22.6355 21.1323 22.6411 21.1578 22.6538C21.1833 22.6664 21.205 22.6855 21.2208 22.7092C21.2366 22.7329 21.2458 22.7603 21.2476 22.7887C21.2494 22.8171 21.2437 22.8454 21.231 22.8709ZM21.5229 21.726C21.2272 21.7682 20.9295 21.7944 20.631 21.8044C19.8305 21.8266 19.0299 21.7622 18.2432 21.6124C18.2212 21.6083 18.2009 21.5975 18.1854 21.5813C18.1699 21.5652 18.1598 21.5446 18.1566 21.5224C18.1534 21.5002 18.1573 21.4776 18.1677 21.4577C18.178 21.4379 18.1944 21.4218 18.2144 21.4117C18.3945 21.3208 18.5745 21.2276 18.7546 21.132C19.9605 20.4972 21.1204 19.7786 22.2259 18.9816C22.2431 18.9692 22.2637 18.9622 22.2849 18.9614C22.3061 18.9607 22.3271 18.9663 22.3451 18.9775C22.3631 18.9887 22.3774 19.0051 22.3861 19.0245C22.3948 19.0438 22.3975 19.0654 22.3939 19.0863C22.2623 19.9017 22.0652 20.7051 21.8045 21.4888C21.784 21.5505 21.7469 21.6053 21.6972 21.6472C21.6475 21.689 21.5871 21.7163 21.5229 21.726ZM22.9222 22.478C22.8509 22.5541 22.7779 22.6296 22.7037 22.702C22.5757 22.8312 22.4435 22.9562 22.3072 23.0767C22.2891 23.0927 22.266 23.1021 22.2418 23.1031C22.2177 23.1042 22.1939 23.0969 22.1744 23.0825C22.1549 23.0681 22.141 23.0475 22.135 23.024C22.1289 23.0006 22.1311 22.9758 22.1411 22.9538C22.155 22.9244 22.1688 22.8946 22.1824 22.8645C22.2389 22.7393 22.2939 22.6113 22.3472 22.4805C22.3535 22.4653 22.3632 22.4517 22.3757 22.4409C22.3881 22.43 22.4029 22.4222 22.4189 22.4181C22.5533 22.3838 22.6843 22.3461 22.8118 22.3052C22.8343 22.2973 22.8587 22.2972 22.8812 22.3049C22.9036 22.3126 22.9228 22.3277 22.9356 22.3478C22.9484 22.3678 22.9541 22.3916 22.9516 22.4152C22.9492 22.4388 22.9388 22.461 22.9222 22.478ZM24.8275 19.47C24.7821 19.586 24.7343 19.7011 24.6842 19.8152C24.6765 19.8309 24.6691 19.8472 24.6608 19.8623C24.3482 20.4642 23.8237 20.9378 23.1229 21.2677C23.0878 21.2844 23.0486 21.2906 23.01 21.2857C22.9714 21.2807 22.9351 21.2648 22.9053 21.2398C22.8755 21.2148 22.8536 21.1817 22.8421 21.1446C22.8305 21.1074 22.8299 21.0678 22.8403 21.0303C23.0823 20.1503 23.2571 19.2532 23.3632 18.3468C23.3849 18.17 23.4716 18.0077 23.6064 17.8914C23.8944 17.6421 24.1638 17.3932 24.4115 17.1458L24.4141 17.1429C24.442 17.1151 24.4767 17.095 24.5147 17.0846C24.5527 17.0741 24.5928 17.0737 24.6311 17.0834C24.6693 17.0931 24.7043 17.1125 24.7328 17.1397C24.7613 17.167 24.7823 17.2012 24.7936 17.2389C25.0381 18.0524 25.0518 18.8098 24.8275 19.4703V19.47ZM25.0173 15.0284C25.0012 15.0576 24.9778 15.0821 24.9494 15.0995C24.921 15.117 24.8885 15.1267 24.8552 15.1278C24.8219 15.1288 24.7888 15.1212 24.7593 15.1056C24.7299 15.09 24.7049 15.0671 24.687 15.0389L24.6502 14.9816C24.3574 14.5345 24.0332 14.1086 23.68 13.7074C23.6602 13.6845 23.6473 13.6565 23.643 13.6265C23.6387 13.5965 23.6431 13.566 23.6557 13.5385C23.6683 13.5109 23.6885 13.4876 23.714 13.4713C23.7395 13.4549 23.7691 13.4462 23.7994 13.4463H23.8026C24.6518 13.4463 25.097 13.6559 25.233 13.9122C25.344 14.1263 25.3101 14.501 25.0173 15.0287V15.0284ZM25.4762 16.2815C25.4758 16.2951 25.4708 16.3081 25.462 16.3184C25.4532 16.3288 25.4411 16.3358 25.4278 16.3383C25.4145 16.3409 25.4007 16.3388 25.3887 16.3324C25.3767 16.326 25.3673 16.3157 25.3619 16.3032L25.3299 16.2268C25.3198 16.2038 25.3159 16.1785 25.3187 16.1536C25.3215 16.1286 25.3309 16.1048 25.3459 16.0847L25.3805 16.0392C25.4221 15.9852 25.4819 15.9932 25.4819 16.0533C25.4806 16.1324 25.4787 16.2008 25.4762 16.2818V16.2815Z" fill="white"/>
</g>
<defs>
<clipPath id="clip0_4389_3378">
<rect width="32" height="32" rx="16" fill="white"/>
</clipPath>
</defs>
</svg>
