<svg width="32" height="32" viewBox="0 0 32 32" fill="none" xmlns="http://www.w3.org/2000/svg">
<path d="M0 16.0029C0 7.16637 7.16344 0.00292969 16 0.00292969C24.8366 0.00292969 32 7.16637 32 16.0029C32 24.8395 24.8366 32.0029 16 32.0029C7.16344 32.0029 0 24.8395 0 16.0029Z" fill="#F4F6F8"/>
<path d="M16.4012 13.7901C15.8758 13.7901 15.4044 13.5227 15.1417 13.0733L11.5875 7.00293H21.2162L17.6621 13.0733C17.3994 13.5227 16.928 13.7901 16.4026 13.7901H16.4012Z" fill="black"/>
<path d="M19.6911 15.6632C19.1658 15.6632 18.6943 15.3958 18.4316 14.9464C18.1689 14.497 18.1689 13.9622 18.4316 13.5128L21.9858 7.44238L26.7994 15.6632H19.6897H19.6911Z" fill="black"/>
<path d="M11.5875 25.2027L15.1416 19.1323C15.4043 18.6829 15.8757 18.4155 16.4011 18.4155C16.9265 18.4155 17.3979 18.6829 17.6606 19.1323L21.2147 25.2027H11.5861H11.5875Z" fill="black"/>
<path d="M18.4316 18.6929C18.1689 18.2435 18.1689 17.7087 18.4316 17.2593C18.6943 16.8099 19.1658 16.5425 19.6911 16.5425H26.8008L21.9872 24.7633L18.4331 18.6929H18.4316Z" fill="black"/>
<path d="M6.00142 15.6632L10.8151 7.44238L14.3692 13.5128C14.6319 13.9622 14.6319 14.497 14.3692 14.9464C14.1065 15.3958 13.6351 15.6632 13.1097 15.6632H6H6.00142Z" fill="black"/>
<path d="M6.0014 16.5425H13.1111C13.6365 16.5425 14.1079 16.8099 14.3706 17.2593C14.6333 17.7087 14.6333 18.2435 14.3706 18.6929L10.8165 24.7633L6.00282 16.5425H6.0014Z" fill="black"/>
</svg>
