<svg width="32" height="32" viewBox="0 0 32 32" fill="none" xmlns="http://www.w3.org/2000/svg">
<g clip-path="url(#clip0_2813_377)">
<path d="M16 32C24.8365 32 32 24.8365 32 16C32 7.16344 24.8365 0 16 0C7.16345 0 0 7.16344 0 16C0 24.8365 7.16345 32 16 32Z" fill="#EEEEEE"/>
<path fill-rule="evenodd" clip-rule="evenodd" d="M23.8749 11.3564L20.9161 9.07625L20.8301 9.00977H16.8976L16.8096 9.07625L16.0059 9.69617L15.1904 9.06647L15.1024 9H11.1719L11.0839 9.06647L8.12712 11.3486L8 11.4444V15.7876L8.06652 15.8736L8.94064 17.0176L8.06652 18.1596L8 18.2476V20.8816L8.12712 20.9794L11.0839 23.2595L11.1719 23.328H15.1024L15.1904 23.2595L15.9941 22.6396L16.8096 23.2693L16.8976 23.3378H20.8301L20.9161 23.2693L23.8749 20.9892L24 20.8914V18.2574L23.9335 18.1694L23.0594 17.0273L23.9335 15.8834L24 15.7973V11.4541L23.8749 11.3564ZM10.9567 22.3424L8.64928 20.5629V18.4666L9.60744 17.2151L9.75805 17.0195L9.60744 16.824L8.64928 15.5705V12.2637L10.9567 14.0452V22.3424ZM14.6722 22.6788H11.6099V14.2095H14.6722V22.6788ZM16.6884 22.3522L16.1956 21.9728L16 21.8203L15.8045 21.9728L15.3234 22.3424V14.0452L16.002 13.5211L16.6923 14.055L16.6884 22.3522ZM20.4038 22.6885H17.3434V14.2192H20.4038V22.6885ZM20.6189 13.57H17.1284L16.5417 13.1124L18.4952 11.6047L18.1628 11.3486L17.1851 10.6015L16.6531 11.0102L17.4236 11.5969L16.1877 12.5512L15.9922 12.6939L15.4603 13.1046L14.8736 13.5524H11.385L8.84287 11.5969L11.385 9.64139H14.8736L15.4603 10.099L13.8372 11.3486L13.5048 11.6067L13.8372 11.8628L14.815 12.6099L15.3469 12.2012L14.5764 11.6145L16.5339 10.1068L17.1205 9.65901H20.6111L23.1533 11.6145L20.6189 13.57ZM23.3566 15.5763L22.3984 16.8298L22.2479 17.0254L22.3984 17.2209L23.3566 18.4725V20.5688L21.0491 22.3483V14.055L23.3566 12.2735V15.5763Z" fill="black"/>
</g>
<defs>
<clipPath id="clip0_2813_377">
<rect width="32" height="32" fill="white" transform="translate(0 0.00292969)"/>
</clipPath>
</defs>
</svg>
