<svg width="32" height="32" viewBox="0 0 32 32" fill="none" xmlns="http://www.w3.org/2000/svg">
<g clip-path="url(#clip0_3748_93)">
<path d="M16 32C24.8366 32 32 24.8366 32 16C32 7.16344 24.8366 0 16 0C7.16344 0 0 7.16344 0 16C0 24.8366 7.16344 32 16 32Z" fill="#A36EFD"/>
<path fill-rule="evenodd" clip-rule="evenodd" d="M8.83938 18.1727L8.91796 19.6065C8.92324 19.7038 8.9596 19.7959 9.02117 19.871C9.45276 20.3934 11.3879 22.2172 15.749 22.2172C20.1101 22.2172 22.0218 20.4175 22.4698 19.8809C22.5372 19.8 22.5759 19.6997 22.5824 19.5936L22.6604 18.1739C23.1794 17.8889 23.7153 17.567 23.7153 17.567C24.558 17.1102 25.4986 17.7664 25.5004 18.7281C25.5033 20.2844 24.2871 21.8835 22.6469 22.8915C20.7974 24.028 18.0366 24.4995 15.7502 24.4995C13.4638 24.4995 10.703 24.028 8.85346 22.8915C7.21328 21.8835 5.99707 20.285 6.00001 18.7281C6.00176 17.7664 6.94236 17.1102 7.78503 17.567C7.78503 17.567 8.31983 17.8883 8.8388 18.1727H8.83938Z" fill="#4C2897"/>
<path fill-rule="evenodd" clip-rule="evenodd" d="M15.7501 8C19.316 8 20.283 8.08327 21.7326 8.24981C22.4011 8.32663 22.9365 8.8239 22.8867 9.49768L22.3524 16.7732C22.1853 16.8219 22.0029 16.8829 21.7989 16.9515C20.7275 17.311 19.048 17.8745 15.7507 17.8745C12.4533 17.8745 10.7733 17.311 9.70248 16.9515C9.49783 16.8829 9.31546 16.8219 9.14833 16.7732L8.61412 9.49827C8.56486 8.82449 9.09907 8.31549 9.76816 8.2504C11.2002 8.11142 12.6914 8.00059 15.7507 8.00059L15.7501 8ZM9.40342 20.2588L9.40518 20.2846L9.44212 20.2928C9.42922 20.2811 9.41632 20.27 9.40342 20.2588ZM22.0616 20.2922L22.095 20.2846L22.0968 20.2612C22.0856 20.2711 22.0739 20.2817 22.0616 20.2922Z" fill="#4C2897"/>
</g>
<defs>
<clipPath id="clip0_3748_93">
<rect width="32" height="32" rx="16" fill="white"/>
</clipPath>
</defs>
</svg>
