<svg width="32" height="32" viewBox="0 0 32 32" fill="none" xmlns="http://www.w3.org/2000/svg">
<g clip-path="url(#clip0_3041_356)">
<path d="M16 32C24.8366 32 32 24.8366 32 16C32 7.16344 24.8366 0 16 0C7.16344 0 0 7.16344 0 16C0 24.8366 7.16344 32 16 32Z" fill="#00EF8B"/>
<path d="M23.0208 13.4973H18.5024V18.0157H23.0208V13.4973Z" fill="white"/>
<path d="M13.9872 19.7085C13.9872 20.044 13.8877 20.3719 13.7013 20.6508C13.515 20.9297 13.2501 21.147 12.9402 21.2754C12.6303 21.4038 12.2893 21.4374 11.9603 21.3719C11.6313 21.3065 11.3291 21.145 11.0919 20.9078C10.8547 20.6706 10.6932 20.3684 10.6277 20.0394C10.5623 19.7104 10.5959 19.3694 10.7243 19.0595C10.8526 18.7496 11.07 18.4847 11.3489 18.2983C11.6278 18.112 11.9557 18.0125 12.2912 18.0125H13.9872V13.4973H12.2912C11.0627 13.4973 9.86183 13.8616 8.8404 14.5441C7.81897 15.2266 7.02287 16.1966 6.55276 17.3316C6.08265 18.4665 5.95964 19.7154 6.19931 20.9203C6.43897 22.1251 7.03053 23.2318 7.89918 24.1005C8.76783 24.9691 9.87456 25.5607 11.0794 25.8004C12.2843 26.04 13.5331 25.917 14.6681 25.4469C15.803 24.9768 16.7731 24.1807 17.4556 23.1593C18.1381 22.1378 18.5024 20.937 18.5024 19.7085V18.0125H13.9872V19.7085Z" fill="white"/>
<path d="M20.1984 11.2391H25.28V6.7207H20.1984C18.5516 6.7224 16.9727 7.37733 15.8083 8.54179C14.6438 9.70625 13.9889 11.2851 13.9872 12.9319V13.4983H18.5024V12.9319C18.5032 12.4827 18.6823 12.0521 19.0003 11.7347C19.3182 11.4173 19.7491 11.2391 20.1984 11.2391Z" fill="white"/>
<path d="M13.9872 18.0125H18.5024V13.4973H13.9872V18.0125Z" fill="#16FF99"/>
</g>
<defs>
<clipPath id="clip0_3041_356">
<rect width="32" height="32" fill="white" transform="translate(0 0.00292969)"/>
</clipPath>
</defs>
</svg>
