<svg width="32" height="32" viewBox="0 0 32 32" fill="none" xmlns="http://www.w3.org/2000/svg">
<g clip-path="url(#clip0_4893_1184)">
<path fill-rule="evenodd" clip-rule="evenodd" d="M22.0099 0.435648C21.9309 0.400053 21.8552 0.351548 21.7724 0.330803C18.7147 -0.43525 15.6942 -0.314011 12.7344 0.77186C11.5831 1.1942 10.4996 1.75975 9.49215 2.47686C8.62021 3.09753 7.82174 3.79186 7.11931 4.5852C4.75169 7.25903 3.62489 10.3713 3.83353 13.9397C3.97324 16.3294 4.76836 18.4906 6.28251 20.3454C8.04676 22.5065 10.3171 23.8501 13.1518 24.1206C15.0189 24.2988 16.8009 23.9876 18.4363 23.0347C19.1399 22.6247 19.7753 22.1236 20.3394 21.5349C20.5123 21.3544 20.6951 21.1774 20.8986 21.0343C20.9863 20.9727 21.1695 20.9519 21.2526 21.003C21.3345 21.0533 21.4032 21.2349 21.3756 21.3298C21.2842 21.6441 21.1901 21.9718 21.0189 22.2465C20.5098 23.0632 19.8546 23.7508 19.0417 24.2863C15.9276 26.338 12.6441 26.3662 9.28933 25.014C7.51753 24.2999 6.04849 23.1415 4.80932 21.681C2.68446 19.1765 1.72481 16.2587 1.66099 13.0376C1.6241 11.1747 2.03108 9.36781 2.71788 7.63416C3.27913 6.21746 4.01946 4.89442 5.01707 3.72829C5.45709 3.21394 5.93144 2.72843 6.38976 2.22939C6.4765 2.13494 6.561 2.03851 6.64661 1.94294C6.63311 1.92679 6.61966 1.91059 6.6062 1.89439C6.48847 1.98966 6.36013 2.07468 6.25471 2.1818C5.29378 3.15803 4.39803 4.1824 3.67323 5.35261C2.40849 7.39446 1.63932 9.59346 1.43742 11.9817C1.26626 14.0057 1.46831 15.993 2.13989 17.9168C2.71656 19.5689 3.54799 21.0926 4.72291 22.4032C7.52508 25.5291 11.0151 27.0872 15.2634 26.7922C17.4506 26.6403 19.4475 25.9052 21.1543 24.5284C23.7697 22.4188 25.0798 19.6986 24.8918 16.3212C24.8761 16.0397 24.8467 15.7563 24.8664 15.4767C24.8748 15.3566 24.9749 15.1685 25.0651 15.1479C25.1673 15.1246 25.3482 15.2236 25.4202 15.3228C25.7426 15.7673 25.8431 16.2989 25.9193 16.8241C26.2234 18.9178 25.8028 20.8753 24.7607 22.7133C23.7657 24.4683 22.3948 25.8651 20.6501 26.8825C17.4939 28.7228 14.1201 29.0773 10.5988 28.2131C8.39757 27.6728 6.45652 26.6194 4.74349 25.1519C2.95516 23.6197 1.59941 21.7718 0.663623 19.6214C0.445276 19.1197 0.23947 18.6126 0 18.1137C0.0988012 18.4347 0.179896 18.7623 0.299145 19.0757C1.48382 22.1882 3.41884 24.7285 6.21079 26.5956C8.67543 28.2438 11.4028 29.1154 14.3793 29.1098C17.5411 29.1039 20.3959 28.1501 22.8651 26.1662C25.3205 24.1932 26.8015 21.6442 27.2558 18.5446C27.6029 16.1777 27.1623 13.9219 25.9508 11.8573C24.9235 10.1066 23.4658 8.78553 21.5506 8.00861C21.1074 7.82888 20.6515 7.68 20.2017 7.51618C20.0797 7.4717 19.9408 7.44755 19.8423 7.37213C19.7439 7.2968 19.6128 7.1548 19.6298 7.06754C19.651 6.95889 19.7948 6.8258 19.9111 6.79367C20.1183 6.73651 20.3454 6.72479 20.5626 6.73328C21.9102 6.78599 23.1138 7.26731 24.2289 7.98654C26.646 9.54551 28.1222 11.7619 28.7844 14.5169C29.4523 17.295 29.1392 19.9956 27.9902 22.6C27.039 24.756 25.5749 26.5303 23.7136 27.9723C22.5107 28.9041 21.1766 29.6177 19.7404 30.1549C18.3973 30.6571 17.0185 30.9596 15.5945 31.0868C15.4898 31.0963 15.3861 31.1164 15.2821 31.1571C15.4911 31.1571 15.7022 31.1762 15.9088 31.1541C17.4913 30.9849 19.0469 30.6856 20.5181 30.0663C22.3209 29.3075 23.9527 28.2906 25.3566 26.9135C26.4181 25.8723 27.3275 24.7293 28.0264 23.4244C29.4766 20.717 30.0051 17.8453 29.5023 14.8138C28.97 11.6037 27.4293 8.96352 24.7872 7.01271C22.7105 5.47934 20.3615 4.72814 17.7539 4.87706C16.1035 4.97132 14.5644 5.46495 13.1938 6.36502C11.4066 7.53859 10.1978 9.15463 9.70096 11.2536C9.64922 11.4722 9.59104 11.6962 9.48782 11.893C9.43019 12.0029 9.27456 12.1244 9.16145 12.126C9.04945 12.1276 8.86199 12.0038 8.83555 11.9023C8.74333 11.5485 8.65921 11.1809 8.65777 10.8182C8.65378 9.82854 8.98397 8.9148 9.43668 8.05046C10.5986 5.83202 12.434 4.3862 14.783 3.54681C18.1565 2.34135 21.3965 2.77545 24.5163 4.382C26.2643 5.28216 27.7074 6.55507 28.9027 8.1128C30.4177 10.0871 31.347 12.2996 31.7181 14.7453C31.8232 15.4375 31.8849 16.1361 31.9726 16.8841C32.0527 15.9681 31.9454 15.1133 31.8037 14.2657C31.3976 11.8363 30.4538 9.62521 28.9425 7.67062C27.6861 6.04558 26.1453 4.74431 24.3011 3.79386C22.2274 2.7251 20.0259 2.18518 17.7007 2.27998C15.0121 2.38956 12.5303 3.20877 10.4763 4.95999C7.39513 7.58701 6.01709 10.9031 6.85376 14.9338C7.34853 17.317 8.72211 19.1277 10.9049 20.2807C11.4012 20.5429 11.964 20.6822 12.4975 20.8748C12.6881 20.9436 12.8988 20.9754 13.069 21.076C13.1832 21.1435 13.3097 21.3034 13.3076 21.4198C13.3056 21.5379 13.1721 21.7278 13.0618 21.7565C12.7049 21.8492 12.329 21.9461 11.9664 21.9274C10.409 21.8472 9.06588 21.238 7.87975 20.2426C6.10031 18.7492 5.10131 16.8292 4.67215 14.5891C4.16745 11.9545 4.65874 9.46343 5.8896 7.1197C6.97696 5.04912 8.56347 3.41533 10.5705 2.17179C13.0743 0.620438 15.8026 -0.0731657 18.7347 -0.0117969C19.8411 0.0113713 20.9364 0.171401 22.0135 0.434294L22.0099 0.435648Z" fill="url(#paint0_linear_4893_1184)"/>
<path d="M13.4737 1.03819L13.6323 8.36495C13.655 9.40911 14.496 10.2501 15.5402 10.2728L22.8669 10.4315L15.5402 10.5902C14.496 10.6128 13.655 11.4539 13.6323 12.498L13.4737 19.8248L13.3149 12.498C13.2923 11.4539 12.4513 10.6128 11.4071 10.5902L4.08033 10.4315L11.4071 10.2728C12.4513 10.2501 13.2923 9.40911 13.3149 8.36495L13.4737 1.03819Z" fill="#2B2B2B"/>
</g>
<defs>
<linearGradient id="paint0_linear_4893_1184" x1="11.7303" y1="59.5399" x2="50.807" y2="47.5594" gradientUnits="userSpaceOnUse">
<stop stop-color="#F26F56"/>
<stop offset="1" stop-color="#F49756"/>
</linearGradient>
<clipPath id="clip0_4893_1184">
<rect width="32" height="32" fill="white" transform="translate(0 0.00292969)"/>
</clipPath>
</defs>
</svg>
