<svg width="32" height="32" viewBox="0 0 32 32" fill="none" xmlns="http://www.w3.org/2000/svg">
<g clip-path="url(#clip0_4279_606)">
<rect width="32" height="32" rx="16" fill="black"/>
<path d="M32 16C32 7.16344 24.8366 0 16 0C7.16344 0 0 7.16344 0 16C0 24.8366 7.16344 32 16 32C24.8366 32 32 24.8366 32 16Z" fill="black"/>
<path d="M27.9381 11.7621H25.7917C25.6523 11.7621 25.5393 11.6501 25.5393 11.5119V9.5569C25.5393 9.41871 25.4264 9.3067 25.287 9.3067H23.0232C22.8838 9.3067 22.7708 9.1947 22.7708 9.05651V6.81203C22.7708 6.67384 22.6579 6.56183 22.5185 6.56183H20.4718C20.3325 6.56183 20.2195 6.44982 20.2195 6.31164V4.05988C20.2195 3.92169 20.1065 3.80968 19.9672 3.80968H12.005C11.8656 3.80968 11.7527 3.92169 11.7527 4.05988V6.30145C11.7527 6.43964 11.6397 6.55164 11.5003 6.55164H9.25115C9.11177 6.55164 8.9988 6.66365 8.9988 6.80184V9.04633C8.9988 9.18452 8.88583 9.29652 8.74645 9.29652H6.48266C6.34327 9.29652 6.23031 9.40853 6.23031 9.54672V11.5046C6.23031 11.6428 6.11734 11.7548 5.97796 11.7548H4.06187C3.92249 11.7548 3.80952 11.8668 3.80952 12.0051V19.9938C3.80952 20.132 3.92249 20.244 4.06187 20.244H5.97796C6.11734 20.244 6.23031 20.356 6.23031 20.4942V22.6834C6.23031 22.8216 6.34327 22.9336 6.48266 22.9336H8.74645C8.88583 22.9336 8.9988 23.0456 8.9988 23.1838V25.4283C8.9988 25.5665 9.11177 25.6785 9.25115 25.6785H11.493C11.6323 25.6785 11.7453 25.7905 11.7453 25.9287V28.0714C11.7453 28.1368 11.7981 28.1892 11.8641 28.1892H19.9657C20.1051 28.1892 20.218 28.0772 20.218 27.939V25.9447C20.218 25.8065 20.331 25.6945 20.4704 25.6945H22.4906C22.63 25.6945 22.743 25.5825 22.743 25.4443V23.1998C22.743 23.0616 22.8559 22.9496 22.9953 22.9496H25.2591C25.3985 22.9496 25.5114 22.8376 25.5114 22.6994V20.4971C25.5114 20.3589 25.6245 20.2469 25.7638 20.2469H27.9381C28.0775 20.2469 28.1905 20.1349 28.1905 19.9968V12.0109C28.1905 11.8726 28.0775 11.7607 27.9381 11.7607V11.7621ZM21.9302 22.3678H19.6664C19.527 22.3678 19.414 22.4798 19.414 22.618V24.6137C19.414 24.7519 19.3011 24.8639 19.1617 24.8639H12.608C12.4686 24.8639 12.3556 24.7519 12.3556 24.6137V22.6267C12.3556 22.4885 12.2426 22.3765 12.1033 22.3765H9.83948C9.70009 22.3765 9.58713 22.2645 9.58713 22.1263V19.8818C9.58713 19.7436 9.47416 19.6316 9.33478 19.6316H7.38201C7.24264 19.6316 7.12966 19.5196 7.12966 19.3814V12.8735C7.12966 12.7352 7.24264 12.6233 7.38201 12.6233H9.3069C9.44628 12.6233 9.55925 12.5112 9.55925 12.373V10.1285C9.55925 9.99038 9.67222 9.87837 9.8116 9.87837H12.0754C12.2148 9.87837 12.3277 9.76637 12.3277 9.62818V7.38369C12.3277 7.2455 12.4407 7.1335 12.5801 7.1335H19.1617C19.3011 7.1335 19.414 7.2455 19.414 7.38369V9.61072C19.414 9.74891 19.527 9.86091 19.6664 9.86091H21.9302C22.0695 9.86091 22.1825 9.97292 22.1825 10.1111V12.3556C22.1825 12.4938 22.2955 12.6058 22.4349 12.6058H24.618C24.7574 12.6058 24.8704 12.7178 24.8704 12.856V19.3712C24.8704 19.5095 24.7574 19.6214 24.618 19.6214H22.4349C22.2955 19.6214 22.1825 19.7334 22.1825 19.8717V22.1161C22.1825 22.2543 22.0695 22.3663 21.9302 22.3663V22.3678Z" fill="#FAD8D1"/>
</g>
<defs>
<clipPath id="clip0_4279_606">
<rect width="32" height="32" rx="16" fill="white"/>
</clipPath>
</defs>
</svg>
