<svg width="32" height="32" viewBox="0 0 32 32" fill="none" xmlns="http://www.w3.org/2000/svg">
<g clip-path="url(#clip0_2499_755)">
<circle cx="16" cy="16" r="16" fill="white"/>
<path fill-rule="evenodd" clip-rule="evenodd" d="M5.48021 4.95901C11.5742 -0.849898 21.2249 -0.621817 27.0338 5.47219C27.4115 5.87133 27.775 6.28473 28.1029 6.71951L16.0004 18.8291L3.89791 6.71951C4.2329 6.28473 4.58928 5.87133 4.96703 5.47219C5.13097 5.30113 5.30203 5.13007 5.48021 4.95901ZM25.3802 6.62685C22.8856 4.11797 19.5641 2.74236 16.0004 2.74236C12.4367 2.74236 9.11524 4.11797 6.62061 6.62685L16.0004 16.0066L25.3802 6.62685ZM29.051 8.09513L26.592 10.5541C28.5734 12.9276 28.2598 16.4628 25.8864 18.4443C23.8051 20.1834 20.7831 20.1834 18.7018 18.4443L16.0005 21.1456L13.3063 18.4514C10.9329 20.4328 7.39764 20.1192 5.41619 17.7458C3.67708 15.6645 3.67708 12.6425 5.41619 10.5612L4.15462 9.29968L2.95721 8.09513C1.51032 10.4757 0.747681 13.2127 0.747681 15.9995C0.747681 24.4242 7.57582 31.2524 16.0005 31.2524C24.4252 31.2524 31.2534 24.4242 31.2534 15.9995C31.2605 13.2127 30.4907 10.4757 29.051 8.09513ZM25.4232 11.723C25.9578 12.4144 26.25 13.2697 26.25 14.1464C26.25 15.0231 25.9578 15.8784 25.4232 16.5697C24.0833 18.3017 21.5958 18.6225 19.8638 17.2825L25.4232 11.723ZM12.1374 17.2896C11.446 17.8242 10.5907 18.1164 9.71403 18.1164C8.83735 18.1164 7.98918 17.8242 7.29068 17.2967C5.5587 15.9568 5.23796 13.4621 6.57793 11.7302L12.1374 17.2896Z" fill="#3E6957"/>
</g>
<defs>
<clipPath id="clip0_2499_755">
<rect width="32" height="32" fill="white"/>
</clipPath>
</defs>
</svg>
