<svg width="32" height="32" viewBox="0 0 32 32" fill="none" xmlns="http://www.w3.org/2000/svg">
<g clip-path="url(#clip0_4025_475)">
<g clip-path="url(#clip1_4025_475)">
<rect width="32" height="32" fill="#CFE9D1"/>
<mask id="mask0_4025_475" style="mask-type:luminance" maskUnits="userSpaceOnUse" x="0" y="0" width="32" height="47">
<path d="M0 0H32V46.937H0V0Z" fill="white"/>
</mask>
<g mask="url(#mask0_4025_475)">
<path d="M20.2971 23.5262C19.7001 24.0032 19.034 24.3777 18.3238 24.6355L18.2678 24.6563C18.1433 24.6992 18.0089 24.6995 17.8842 24.657C17.7595 24.6145 17.6511 24.5316 17.5748 24.4203L17.2408 23.9335C17.0501 23.6528 16.7968 23.5054 16.4716 23.4796C16.3172 23.4678 16.1624 23.4623 16.0076 23.4631C15.8526 23.4631 15.7071 23.4749 15.5613 23.4936C15.2676 23.5309 15.0298 23.6807 14.8593 23.9405L14.4693 24.5327C14.3932 24.6464 14.2842 24.7317 14.1582 24.7758C14.0322 24.82 13.896 24.8207 13.7695 24.7779C13.126 24.5583 12.4803 24.1933 11.738 23.6316C11.6013 23.5286 11.4085 23.5474 11.3098 23.676C11.2697 23.729 11.2471 23.7942 11.2455 23.8617C11.2439 23.9293 11.2633 23.9955 11.3008 24.0506C11.7358 24.6939 12.1753 25.3375 12.6035 25.9597L13.3705 27.078C13.7875 27.6911 14.3393 28.0164 15.0568 28.0748C15.3728 28.1006 15.6756 28.1124 15.9718 28.1124C16.3753 28.1124 16.7631 28.0889 17.1443 28.0399C17.7856 27.9579 18.3013 27.6303 18.6781 27.0642C18.9471 26.6593 19.2183 26.2451 19.4806 25.8451L19.6018 25.6625C19.8956 25.218 20.1939 24.7617 20.4919 24.3149C20.5751 24.191 20.6559 24.067 20.7386 23.9452C20.7769 23.8891 20.7949 23.8234 20.7949 23.7579C20.7949 23.6645 20.7499 23.5779 20.6781 23.5192C20.5729 23.4329 20.4136 23.4376 20.2991 23.5286L20.2971 23.5262ZM9.83675 22.1084C9.21835 21.6633 8.67183 21.1183 8.21773 20.4939L8.18198 20.4425C8.10442 20.3322 8.0626 20.199 8.0626 20.0623C8.0626 19.9255 8.10442 19.7923 8.18198 19.682L8.09673 19.6166L8.20198 19.6515L8.52274 19.2002C8.71774 18.9237 8.77599 18.6268 8.69974 18.2945C8.62914 17.9857 8.53001 17.6848 8.40373 17.396C8.27823 17.1153 8.06973 16.928 7.77823 16.8367L7.11672 16.6332C6.98906 16.5933 6.87723 16.5114 6.79799 16.3996C6.71875 16.2878 6.67638 16.1522 6.67722 16.0131C6.67722 15.3088 6.81172 14.5556 7.09647 13.6431C7.14822 13.4746 7.07197 13.2896 6.92397 13.2335C6.86353 13.21 6.7974 13.2075 6.7355 13.2265C6.6736 13.2455 6.61929 13.285 6.58072 13.3389C6.12121 13.9799 5.66371 14.6282 5.22195 15.2527L5.20395 15.2762C4.95721 15.6273 4.70921 15.9775 4.45995 16.3267C4.03144 16.9304 3.90344 17.5789 4.07169 18.3062C4.24894 19.0666 4.4687 19.7405 4.7467 20.3676C5.01795 20.9807 5.47771 21.3902 6.10996 21.589C6.56297 21.7294 7.02247 21.8721 7.46873 22.0101L7.63248 22.0617C8.14148 22.2182 8.66399 22.38 9.17499 22.5412L9.20649 22.4361L9.19974 22.5482C9.32974 22.5905 9.46225 22.6302 9.59 22.6722C9.65148 22.6915 9.71717 22.6908 9.77825 22.6701C9.82028 22.6543 9.85851 22.6292 9.89029 22.5964C9.92206 22.5637 9.94662 22.5241 9.96225 22.4804C10.0073 22.3495 9.9555 22.1927 9.83675 22.1084ZM11.747 8.41366C11.9645 8.20314 12.07 7.93627 12.0633 7.62061L12.0453 6.90217C12.0427 6.76323 12.0829 6.6271 12.1601 6.51382C12.2372 6.40055 12.3472 6.31611 12.4738 6.27294C13.115 6.05746 13.8393 5.95703 14.7518 5.95703H14.763C14.9336 5.95703 15.0771 5.82372 15.0836 5.65755C15.0862 5.58996 15.0677 5.52332 15.0309 5.46762C14.9941 5.41193 14.941 5.37019 14.8796 5.34867C14.1971 5.1071 13.514 4.86762 12.8303 4.63023L12.6868 4.58119L11.4983 4.16692C10.8143 3.92849 10.1843 4.00336 9.57425 4.39388C8.93524 4.80345 8.39048 5.23154 7.90598 5.70189C7.43298 6.16051 7.19972 6.74304 7.21547 7.4333C7.22672 7.92713 7.24022 8.42775 7.25122 8.91219L7.25572 9.10393C7.26922 9.65385 7.28497 10.2152 7.29622 10.7722C7.29847 10.9243 7.30297 11.074 7.30297 11.2238C7.30283 11.3045 7.33304 11.3821 7.38713 11.4399C7.44122 11.4976 7.51486 11.5309 7.59223 11.5326H7.60123C7.73123 11.5326 7.85223 11.432 7.89273 11.2916C8.11027 10.5326 8.44254 9.81468 8.87699 9.16497L8.89699 9.13445C8.97355 9.02351 9.08207 8.94097 9.20672 8.89888C9.33138 8.85679 9.46566 8.85734 9.59 8.90045L9.62375 8.7974V8.91219L10.135 9.08984C10.4465 9.19993 10.7338 9.16471 11.014 8.98471C11.146 8.90098 11.2739 8.81043 11.3973 8.7134C11.523 8.61505 11.635 8.51905 11.7405 8.41366H11.747ZM23.1446 9.01497C23.5416 9.58602 23.8576 10.2763 24.1404 11.1886C24.1851 11.3315 24.3084 11.4249 24.4384 11.4249C24.4634 11.4249 24.4879 11.4226 24.5124 11.4158C24.6404 11.3782 24.7299 11.2566 24.7299 11.1184C24.7411 10.3488 24.7456 9.57402 24.7524 8.82323L24.7636 7.39809C24.7704 6.64703 24.5079 6.04338 23.9609 5.55894C23.3914 5.05128 22.8331 4.64197 22.2544 4.30727C21.6894 3.97753 21.0864 3.92822 20.4629 4.15753C20.0166 4.32136 19.5638 4.48753 19.1266 4.65136L18.9628 4.71215C18.4628 4.8971 17.9516 5.0865 17.4448 5.27146C17.3081 5.3205 17.1711 5.36954 17.0366 5.41885C16.9752 5.44011 16.9219 5.48101 16.8841 5.53572C16.8326 5.61294 16.8191 5.70894 16.8438 5.80259C16.8821 5.93564 17.0053 6.02694 17.1488 6.02694H17.1578C17.9145 6.00784 18.6692 6.11528 19.3933 6.34521L19.4358 6.35929C19.6893 6.44121 19.8641 6.69634 19.8619 6.97495L19.8574 7.57365C19.8551 7.91774 19.9741 8.1914 20.2251 8.41366C20.3374 8.51436 20.4516 8.60566 20.5906 8.71106C20.7164 8.8021 20.8419 8.88636 20.9696 8.95888C21.2296 9.10862 21.5056 9.1321 21.7904 9.02906L22.4404 8.78801C22.6939 8.69436 22.9854 8.78801 23.1446 9.01967V9.01497ZM27.5419 16.287C27.2549 15.8965 26.9634 15.4987 26.6787 15.1126L26.4454 14.7967C26.1608 14.4108 25.8775 14.0239 25.5954 13.6361L25.5729 13.6058C25.4924 13.4957 25.4139 13.3859 25.3354 13.2758C25.2978 13.2209 25.2431 13.1812 25.1807 13.1636C25.1378 13.1502 25.0925 13.147 25.0483 13.1543C25.0041 13.1615 24.962 13.1791 24.9251 13.2056C24.8151 13.2828 24.7704 13.442 24.8176 13.5847C25.0679 14.3242 25.2033 15.1007 25.2189 15.8848V15.9479C25.2234 16.2239 25.0464 16.4767 24.7906 16.5633L24.2434 16.7433C23.9296 16.8464 23.7164 17.0498 23.5909 17.3658C23.5314 17.5154 23.4783 17.6677 23.4316 17.8223C23.3885 17.9709 23.3518 18.1215 23.3216 18.2736C23.2659 18.5778 23.3286 18.8585 23.5124 19.1089L23.9316 19.6799C24.0976 19.9043 24.0999 20.2202 23.9386 20.4495C23.5416 21.0206 23.0101 21.547 22.2656 22.1108C22.1289 22.2161 22.0886 22.4126 22.1761 22.5485C22.2116 22.6045 22.2637 22.6469 22.3244 22.6692C22.385 22.6916 22.451 22.6927 22.5124 22.6724C23.2456 22.4361 23.9811 22.1927 24.6919 21.9587L24.7189 21.9495C25.1157 21.8183 25.5149 21.6874 25.9139 21.5564C26.6002 21.3318 27.0689 20.8849 27.3424 20.192C27.6272 19.4694 27.8289 18.7906 27.9567 18.1121C28.0799 17.45 27.9409 16.837 27.5397 16.2894L27.5419 16.287Z" fill="#B24A18"/>
</g>
</g>
</g>
<defs>
<clipPath id="clip0_4025_475">
<rect width="32" height="32" rx="16" fill="white"/>
</clipPath>
<clipPath id="clip1_4025_475">
<rect width="32" height="32" fill="white"/>
</clipPath>
</defs>
</svg>
