<svg width="32" height="32" viewBox="0 0 32 32" fill="none" xmlns="http://www.w3.org/2000/svg">
<g clip-path="url(#clip0_3799_326)">
<g clip-path="url(#clip1_3799_326)">
<path fill-rule="evenodd" clip-rule="evenodd" d="M32 16C32 7.16346 24.8365 -3.86259e-07 16 0C7.16346 3.86259e-07 -3.86259e-07 7.16346 0 16C3.86259e-07 24.8365 7.16346 32 16 32C24.8365 32 32 24.8365 32 16ZM18.2836 27.9747C18.2836 29.0601 17.3928 29.9424 16.1283 29.9677C16.0932 29.968 16.0581 29.9682 16.023 29.9683H15.977C8.27309 29.9558 2.03174 23.7068 2.03174 16C2.03174 8.28557 8.28554 2.03177 16 2.03177C16.0416 2.03177 16.0832 2.03195 16.1247 2.03232C17.5516 2.05773 18.2836 2.93998 18.2836 4.02534C18.2836 5.13002 17.3072 5.94285 16.2726 5.94285C15.2381 5.94288 15.1873 5.94288 14.197 6.02221C13.2068 6.10157 12.1828 6.91443 12.1828 8.01581C12.1828 9.12374 13.0828 10.0159 14.197 10.0159H22.9795C24.0905 10.0159 24.9905 10.9082 24.9905 12.0095C24.9905 13.1109 24.0905 14.0031 22.9795 14.0031H9.45219C8.33792 14.0031 7.43792 14.8986 7.43792 16.0033C7.43792 17.1047 8.33792 17.9969 9.45219 17.9969H16.2726C17.3836 17.9969 18.2836 18.8891 18.2836 19.9937C18.2836 21.0951 17.3836 21.9873 16.2726 21.9873H14.197C13.0828 21.9873 12.1828 22.8796 12.1828 23.9809C12.1828 25.0856 13.1052 25.8919 14.197 25.9745C14.2831 25.9811 14.3618 25.987 14.4343 25.9926C14.8186 26.0219 15.0285 26.0379 15.2388 26.0466C15.492 26.0572 15.7456 26.0571 16.3048 26.0571C17.4157 26.0571 18.2836 26.8733 18.2836 27.9747Z" fill="url(#paint0_radial_3799_326)"/>
<path fill-rule="evenodd" clip-rule="evenodd" d="M32 16C32 7.16346 24.8365 -3.86259e-07 16 0C7.16346 3.86259e-07 -3.86259e-07 7.16346 0 16C3.86259e-07 24.8365 7.16346 32 16 32C24.8365 32 32 24.8365 32 16ZM18.2836 27.9747C18.2836 29.0601 17.3928 29.9424 16.1283 29.9677C16.0932 29.968 16.0581 29.9682 16.023 29.9683H15.977C8.27309 29.9558 2.03174 23.7068 2.03174 16C2.03174 8.28557 8.28554 2.03177 16 2.03177C16.0416 2.03177 16.0832 2.03195 16.1247 2.03232C17.5516 2.05773 18.2836 2.93998 18.2836 4.02534C18.2836 5.13002 17.3072 5.94285 16.2726 5.94285C15.2381 5.94288 15.1873 5.94288 14.197 6.02221C13.2068 6.10157 12.1828 6.91443 12.1828 8.01581C12.1828 9.12374 13.0828 10.0159 14.197 10.0159H22.9795C24.0905 10.0159 24.9905 10.9082 24.9905 12.0095C24.9905 13.1109 24.0905 14.0031 22.9795 14.0031H9.45219C8.33792 14.0031 7.43792 14.8986 7.43792 16.0033C7.43792 17.1047 8.33792 17.9969 9.45219 17.9969H16.2726C17.3836 17.9969 18.2836 18.8891 18.2836 19.9937C18.2836 21.0951 17.3836 21.9873 16.2726 21.9873H14.197C13.0828 21.9873 12.1828 22.8796 12.1828 23.9809C12.1828 25.0856 13.1052 25.8919 14.197 25.9745C14.2831 25.9811 14.3618 25.987 14.4343 25.9926C14.8186 26.0219 15.0285 26.0379 15.2388 26.0466C15.492 26.0572 15.7456 26.0571 16.3048 26.0571C17.4157 26.0571 18.2836 26.8733 18.2836 27.9747Z" fill="url(#paint1_radial_3799_326)"/>
</g>
</g>
<defs>
<radialGradient id="paint0_radial_3799_326" cx="0" cy="0" r="1" gradientUnits="userSpaceOnUse" gradientTransform="translate(16 -0.10108) rotate(90) scale(32.2022)">
<stop stop-color="#2E2E2E"/>
<stop offset="1" stop-color="#080808"/>
</radialGradient>
<radialGradient id="paint1_radial_3799_326" cx="0" cy="0" r="1" gradientUnits="userSpaceOnUse" gradientTransform="translate(31.2707 -3.17243) rotate(129.211) scale(56.0058 176.039)">
<stop stop-color="#8049F2"/>
<stop offset="1" stop-color="#6D4EAE" stop-opacity="0"/>
</radialGradient>
<clipPath id="clip0_3799_326">
<rect width="32" height="32" rx="16" fill="white"/>
</clipPath>
<clipPath id="clip1_3799_326">
<rect width="32" height="32" fill="white"/>
</clipPath>
</defs>
</svg>
