<svg width="32" height="32" viewBox="0 0 32 32" fill="none" xmlns="http://www.w3.org/2000/svg">
<circle cx="16" cy="16" r="16" fill="#F4F4F4"/>
<path fill-rule="evenodd" clip-rule="evenodd" d="M20.2029 13.4401C21.0485 12.7345 21.992 12.4661 22.8969 12.5339C23.8621 12.6063 24.7552 13.0587 25.4224 13.7159C26.0893 14.3731 26.5476 15.2521 26.621 16.2008C26.695 17.1581 26.3745 18.1607 25.5294 19.0407C25.4521 19.1217 25.3732 19.2017 25.2925 19.2807C21.4594 23.0565 16.3678 23.0665 16.3157 23.0665H16.3154C16.2894 23.0665 11.1816 23.0663 7.33864 19.2803L7.33782 19.2793C7.25848 19.2007 7.18035 19.1216 7.10339 19.042L7.10277 19.0412C6.2573 18.1621 5.93646 17.1597 6.01024 16.2023C6.08336 15.2538 6.54132 14.3747 7.20819 13.7173C7.875 13.0599 8.7681 12.6071 9.73346 12.5344C10.6382 12.4663 11.5819 12.7344 12.428 13.4396C12.519 12.3519 12.993 11.5054 13.681 10.9234C14.4148 10.3027 15.3711 10 16.3154 10C17.2598 10 18.2161 10.3027 18.9498 10.9234C19.6379 11.5055 20.112 12.3522 20.2029 13.4401ZM16.4909 22.6837L16.4907 22.6789H16.4911L16.4909 22.6837ZM16.14 22.6837L16.1399 22.6789H16.1402L16.14 22.6837ZM19.1952 17.4407C19.0903 17.4407 19.054 17.5899 19.1209 17.6689C19.2392 17.8089 19.3105 17.989 19.3105 18.1855C19.3105 18.6314 18.9437 18.9928 18.4912 18.9928C18.0386 18.9928 17.6717 18.6314 17.6717 18.1855C17.6717 18.1616 17.6401 18.1498 17.6258 18.1691C17.4965 18.344 17.4093 18.5403 17.3734 18.7465C17.3533 18.8625 17.2575 18.9588 17.1371 18.9588H17.0707C16.9136 18.9588 16.784 18.8333 16.8072 18.6813C16.9661 17.6396 18.0082 16.8841 19.1952 16.8841C20.3822 16.8841 21.4242 17.6396 21.5831 18.6813C21.6062 18.8333 21.4767 18.9588 21.3197 18.9588C21.1625 18.9588 21.0382 18.8326 21.004 18.6826C20.8487 17.9998 20.1285 17.4407 19.1952 17.4407ZM11.9183 18.1855C11.9183 18.154 11.8769 18.1371 11.8574 18.1622C11.7193 18.3398 11.6251 18.5409 11.5853 18.7529C11.5618 18.8781 11.4584 18.9822 11.3282 18.9822H11.2795C11.1224 18.9822 10.9928 18.8568 11.016 18.7048C11.1748 17.6625 12.217 16.9076 13.4039 16.9076C14.5909 16.9076 15.6331 17.6625 15.7919 18.7048C15.8151 18.8568 15.6855 18.9822 15.5284 18.9822C15.3714 18.9822 15.247 18.8562 15.2129 18.7061C15.0576 18.0229 14.3374 17.4642 13.4039 17.4642C13.3191 17.4642 13.288 17.5815 13.3448 17.6432C13.4768 17.7865 13.5572 17.9768 13.5572 18.1855C13.5572 18.6314 13.1904 18.9928 12.7378 18.9928C12.2852 18.9928 11.9183 18.6314 11.9183 18.1855ZM17.2271 20.1325C17.3381 20.0237 17.5096 19.9709 17.6475 20.0445C17.7853 20.1183 17.8376 20.2893 17.7383 20.4084C17.4147 20.796 16.8909 21.0417 16.3133 21.0417C15.7359 21.0417 15.2109 20.7987 14.887 20.408C14.788 20.2887 14.841 20.1177 14.9791 20.0445C15.1172 19.9713 15.2884 20.0249 15.3993 20.1336C15.6128 20.3435 15.9368 20.4853 16.3133 20.4853C16.6887 20.4853 17.0131 20.3419 17.2271 20.1325Z" fill="black"/>
</svg>
