<svg width="32" height="32" viewBox="0 0 32 32" fill="none" xmlns="http://www.w3.org/2000/svg">
<circle cx="16" cy="16" r="16" fill="black"/>
<path d="M11.8314 15.6167H5L12.1871 12.2434L15.5139 5L15.5217 11.8813C15.5244 13.9433 13.8714 15.6193 11.8288 15.6193L11.8314 15.6167Z" fill="white"/>
<path d="M19.9442 15.6167H26.7756L19.5885 12.2434L16.2617 5L16.2539 11.8813C16.2513 13.9433 17.9042 15.6193 19.9468 15.6193L19.9442 15.6167Z" fill="white"/>
<path d="M19.9442 16.3833H26.7756L19.5885 19.7565L16.2617 26.9999L16.2539 20.1187C16.2513 18.0567 17.9042 16.3806 19.9468 16.3806L19.9442 16.3833Z" fill="white"/>
<path d="M11.8314 16.3833H5L12.1871 19.7565L15.5139 26.9999L15.5217 20.1187C15.5244 18.0567 13.8714 16.3806 11.8288 16.3806L11.8314 16.3833Z" fill="white"/>
</svg>
