<svg width="32" height="32" viewBox="0 0 32 32" fill="none" xmlns="http://www.w3.org/2000/svg">
<circle cx="16" cy="16" r="16" fill="black"/>
<path d="M8.93944 12.4155L5.30026 10.5626C5.0156 11.1219 4.77317 11.7083 4.58026 12.3055L8.46612 13.562C8.59311 13.1692 8.75199 12.7834 8.93944 12.4155Z" fill="white"/>
<path d="M12.0308 9.15002L14.0465 12.623C14.3409 12.4523 14.6559 12.321 14.9837 12.2329L13.9405 8.35499C14.2059 8.28359 14.4758 8.22466 14.7471 8.18182L14.106 4.14832C13.486 4.24674 12.8699 4.3953 12.2744 4.58943L13.5209 8.40967C13.1244 8.53909 12.7383 8.69979 12.3665 8.88998L10.5343 5.31368C9.97713 5.59924 9.4382 5.93099 8.93176 6.30072L11.3393 9.59936C11.5611 9.43772 11.7932 9.28825 12.0308 9.15002Z" fill="white"/>
<path d="M22.8474 12.0274L19.3755 14.0449C19.5466 14.339 19.6778 14.6543 19.7663 14.9816L23.6439 13.9365C23.7153 14.202 23.7742 14.4715 23.8174 14.7424L27.8502 14.1002C27.7516 13.4805 27.6027 12.8641 27.408 12.2684L23.5883 13.5172C23.4586 13.1208 23.2979 12.735 23.1074 12.3631L26.6825 10.5285C26.3969 9.97196 26.0645 9.43302 25.6949 8.92688L22.3971 11.336C22.559 11.5578 22.7092 11.7895 22.8474 12.0274Z" fill="white"/>
<path d="M21.4316 5.29721C20.8717 5.01286 20.2854 4.77073 19.6888 4.57812L18.4344 8.4646C18.8269 8.59128 19.2127 8.75047 19.5812 8.93761L21.4316 5.29721Z" fill="white"/>
<path d="M19.9815 9.07891L17.9427 12.6172C18.238 12.7874 18.5102 12.9958 18.7524 13.2369L24.4704 7.49947C24.0269 7.05744 23.545 6.64702 23.0383 6.27942L20.6799 9.53187C20.4551 9.36904 20.2221 9.21775 19.9815 9.07891Z" fill="white"/>
<path d="M9.08123 12.0148L12.6186 14.0557C12.7887 13.7608 12.9978 13.4883 13.2393 13.2458L7.50423 7.52563C7.0619 7.96918 6.65117 8.45069 6.28357 8.95712L9.5348 11.317C9.37197 11.5415 9.22007 11.7742 9.08123 12.0148Z" fill="white"/>
<path d="M17.2379 8.11311L17.8549 4.14279C17.2452 4.048 16.6212 4 15.9999 4H15.9905V12.1004H15.9999C16.3414 12.1004 16.6792 12.1442 17.0043 12.2305L18.0518 8.28323C17.7838 8.21214 17.5122 8.15594 17.2379 8.11311Z" fill="white"/>
<path d="M12.2308 14.9932L8.28414 13.943C8.21275 14.211 8.15625 14.4825 8.11341 14.7569L4.1437 14.138C4.0483 14.7499 4 15.3763 4 15.9994H12.1004C12.1004 15.6573 12.1442 15.3186 12.2308 14.9932Z" fill="white"/>
<path d="M23.0605 19.5847L26.6997 21.4375C26.9843 20.8782 27.2267 20.2919 27.4197 19.6947L23.5338 18.4381C23.4068 18.8309 23.248 19.2168 23.0605 19.5847Z" fill="white"/>
<path d="M19.9691 22.8493L17.9534 19.3763C17.659 19.5471 17.344 19.6783 17.0162 19.7664L18.0594 23.6443C17.7936 23.7158 17.5241 23.7747 17.2529 23.8176L17.8935 27.8507C18.5136 27.7523 19.1297 27.6037 19.7252 27.4096L18.4787 23.5893C18.8754 23.46 19.2613 23.2992 19.6331 23.1091L21.4653 26.6854C22.0224 26.3998 22.5614 26.068 23.0678 25.6983L20.6602 22.3997C20.4384 22.5613 20.2067 22.7111 19.9691 22.8493Z" fill="white"/>
<path d="M9.15276 19.9729L12.6249 17.9554C12.4538 17.6613 12.3225 17.346 12.2342 17.0188L8.35651 18.0638C8.28512 17.7983 8.22619 17.5288 8.18305 17.2578L4.14984 17.9001C4.24858 18.5199 4.39744 19.1363 4.59217 19.732L8.41181 18.4831C8.54152 18.8795 8.70223 19.2654 8.89272 19.6372L5.31764 21.4718C5.6032 22.0284 5.93556 22.5673 6.30528 23.0734L9.60299 20.6643C9.44107 20.4426 9.29099 20.2107 9.15276 19.9729Z" fill="white"/>
<path d="M10.5684 26.7026C11.1282 26.9869 11.7146 27.229 12.3113 27.4217L13.5656 23.5352C13.1731 23.4085 12.7873 23.2493 12.4188 23.0621L10.5684 26.7026Z" fill="white"/>
<path d="M12.0184 22.9214L14.0572 19.3831C13.7619 19.213 13.4897 19.0046 13.2476 18.7634L7.52954 24.5009C7.97308 24.9429 8.45491 25.3533 8.96164 25.721L11.32 22.4685C11.5449 22.6313 11.7778 22.7826 12.0184 22.9214Z" fill="white"/>
<path d="M22.9186 19.9856L19.3811 17.9447C19.211 18.2397 19.002 18.5122 18.7605 18.7546L24.4953 24.4751C24.9376 24.0315 25.3483 23.55 25.7159 23.0436L22.4647 20.6837C22.6275 20.4592 22.7797 20.2262 22.9186 19.9856Z" fill="white"/>
<path d="M14.9956 19.7689L13.9481 23.7162C14.2161 23.7872 14.4877 23.8435 14.762 23.8863L14.1453 27.8566C14.755 27.9514 15.379 27.9994 16.0003 27.9994H16.0097V19.899H16.0003C15.6588 19.899 15.3207 19.8552 14.9956 19.7689Z" fill="white"/>
<path d="M19.8996 16.0002C19.8996 16.3423 19.8555 16.6807 19.7689 17.0064L23.7155 18.0566C23.787 17.7886 23.8435 17.5171 23.8863 17.2427L27.8563 17.8619C27.9517 17.25 28 16.6236 28 16.0005L19.8996 16.0002Z" fill="white"/>
</svg>
