<svg width="32" height="32" viewBox="0 0 32 32" fill="none" xmlns="http://www.w3.org/2000/svg">
<g clip-path="url(#clip0_4720_825)">
<circle cx="16" cy="15.9227" r="13.92" fill="#DED8D8" stroke="#312D2E" stroke-width="2.4"/>
<path d="M18.8108 6.96289C20.0744 6.96289 21.3381 6.96289 22.64 6.96289C22.64 11.4504 22.64 15.9379 22.64 20.5615C22.4921 20.5023 22.4076 20.4658 22.2861 20.3782C21.6015 19.9134 20.8345 19.5755 20.0736 19.2586C20.0602 16.3968 20.0467 13.535 20.0329 10.5865C19.5821 11.8477 19.5821 11.8477 19.1367 13.1107C19.0667 13.3052 18.9967 13.4995 18.9261 13.6937C18.7089 14.2917 18.4944 14.8906 18.2812 15.49C18.2607 15.5477 18.2607 15.5477 18.2397 15.6066C18.094 16.0165 17.9488 16.4265 17.8048 16.8371C17.7929 16.8711 17.7809 16.9051 17.7686 16.9402C17.7131 17.0985 17.6576 17.2569 17.6024 17.4153C17.5824 17.4723 17.5625 17.5293 17.5426 17.5863C17.5258 17.6343 17.509 17.6824 17.4918 17.7319C17.3911 18.0111 17.2856 18.2886 17.1813 18.5665C16.4151 18.5665 15.6488 18.5665 14.8594 18.5665C14.6757 18.1535 14.6757 18.1535 14.6143 17.9882C14.5998 17.9492 14.5854 17.9103 14.5704 17.8702C14.5549 17.8279 14.5393 17.7856 14.5233 17.742C14.5062 17.6957 14.4891 17.6494 14.4715 17.6017C14.2861 17.0981 14.1078 16.5918 13.9286 16.0859C13.7303 15.5259 13.5274 14.9679 13.3189 14.4115C13.1717 14.0186 13.0295 13.6243 12.8935 13.2273C12.7959 12.9436 12.6898 12.6638 12.5814 12.384C12.4507 12.0439 12.3317 11.6999 12.2138 11.3551C12.1994 11.3128 12.1849 11.2705 12.17 11.2269C12.1563 11.1868 12.1426 11.1468 12.1285 11.1055C12.0934 11.0053 12.0561 10.9063 12.0175 10.8074C11.9671 10.6679 11.9671 10.6679 11.9671 10.5457C11.9402 10.5457 11.9133 10.5457 11.8856 10.5457C11.8856 13.4344 11.8856 16.3231 11.8856 19.2993C11.6139 19.4351 11.3459 19.5676 11.0702 19.6934C10.5423 19.9364 10.0566 20.2302 9.57095 20.5486C9.48219 20.6022 9.48219 20.6022 9.35999 20.6429C9.35999 16.1419 9.35999 11.641 9.35999 7.0036C10.6236 7.0036 11.8873 7.0036 13.1892 7.0036C13.6099 8.17169 13.6099 8.17169 13.7426 8.55122C13.7581 8.59535 13.7736 8.63947 13.7895 8.68493C13.8389 8.82595 13.8883 8.96699 13.9377 9.10802C14 9.28571 14.0623 9.46339 14.1246 9.64106C14.1519 9.71895 14.1792 9.79684 14.2065 9.87473C14.4156 10.4711 14.6256 11.0671 14.8357 11.663C15.0085 12.1532 15.1805 12.6435 15.3511 13.1344C15.4424 13.3972 15.5345 13.6597 15.627 13.922C15.6519 13.9928 15.6769 14.0636 15.7018 14.1344C15.7394 14.2414 15.7771 14.3483 15.815 14.4552C15.8526 14.5616 15.89 14.668 15.9274 14.7745C15.9389 14.8067 15.9503 14.839 15.9621 14.8722C16.0407 15.0965 16.0407 15.0965 16.0407 15.1872C16.0676 15.1872 16.0945 15.1872 16.1222 15.1872C16.1254 15.1509 16.1286 15.1145 16.1319 15.0771C16.1667 14.8371 16.255 14.6115 16.3335 14.3831C16.3708 14.2732 16.4079 14.1632 16.4451 14.0532C16.455 14.0238 16.4649 13.9945 16.4752 13.9642C16.5909 13.6213 16.7024 13.277 16.814 12.9327C17.1254 11.9727 17.4405 11.014 17.768 10.0594C17.7798 10.025 17.7916 9.99064 17.8038 9.95521C17.8518 9.81537 17.8998 9.67552 17.9478 9.53569C18.1596 8.91879 18.3631 8.29942 18.5629 7.67853C18.5788 7.62915 18.5788 7.62915 18.595 7.57876C18.6147 7.5176 18.6343 7.45642 18.6539 7.39521C18.7012 7.24815 18.7533 7.10661 18.8108 6.96289Z" fill="#302C2D"/>
<circle cx="13.2171" cy="22.5928" r="1.48" fill="#312C2D"/>
<circle cx="18.815" cy="22.5889" r="1.48" fill="#312C2D"/>
</g>
<defs>
<clipPath id="clip0_4720_825">
<rect width="32" height="32" fill="white" transform="translate(0 0.00292969)"/>
</clipPath>
</defs>
</svg>
