<svg width="32" height="32" viewBox="0 0 32 32" fill="none" xmlns="http://www.w3.org/2000/svg">
<g clip-path="url(#clip0_2813_634)">
<g clip-path="url(#clip1_2813_634)">
<path d="M16.0001 31.7863C24.7186 31.7863 31.7864 24.7185 31.7864 16C31.7864 7.28141 24.7186 0.213623 16.0001 0.213623C7.28153 0.213623 0.213745 7.28141 0.213745 16C0.213745 24.7185 7.28153 31.7863 16.0001 31.7863Z" fill="#2B1D3C" stroke="white" stroke-width="0.427455" stroke-miterlimit="10"/>
</g>
<path d="M24.2857 21.0979C24.2886 20.6502 25.9984 20.669 25.9868 20.2498C25.9784 19.9274 25.2216 19.9346 25.4594 19.2511C25.8094 18.2316 26 17.138 26 16.0004C26 10.4772 21.5228 6 16 6C10.4772 6 6 10.4772 6 16C6 17.1416 6.19181 18.238 6.54459 19.2603C6.54659 19.2651 6.56621 19.3232 6.56621 19.3232C6.70837 19.7765 6.002 19.9543 6.002 20.225C6.002 20.649 7.48961 20.5918 7.48961 21.0855C7.48961 21.5152 6.01882 21.6477 6.01882 22.0814C6.01882 22.6804 9.27634 22.4718 9.31758 22.9871C9.34962 23.3848 8.19757 23.4084 8.19117 23.8337C8.17995 24.5116 12.6372 24.2898 12.6372 24.741C12.6372 25.0826 10.6098 24.9593 10.6098 25.3625C10.6098 25.7657 13.2787 26.0216 16.219 26.0216C19.1594 26.0216 21.1888 25.6945 21.1888 25.3409C21.1888 24.9873 19.296 25.0606 19.3344 24.741C19.4033 24.1844 23.6046 24.4691 23.6046 23.8253C23.6046 23.4857 22.449 23.4068 22.4866 23.0408C22.5395 22.5234 26 22.6007 26 22.0637C26 21.6417 24.2857 21.538 24.2878 21.0999L24.2857 21.0979ZM21.6049 19.7993C21.5136 20.1409 22.5667 20.1913 22.5667 20.5477C22.5667 20.9814 19.3544 20.8084 19.3865 21.3818C19.4061 21.743 21.6689 21.8039 21.6257 22.1811C21.5636 22.7273 18.1219 22.4546 18.0879 22.9775C18.0634 23.3612 19.7673 23.3744 19.7713 23.7243C19.7741 24.0187 18.4322 24.1796 15.8631 24.1796C12.9355 24.1796 11.5128 24.0215 11.6745 23.6927C11.8259 23.3852 14.4175 23.4424 14.3915 22.9591C14.365 22.4758 9.78929 22.6187 9.65114 22.1502C9.53622 21.761 11.1548 21.6809 11.1444 21.3113C11.1339 20.9341 9.07172 21.0198 9.02647 20.5637C8.99724 20.2638 10.104 20.2834 10.056 19.9062C10.0211 19.6315 9.56425 19.6704 9.29316 19.105C8.85588 18.1599 8.61042 17.1084 8.61042 16C8.61042 11.9196 11.9176 8.61242 15.998 8.61242C20.0784 8.61242 23.3856 11.9196 23.3856 16C23.3856 17.0063 23.1842 17.9653 22.8194 18.8399C22.4722 19.6259 21.6909 19.4681 21.6025 19.7989H21.6045L21.6049 19.7993Z" fill="white"/>
</g>
<defs>
<clipPath id="clip0_2813_634">
<rect width="32" height="32" fill="white" transform="translate(0 0.00292969)"/>
</clipPath>
<clipPath id="clip1_2813_634">
<rect width="32" height="32" fill="white"/>
</clipPath>
</defs>
</svg>
