<svg width="32" height="32" viewBox="0 0 32 32" fill="none" xmlns="http://www.w3.org/2000/svg">
<g clip-path="url(#clip0_36_1623)">
<path d="M16 1.92002V7.92002C9.84 7.92002 4.88 12.88 4.88 19.04C4.88 25.2 9.84 30.16 16 30.16V24.16C22.16 24.16 27.12 19.2 27.12 13.04C27.12 6.88002 22.16 1.92002 16 1.92002ZM16.08 21.52C14.88 19.12 13.04 17.28 10.64 16.08C13.04 14.8 14.88 12.96 16.08 10.48C17.28 12.88 19.12 14.72 21.52 15.92C19.12 17.2 17.28 19.04 16.08 21.52Z" fill="white"/>
<path d="M16.08 10.48C14.88 12.96 13.04 14.8 10.64 16.08C13.04 17.28 14.88 19.12 16.08 21.52C17.28 19.04 19.12 17.2 21.52 15.92C19.12 14.72 17.28 12.88 16.08 10.48Z" fill="#FF0420"/>
<path d="M16 0C7.2 0 0 7.2 0 16C0 24.8 7.2 32 16 32C24.8 32 32 24.8 32 16C32 7.2 24.8 0 16 0ZM16 24.16V30.16C9.84 30.16 4.88 25.2 4.88 19.04C4.88 12.88 9.84 7.92002 16 7.92002V1.92002C22.16 1.92002 27.12 6.88002 27.12 13.04C27.12 19.2 22.16 24.16 16 24.16Z" fill="#FF0420"/>
</g>
<defs>
<clipPath id="clip0_36_1623">
<rect width="32" height="32" fill="white" transform="translate(0 0.00289917)"/>
</clipPath>
</defs>
</svg>
