<svg width="32" height="32" viewBox="0 0 32 32" fill="none" xmlns="http://www.w3.org/2000/svg">
<circle cx="16" cy="16" r="16" fill="#020617"/>
<path d="M10.6664 9.0832L16 6L21.3336 9.0832L19.3336 10.1664L16 8.2496L12.5832 10.1664L10.6664 9.0832ZM21.2496 12.9168L19.3328 11.8336L16 13.7504L12.5832 11.8336L10.6664 12.9168V15.1672L14 17.084V21.0008L15.9168 22.1672L17.8336 21.0008V17.1672L21.1672 15.2504V12.9168H21.2496ZM21.2496 19.0832V16.8336L19.3336 18V20.1664L21.2496 19.0832ZM22.6664 19.8336L19.3328 21.7504V24L24.6664 20.9168V14.7504L22.6664 16V19.8336ZM20.7504 11L22.6672 12.1664V14.4168L24.584 13.2504V11L22.6672 9.8336L20.7504 11ZM14 22.5832V24.8328L15.9168 25.9992L17.8336 24.8328V22.5832L15.9168 23.7496L14 22.5832ZM10.6664 19.0832L12.5832 20.1664V17.9168L10.6664 16.7504V19.0832ZM14 11L15.9168 12.1664L17.9168 11L16 9.8336L14 11ZM9.24956 12.1664L11.2496 11L9.24956 9.8336L7.33356 11V13.2496L9.25036 14.416V12.1664H9.24956ZM9.24956 16L7.33276 14.8336V21L12.6664 24.0832V21.8336L9.33276 19.9168V16H9.24956Z" fill="#F0B90B"/>
</svg>
