<svg width="32" height="32" viewBox="0 0 32 32" fill="none" xmlns="http://www.w3.org/2000/svg">
<g clip-path="url(#clip0_2700_320)">
<path d="M32.0035 15.9967C32.0035 12.8328 31.0654 9.74003 29.3076 7.1094C27.5499 4.47876 25.0515 2.42842 22.1285 1.21768C19.2056 0.00693112 15.9891 -0.309856 12.8861 0.307379C9.78302 0.924611 6.93268 2.44814 4.6955 4.68532C2.45834 6.92248 0.934806 9.77282 0.317571 12.8759C-0.299663 15.9789 0.017124 19.1953 1.22787 22.1183C2.43862 25.0413 4.48895 27.5397 7.11958 29.2973C9.75023 31.0551 12.843 31.9934 16.0068 31.9934C18.1076 31.9936 20.1878 31.58 22.1287 30.776C24.0698 29.9723 25.8332 28.7939 27.3187 27.3086C28.8042 25.8231 29.9825 24.0595 30.7863 22.1186C31.5902 20.1778 32.0038 18.0975 32.0035 15.9967Z" fill="#322E32"/>
<mask id="mask0_2700_320" style="mask-type:luminance" maskUnits="userSpaceOnUse" x="0" y="0" width="32" height="32">
<path d="M32 0H0V32H32V0Z" fill="white"/>
</mask>
<g mask="url(#mask0_2700_320)">
</g>
<mask id="mask1_2700_320" style="mask-type:alpha" maskUnits="userSpaceOnUse" x="8" y="9" width="16" height="14">
<path d="M8.96143 22.4863C8.96143 22.3878 9.03643 22.191 9.18643 21.8957C9.33174 21.605 9.49111 21.2324 9.66455 20.7777C9.84268 20.323 10.0114 19.8496 10.1708 19.3574C10.3302 18.8652 10.4919 18.3378 10.656 17.7753L11.2044 15.9191L10.4731 16.116C10.2903 16.116 10.1403 16.0199 10.0231 15.8277C9.99502 15.7761 9.98096 15.7152 9.98096 15.6449C9.98096 15.5746 10.0372 15.4925 10.1497 15.3988C10.2622 15.3003 10.4005 15.2089 10.5645 15.1246C10.8927 14.9558 11.2302 14.8269 11.577 14.7378L11.6403 14.541C11.7669 14.1472 11.8864 13.7394 11.9989 13.3175C12.1161 12.891 12.238 12.4761 12.3645 12.073C12.4958 11.6699 12.6435 11.2878 12.8075 10.9269C12.9716 10.5613 13.1638 10.2425 13.3841 9.97065C13.8716 9.38003 14.4833 9.08472 15.2192 9.08472C15.763 9.08472 16.1942 9.23003 16.513 9.52065C16.8318 9.81128 16.9912 10.205 16.9912 10.7019C16.9912 11.2175 16.8435 11.6652 16.5481 12.0449C16.2997 12.3589 16.0231 12.516 15.7185 12.516C15.3388 12.516 15.081 12.3425 14.945 11.9956C14.9075 11.9066 14.8888 11.8316 14.8888 11.7706C14.8888 11.6675 14.9591 11.5738 15.0997 11.4894C15.3575 11.2925 15.538 11.03 15.6411 10.7019C15.6739 10.5988 15.6903 10.498 15.6903 10.3996C15.6903 10.0152 15.5403 9.823 15.2403 9.823C14.8278 9.823 14.4481 10.2894 14.1013 11.2222C13.9981 11.5081 13.895 11.8222 13.7919 12.1644L13.131 14.4074C13.5575 14.3417 13.8669 14.3089 14.0591 14.3089C14.256 14.3089 14.4294 14.3324 14.5794 14.3792C14.7294 14.4214 14.8653 14.4824 14.9872 14.5621C15.2638 14.7449 15.402 14.9699 15.402 15.2371C15.402 15.5042 15.2708 15.6378 15.0083 15.6378L14.1153 15.6027C13.6278 15.6027 13.1778 15.6238 12.7653 15.666L12.1888 17.705C11.8091 19.0878 11.4997 20.0933 11.2606 20.7214C11.0263 21.3496 10.7966 21.8816 10.5716 22.3175C10.3606 22.716 10.0395 22.9152 9.6083 22.9152C9.17705 22.9152 8.96143 22.7722 8.96143 22.4863ZM16.4455 20.7847C16.2439 20.93 16.0869 21.0027 15.9744 21.0027C15.8666 21.0027 15.7752 20.9863 15.7002 20.9535C15.6299 20.9253 15.5642 20.8878 15.5033 20.841C15.3627 20.7238 15.2924 20.6183 15.2924 20.5246C15.2924 20.4261 15.3439 20.3371 15.447 20.2574C15.447 20.2574 15.59 20.1425 15.876 19.9128C16.6447 19.28 17.2799 18.5933 17.7815 17.8527C17.3737 16.7089 17.1862 15.7574 17.219 14.998C17.2377 14.623 17.3994 14.2996 17.7041 14.0277C17.9854 13.7839 18.2854 13.6621 18.6041 13.6621C18.6979 13.6621 18.7588 13.6949 18.7869 13.7605C18.8151 13.8261 18.8291 13.9222 18.8291 14.0488C18.8291 14.1706 18.8244 14.3019 18.8151 14.4425C18.8057 14.5785 18.8033 14.7238 18.808 14.8785C18.8174 15.0285 18.8291 15.1925 18.8432 15.3706C18.8901 15.8488 18.9346 16.2214 18.9768 16.4886L19.2088 16.1019C19.7432 15.2535 20.3666 14.5808 21.0791 14.0839C21.4822 13.8027 21.8291 13.6621 22.1197 13.6621C22.3822 13.6621 22.5862 13.6996 22.7315 13.7746C23.0033 13.9152 23.0947 14.0581 23.0057 14.2035C22.9916 14.2269 22.9635 14.2456 22.9213 14.2597L22.7455 14.3441C22.0049 14.6675 21.0604 15.4597 19.9119 16.7207C19.6729 16.9832 19.4643 17.2339 19.2862 17.473L19.5322 18.2957C19.8369 19.28 20.1979 19.7722 20.6151 19.7722C20.7979 19.7722 20.9479 19.7441 21.0651 19.6878L21.3182 19.5753C21.3697 19.5519 21.419 19.5402 21.4658 19.5402C21.5643 19.5402 21.6135 19.5894 21.6135 19.6878C21.6135 20.1003 21.4026 20.4472 20.9807 20.7285C20.6994 20.916 20.3807 21.0097 20.0244 21.0097C19.3354 21.0097 18.7119 20.2996 18.1541 18.8792C17.5635 19.7464 16.994 20.3816 16.4455 20.7847Z" fill="black"/>
</mask>
<g mask="url(#mask1_2700_320)">
<path d="M24.0013 16.1579C24.0013 11.3563 20.1089 7.46387 15.3073 7.46387C10.5058 7.46387 6.61334 11.3563 6.61334 16.1579C6.61334 20.9594 10.5058 24.8519 15.3073 24.8519C20.1089 24.8519 24.0013 20.9594 24.0013 16.1579Z" fill="url(#paint0_linear_2700_320)"/>
<g filter="url(#filter0_f_2700_320)">
<path d="M20.905 20.7117C20.905 15.6418 16.795 11.5317 11.725 11.5317C6.65501 11.5317 2.54498 15.6418 2.54498 20.7117C2.54498 25.7817 6.65501 29.8917 11.725 29.8917C16.795 29.8917 20.905 25.7817 20.905 20.7117Z" fill="url(#paint1_linear_2700_320)"/>
</g>
<g filter="url(#filter1_f_2700_320)">
<path d="M19.2492 22.6919C19.2492 17.3635 14.9296 13.0439 9.60119 13.0439C4.27274 13.0439 -0.046814 17.3635 -0.046814 22.6919C-0.046814 28.0204 4.27274 32.3399 9.60119 32.3399C14.9296 32.3399 19.2492 28.0204 19.2492 22.6919Z" fill="#4870FF"/>
</g>
</g>
</g>
<defs>
<filter id="filter0_f_2700_320" x="1.10498" y="10.0917" width="21.24" height="21.24" filterUnits="userSpaceOnUse" color-interpolation-filters="sRGB">
<feFlood flood-opacity="0" result="BackgroundImageFix"/>
<feBlend mode="normal" in="SourceGraphic" in2="BackgroundImageFix" result="shape"/>
<feGaussianBlur stdDeviation="0.72" result="effect1_foregroundBlur_2700_320"/>
</filter>
<filter id="filter1_f_2700_320" x="-1.48681" y="11.6039" width="22.176" height="22.176" filterUnits="userSpaceOnUse" color-interpolation-filters="sRGB">
<feFlood flood-opacity="0" result="BackgroundImageFix"/>
<feBlend mode="normal" in="SourceGraphic" in2="BackgroundImageFix" result="shape"/>
<feGaussianBlur stdDeviation="0.72" result="effect1_foregroundBlur_2700_320"/>
</filter>
<linearGradient id="paint0_linear_2700_320" x1="24.7917" y1="24.8518" x2="4.43742" y2="7.35786" gradientUnits="userSpaceOnUse">
<stop stop-color="#D1A3FF"/>
<stop offset="1" stop-color="#FFE298"/>
</linearGradient>
<linearGradient id="paint1_linear_2700_320" x1="21.7859" y1="31.1124" x2="-0.510937" y2="11.4638" gradientUnits="userSpaceOnUse">
<stop stop-color="#4870FF"/>
<stop offset="1" stop-color="#A4DEFF"/>
</linearGradient>
<clipPath id="clip0_2700_320">
<rect width="32" height="32" fill="white"/>
</clipPath>
</defs>
</svg>
