<svg width="32" height="32" viewBox="0 0 32 32" fill="none" xmlns="http://www.w3.org/2000/svg">
<path fill-rule="evenodd" clip-rule="evenodd" d="M7 5.87013V20.6753C7 20.987 7.07792 21.2208 7.15584 21.4545C7.31169 21.6883 7.46753 21.9221 7.7013 22.0779L14.7143 27.6883C14.9481 27.9221 15.2597 28 15.5714 28C15.8831 28 16.1948 27.9221 16.4286 27.6883L23.4416 22.0779C23.6753 21.9221 23.8312 21.6883 23.987 21.4545C24.1429 21.2208 24.1429 20.9091 24.1429 20.6753V5.87013C24.1429 5.4026 23.9091 4.93506 23.5974 4.54545C23.2857 4.15584 22.8182 4 22.2727 4H8.87013C8.32468 4 7.85714 4.15584 7.54545 4.54545C7.23377 4.85714 7 5.32468 7 5.87013Z" fill="#004DE5"/>
<path d="M20.5584 12.5714V9.2987C20.5584 8.90909 20.4026 8.44156 20.0909 8.12987C19.7792 7.81818 19.3896 7.66234 18.9221 7.66234H12.1429C11.7532 7.74026 11.3636 7.8961 11.0519 8.20779C10.7403 8.51948 10.5844 8.90909 10.5844 9.2987V18.6494C10.5844 18.8831 10.6623 19.1169 10.7403 19.3507C10.8182 19.5844 10.974 19.7403 11.2078 19.8961L13.6234 21.9221L13.7013 22H13.7792L13.8571 21.9221V15.2208C13.8571 15.1429 13.8571 15.1429 13.9351 15.0649C13.9351 15.0649 14.013 14.987 14.0909 14.987H15.8831C16.1948 14.987 16.5065 15.1429 16.7403 15.3766C16.974 15.6104 17.1299 15.9221 17.1299 16.2338V21.9221L17.2078 22H17.2857C17.2857 22 17.3636 22 17.3636 21.9221L19.8571 19.8961C20.013 19.7403 20.1688 19.5844 20.3247 19.3507C20.4026 19.1169 20.4805 18.8831 20.4805 18.6494V15.7662C20.4805 15.3766 20.3247 14.9091 20.013 14.5974C19.7013 14.2857 19.3117 14.1299 18.8442 14.1299C19.2338 14.1299 19.7013 13.974 19.9351 13.6623C20.4026 13.4286 20.5584 12.961 20.5584 12.5714ZM15.961 13.3506H14.1688C14.0909 13.3506 14.0909 13.3506 14.013 13.2727C14.013 13.2727 13.9351 13.1948 13.9351 13.1169V9.53247C13.9351 9.45455 14.013 9.45455 14.013 9.37662C14.013 9.37662 14.0909 9.2987 14.1688 9.2987H16.974C17.0519 9.2987 17.0519 9.2987 17.1299 9.37662C17.1299 9.37662 17.2078 9.45455 17.2078 9.53247V12.1818C17.2078 12.4935 17.0519 12.8052 16.8182 13.039C16.5844 13.2727 16.2727 13.3506 15.961 13.3506Z" fill="url(#paint0_linear_3879_32)"/>
<defs>
<linearGradient id="paint0_linear_3879_32" x1="15.5715" y1="7.71439" x2="15.5715" y2="22.0001" gradientUnits="userSpaceOnUse">
<stop stop-color="white"/>
<stop offset="0.4583" stop-color="white"/>
<stop offset="1" stop-color="white"/>
</linearGradient>
</defs>
</svg>
