<svg width="32" height="32" viewBox="0 0 32 32" fill="none" xmlns="http://www.w3.org/2000/svg">
<rect width="32" height="32" rx="16" fill="black"/>
<path d="M16.3527 12.0407C17.7554 12.0407 18.8926 10.9123 18.8926 9.52035C18.8926 8.1284 17.7554 7 16.3527 7C14.9499 7 13.8127 8.1284 13.8127 9.52035C13.8127 10.9123 14.9499 12.0407 16.3527 12.0407Z" fill="#FAF9F5"/>
<path d="M23.4115 17.3096C22.1967 16.6155 20.6415 17.0264 19.9421 18.2319C19.7028 18.6428 19.5924 19.0994 19.6016 19.5468C19.6292 20.6609 18.6169 21.2362 17.6598 20.6609C17.623 20.6426 17.5862 20.6152 17.5402 20.5969C16.5739 20.0582 16.5739 18.9167 17.5402 18.3871C18.3316 17.9579 18.8746 17.1269 18.8746 16.1681C18.8746 16.1498 18.8746 16.1316 18.8746 16.1133C18.847 14.9992 19.8592 14.424 20.8163 14.9992C21.5801 15.465 22.5741 15.5015 23.4022 15.0267C24.617 14.3326 25.0312 12.7894 24.3318 11.584C23.6324 10.3786 22.0771 9.96769 20.8623 10.6617C20.0341 11.1365 19.574 12.0132 19.5924 12.899C19.62 14.013 18.6077 14.5883 17.6598 14.013C17.2733 13.7756 16.8223 13.6386 16.3346 13.6386C15.8469 13.6386 15.3959 13.7756 15.0094 14.0039C14.0524 14.57 13.0493 13.9948 13.0769 12.8898C13.0953 11.9949 12.6352 11.1274 11.8069 10.6526C10.5922 9.95856 9.03694 10.3786 8.33754 11.584C7.63814 12.7894 8.06146 14.3326 9.27621 15.0267C10.1045 15.5015 11.0983 15.4558 11.8622 14.9992C12.8192 14.424 13.8223 14.9992 13.7947 16.1133C13.7947 16.1316 13.7947 16.1498 13.7947 16.1681C13.7947 17.1269 14.3285 17.9579 15.1291 18.3871C16.0953 18.9259 16.0953 20.0673 15.1291 20.5969C15.0923 20.6152 15.0555 20.6426 15.0187 20.6609C14.0616 21.2271 13.0585 20.6517 13.0861 19.5468C13.0953 19.0994 12.9849 18.6428 12.7456 18.2227C12.0462 17.0173 10.491 16.6064 9.27621 17.3004C8.06146 18.0127 7.64734 19.5559 8.34674 20.7613C9.04614 21.9667 10.6014 22.3776 11.8161 21.6836C11.8345 21.6745 11.8437 21.6654 11.8622 21.6562C12.8192 21.0809 13.8223 21.6562 13.7947 22.7703C13.7947 22.7885 13.7947 22.8068 13.7947 22.8342C13.7947 24.2222 14.9358 25.3546 16.3346 25.3546C17.7334 25.3546 18.8746 24.2222 18.8746 22.8342C18.8746 22.816 18.8746 22.7977 18.8746 22.7794C18.847 21.6654 19.8592 21.0901 20.8163 21.6654C20.8347 21.6745 20.8531 21.6836 20.8716 21.7019C22.0863 22.3959 23.6415 21.985 24.3409 20.7796C25.0403 19.5468 24.6262 18.0036 23.4115 17.3096Z" fill="#FAF9F5"/>
</svg>
