<svg width="32" height="32" viewBox="0 0 32 32" fill="none" xmlns="http://www.w3.org/2000/svg">
<g clip-path="url(#clip0_2499_583)">
<circle cx="16" cy="16" r="16" fill="#FFEEDA"/>
<path d="M24.0289 18.8828V7.97113C24.0145 7.05581 23.2865 6.32068 22.3712 6.32068H10.9838C8.52617 6.35671 6.55139 8.36753 6.55139 10.8324C6.55139 11.6612 6.77481 12.3747 7.11355 13.0018C7.40184 13.5207 7.8559 14.0108 8.30274 14.3783C8.43247 14.4792 8.36761 14.436 8.7568 14.6738C9.29013 14.9982 9.90274 15.1639 9.90274 15.1639L9.89554 21.6937C9.90995 22.0036 9.93878 22.2991 10.0253 22.5801C10.2775 23.5027 10.919 24.209 11.7838 24.5477C12.1442 24.6919 12.555 24.7855 12.9946 24.7927L22.0901 24.8216C23.8991 24.8216 25.3694 23.3513 25.3694 21.5351C25.3766 20.454 24.8361 19.4882 24.0289 18.8828Z" fill="#FFEEDA"/>
<path d="M24.2523 21.6144C24.2163 22.7747 23.2577 23.7117 22.0829 23.7117L15.8271 23.69C16.3244 23.1135 16.6271 22.3639 16.6271 21.5423C16.6271 20.2594 15.8631 19.3729 15.8631 19.3729H22.0901C23.2865 19.3729 24.2595 20.3459 24.2595 21.5423L24.2523 21.6144Z" fill="#EBC28E"/>
<path d="M8.90094 13.4558C8.18022 12.7711 7.67572 11.8918 7.67572 10.8396V10.7315C7.73337 8.9441 9.20364 7.50266 10.991 7.45221H22.3784C22.6739 7.46662 22.9118 7.67563 22.9118 7.97833V17.6144C23.1712 17.6576 23.3009 17.6936 23.5532 17.7873C23.755 17.8594 24.0289 18.018 24.0289 18.018V7.97833C24.0145 7.06302 23.2865 6.32788 22.3712 6.32788H10.9838C8.52617 6.36392 6.55139 8.37473 6.55139 10.8396C6.55139 12.2738 7.20725 13.4991 8.27391 14.3567C8.34599 14.4144 8.41806 14.4936 8.60545 14.4936C8.93698 14.4936 9.17481 14.227 9.1604 13.9387C9.1604 13.6936 9.05229 13.6072 8.90094 13.4558Z" fill="#101010"/>
<path d="M22.0829 18.2486H13.1532C12.555 18.2558 12.0721 18.7387 12.0721 19.3369V20.6198C12.0865 21.2108 12.591 21.7153 13.1964 21.7153H13.8595V20.6198H13.1892V19.3658C13.1892 19.3658 13.355 19.3658 13.5496 19.3658C14.6811 19.3658 15.51 20.4108 15.51 21.5351C15.51 22.5297 14.6019 23.7982 13.0883 23.6973C11.7478 23.6108 11.0199 22.4144 11.0199 21.5351V10.6522C11.0199 10.1621 10.6163 9.75854 10.1262 9.75854H9.23248V10.8757H9.89555V21.5423C9.85951 23.7117 11.4379 24.8 13.0883 24.8L22.0901 24.8288C23.8991 24.8288 25.3694 23.3585 25.3694 21.5423C25.3766 19.7261 23.8991 18.2486 22.0829 18.2486ZM24.2523 21.6144C24.2163 22.7748 23.2577 23.7117 22.0829 23.7117L15.8271 23.6901C16.3244 23.1135 16.6271 22.364 16.6271 21.5423C16.6271 20.2594 15.8631 19.373 15.8631 19.373H22.0901C23.2865 19.373 24.2595 20.3459 24.2595 21.5423L24.2523 21.6144Z" fill="#101010"/>
<path d="M19.6757 11.0774H12.9442V9.96033H19.6757C19.9784 9.96033 20.2307 10.2054 20.2307 10.5153C20.2379 10.8252 19.9929 11.0774 19.6757 11.0774Z" fill="#101010"/>
<path d="M19.6757 16.3171H12.9442V15.2072H19.6757C19.9784 15.2072 20.2307 15.4522 20.2307 15.7621C20.2379 16.0648 19.9929 16.3171 19.6757 16.3171Z" fill="#101010"/>
<path d="M20.8649 13.6937H12.9442V12.5765H20.8577C21.1604 12.5765 21.4127 12.8216 21.4127 13.1315C21.4271 13.4414 21.1748 13.6937 20.8649 13.6937Z" fill="#101010"/>
</g>
<defs>
<clipPath id="clip0_2499_583">
<rect width="32" height="32" rx="16" fill="white"/>
</clipPath>
</defs>
</svg>
