<svg width="32" height="32" viewBox="0 0 32 32" fill="none" xmlns="http://www.w3.org/2000/svg">
<g clip-path="url(#clip0_3041_378)">
<path fill-rule="evenodd" clip-rule="evenodd" d="M15.9592 31.9971C20.7124 31.9971 24.9828 29.935 27.92 26.6587C26.5537 25.4742 24.4946 25.4022 23.0399 26.573L22.762 26.7967C20.0986 28.9403 16.2177 28.6238 13.9389 26.077C12.696 24.6879 10.5674 24.5461 9.15032 25.7579L5.94624 28.4978C8.69052 30.6876 12.1716 31.9971 15.9592 31.9971ZM21.1601 24.2493C23.697 22.2075 27.2627 22.2807 29.7026 24.2528C31.161 21.8425 32 19.0176 32 15.997C32 12.6408 30.9641 9.52593 29.1936 6.95322C28.0522 6.71078 26.8151 6.99394 25.876 7.82403L25.6087 8.06027C23.0473 10.3243 19.156 10.1867 16.7617 7.7475C15.4559 6.41718 13.323 6.3735 11.9635 7.64925L8.23493 11.1481L6.18375 8.97347L9.91238 5.47455C12.459 3.08479 16.4545 3.16662 18.9006 5.65866C20.1787 6.96079 22.2561 7.03421 23.6234 5.8256L23.8907 5.58935C24.7207 4.8557 25.681 4.36113 26.6864 4.10101C23.8446 1.54973 20.0837 -0.00292969 15.9592 -0.00292969C7.8163 -0.00292969 1.09054 6.04918 0.0563325 13.8897C2.52966 12.7059 5.5805 13.1614 7.59715 15.2213C8.87026 16.5217 10.9202 16.659 12.3561 15.54L14.4409 13.9154C17.0609 11.8738 20.7646 11.9726 23.2714 14.1512L27.3302 17.6783L25.3638 19.9295L21.3051 16.4023C19.8796 15.1636 17.7736 15.1074 16.2837 16.2684L14.199 17.8929C11.5608 19.9487 7.79451 19.6966 5.45551 17.3073C4.09535 15.9181 1.87081 15.8696 0.451131 17.1983L0 17.6206C0.337616 20.9624 1.7062 24.0007 3.78368 26.4143L7.202 23.4911C9.85652 21.2211 13.8439 21.4868 16.1722 24.0888C17.3887 25.4484 19.4604 25.6174 20.8822 24.473L21.1601 24.2493Z" fill="url(#paint0_linear_3041_378)"/>
</g>
<defs>
<linearGradient id="paint0_linear_3041_378" x1="15.9732" y1="31.8622" x2="15.9732" y2="-0.00292969" gradientUnits="userSpaceOnUse">
<stop stop-color="#B52A2A"/>
<stop offset="1" stop-color="#780000"/>
</linearGradient>
<clipPath id="clip0_3041_378">
<rect width="32" height="32" fill="white"/>
</clipPath>
</defs>
</svg>
