<svg width="32" height="32" viewBox="0 0 32 32" fill="none" xmlns="http://www.w3.org/2000/svg">
<g id="settlus_symbol_gr 1" clip-path="url(#clip0_4025_493)">
<path id="Vector" fill-rule="evenodd" clip-rule="evenodd" d="M32 16C32 24.832 24.832 32 16 32C7.168 32 0 24.832 0 16C0 7.168 7.168 0 16 0C24.832 0 32 7.168 32 16ZM24.32 12.96L25.952 14.592C26.688 15.328 26.688 16.544 25.952 17.312L23.104 20.16C22.592 20.672 21.728 20.32 21.728 19.584V18.976V15.264C21.728 15.04 21.632 14.816 21.472 14.656C20.928 14.112 20 14.496 20 15.264V21.6C20 22.624 19.616 23.552 18.976 24.256L17.344 25.888C16.576 26.624 15.36 26.624 14.624 25.888L12.992 24.256L6.912 18.176L6.016 17.28C5.28 16.544 5.28 15.328 6.016 14.56L8.896 11.68C9.408 11.168 10.272 11.52 10.272 12.256V12.896V16.608C10.272 16.832 10.368 17.056 10.528 17.216C11.072 17.76 12 17.376 12 16.608V14.368V10.304C12 9.28 12.384 8.352 13.024 7.648L14.656 6.016C15.424 5.248 16.64 5.28 17.376 6.016L19.008 7.648L24.32 12.96Z" fill="#005650"/>
</g>
<defs>
<clipPath id="clip0_4025_493">
<rect width="32" height="32" fill="white"/>
</clipPath>
</defs>
</svg>
