<svg width="32" height="32" viewBox="0 0 32 32" fill="none" xmlns="http://www.w3.org/2000/svg">
<rect width="32" height="32" rx="16" fill="#F4F4F4"/>
<path d="M17.2813 21.3963C16.3597 21.6176 15.3968 21.5989 14.4845 21.3422C13.5722 21.0854 12.7409 20.5991 12.0699 19.9297C11.1816 19.0811 10.6106 17.9539 10.4521 16.7357C10.2935 15.5175 10.5569 14.2817 11.1984 13.234C11.6195 12.551 12.127 11.9252 12.7083 11.3721C14.5524 9.53472 17.9386 6.19128 17.9386 6.19128C15.421 5.69151 12.8077 6.1797 10.6403 7.55467C8.47296 8.92964 6.91785 11.0859 6.29735 13.5765C5.67612 16.0668 6.03625 18.7007 7.3032 20.9329C8.57016 23.1651 10.6469 24.8246 13.1036 25.568L17.2813 21.3963Z" fill="black"/>
<path d="M14.7095 10.5922C15.6309 10.3705 16.5939 10.389 17.5062 10.6457C18.4185 10.9025 19.2497 11.3891 19.9203 12.0588C21.7477 13.8868 22.1046 16.5996 20.7851 18.7446C20.3633 19.428 19.8559 20.0548 19.2752 20.6098C17.4306 22.4444 14.0444 25.79 14.0444 25.79C16.5643 26.2948 19.1817 25.8093 21.3528 24.4343C23.524 23.0594 25.0819 20.9008 25.7029 18.4071C26.3247 15.9135 25.9625 13.2763 24.6916 11.0426C23.4207 8.80897 21.3385 7.15042 18.8772 6.41113L14.7095 10.5922Z" fill="black"/>
</svg>
