<svg width="32" height="32" viewBox="0 0 32 32" fill="none" xmlns="http://www.w3.org/2000/svg">
<g clip-path="url(#clip0_3576_151)">
<path d="M19.2649 19.2895C13.2173 21.0498 8.21458 23.6174 5.08308 26.6258L4.94482 26.7593C5.77753 27.5231 6.69063 28.2061 7.67764 28.7867L7.88987 28.5352C8.74509 27.5231 9.66142 26.5451 10.6163 25.623C13.1787 23.1486 16.1109 21.0064 19.2682 19.2864L19.2649 19.2895Z" fill="url(#paint0_radial_3576_151)"/>
<path d="M19.2649 19.2895C13.2173 21.0498 8.21458 23.6174 5.08308 26.6258L4.94482 26.7593C5.77753 27.5231 6.69063 28.2061 7.67764 28.7867L7.88987 28.5352C8.74509 27.5231 9.66142 26.5451 10.6163 25.623C13.1787 23.1486 16.1109 21.0064 19.2682 19.2864L19.2649 19.2895Z" fill="black"/>
<path d="M0 16.6814C0.241132 19.8202 1.44358 22.6983 3.33085 25.0392L3.41766 24.9554C5.35636 23.1019 7.88024 21.416 10.9249 19.9475C13.5935 18.6591 16.6575 17.5538 19.9594 16.6814H0Z" fill="url(#paint1_radial_3576_151)"/>
<path d="M0 16.6814C0.241132 19.8202 1.44358 22.6983 3.33085 25.0392L3.41766 24.9554C5.35636 23.1019 7.88024 21.416 10.9249 19.9475C13.5935 18.6591 16.6575 17.5538 19.9594 16.6814H0Z" fill="black"/>
<path d="M12.3074 3.78149C17.7184 9.00664 24.528 12.4621 31.9968 13.7723C31.0965 6.02615 24.2934 0 16.0273 0C13.8443 0 11.7641 0.422235 9.86395 1.18288C10.6356 2.08323 11.4586 2.95875 12.3074 3.78149Z" fill="url(#paint2_radial_3576_151)"/>
<path d="M12.3074 3.78149C17.7184 9.00664 24.528 12.4621 31.9968 13.7723C31.0965 6.02615 24.2934 0 16.0273 0C13.8443 0 11.7641 0.422235 9.86395 1.18288C10.6356 2.08323 11.4586 2.95875 12.3074 3.78149Z" fill="black"/>
<path d="M5.08308 4.42111C8.21458 7.43267 13.2173 9.99713 19.2649 11.7606C16.1077 10.0375 13.1755 7.89837 10.6131 5.42394C9.66142 4.50493 8.74509 3.52696 7.88665 2.51173L7.67448 2.26025C6.68742 2.84083 5.77431 3.52386 4.94482 4.28761L5.08308 4.42111Z" fill="url(#paint3_radial_3576_151)"/>
<path d="M5.08308 4.42111C8.21458 7.43267 13.2173 9.99713 19.2649 11.7606C16.1077 10.0375 13.1755 7.89837 10.6131 5.42394C9.66142 4.50493 8.74509 3.52696 7.88665 2.51173L7.67448 2.26025C6.68742 2.84083 5.77431 3.52386 4.94482 4.28761L5.08308 4.42111Z" fill="black"/>
<path d="M12.3074 27.2652C11.4554 28.0879 10.6324 28.9634 9.86395 29.8638C11.7609 30.6244 13.8443 31.0467 16.0273 31.0467C24.2934 31.0467 31.0965 25.0205 32 17.2712C24.5313 18.5814 17.7217 22.0369 12.3107 27.2621L12.3074 27.2652Z" fill="url(#paint4_radial_3576_151)"/>
<path d="M12.3074 27.2652C11.4554 28.0879 10.6324 28.9634 9.86395 29.8638C11.7609 30.6244 13.8443 31.0467 16.0273 31.0467C24.2934 31.0467 31.0965 25.0205 32 17.2712C24.5313 18.5814 17.7217 22.0369 12.3107 27.2621L12.3074 27.2652Z" fill="black"/>
<path d="M10.9249 11.0992C7.88024 9.63072 5.35636 7.94488 3.41766 6.09139L3.33085 6.00757C1.44358 8.34849 0.241132 11.2265 0 14.3653H19.9562C16.6543 13.4929 13.5935 12.3877 10.9217 11.0961L10.9249 11.0992Z" fill="url(#paint5_radial_3576_151)"/>
<path d="M10.9249 11.0992C7.88024 9.63072 5.35636 7.94488 3.41766 6.09139L3.33085 6.00757C1.44358 8.34849 0.241132 11.2265 0 14.3653H19.9562C16.6543 13.4929 13.5935 12.3877 10.9217 11.0961L10.9249 11.0992Z" fill="black"/>
</g>
<defs>
<radialGradient id="paint0_radial_3576_151" cx="0" cy="0" r="1" gradientUnits="userSpaceOnUse" gradientTransform="translate(16 15.5235) rotate(90) scale(15.5234 16)">
<stop stop-color="#1C294B"/>
<stop offset="0.317213" stop-color="#FF4433"/>
<stop offset="0.597213" stop-color="#FE9A4C"/>
<stop offset="1" stop-color="#E0E0E0"/>
</radialGradient>
<radialGradient id="paint1_radial_3576_151" cx="0" cy="0" r="1" gradientUnits="userSpaceOnUse" gradientTransform="translate(16 15.5234) rotate(90) scale(15.5234 16)">
<stop stop-color="#1C294B"/>
<stop offset="0.317213" stop-color="#FF4433"/>
<stop offset="0.597213" stop-color="#FE9A4C"/>
<stop offset="1" stop-color="#E0E0E0"/>
</radialGradient>
<radialGradient id="paint2_radial_3576_151" cx="0" cy="0" r="1" gradientUnits="userSpaceOnUse" gradientTransform="translate(16 15.5233) rotate(90) scale(15.5234 16)">
<stop stop-color="#1C294B"/>
<stop offset="0.317213" stop-color="#FF4433"/>
<stop offset="0.597213" stop-color="#FE9A4C"/>
<stop offset="1" stop-color="#E0E0E0"/>
</radialGradient>
<radialGradient id="paint3_radial_3576_151" cx="0" cy="0" r="1" gradientUnits="userSpaceOnUse" gradientTransform="translate(16 15.5234) rotate(90) scale(15.5234 16)">
<stop stop-color="#1C294B"/>
<stop offset="0.317213" stop-color="#FF4433"/>
<stop offset="0.597213" stop-color="#FE9A4C"/>
<stop offset="1" stop-color="#E0E0E0"/>
</radialGradient>
<radialGradient id="paint4_radial_3576_151" cx="0" cy="0" r="1" gradientUnits="userSpaceOnUse" gradientTransform="translate(16 15.5233) rotate(90) scale(15.5234 16)">
<stop stop-color="#1C294B"/>
<stop offset="0.317213" stop-color="#FF4433"/>
<stop offset="0.597213" stop-color="#FE9A4C"/>
<stop offset="1" stop-color="#E0E0E0"/>
</radialGradient>
<radialGradient id="paint5_radial_3576_151" cx="0" cy="0" r="1" gradientUnits="userSpaceOnUse" gradientTransform="translate(16 15.5234) rotate(90) scale(15.5234 16)">
<stop stop-color="#1C294B"/>
<stop offset="0.317213" stop-color="#FF4433"/>
<stop offset="0.597213" stop-color="#FE9A4C"/>
<stop offset="1" stop-color="#E0E0E0"/>
</radialGradient>
<clipPath id="clip0_3576_151">
<rect width="32" height="32" rx="16" fill="white"/>
</clipPath>
</defs>
</svg>
