<svg width="32" height="32" viewBox="0 0 32 32" fill="none" xmlns="http://www.w3.org/2000/svg">
<path d="M0 16.0029C0 7.16637 7.16344 0.00292969 16 0.00292969C24.8366 0.00292969 32 7.16637 32 16.0029C32 24.8395 24.8366 32.0029 16 32.0029C7.16344 32.0029 0 24.8395 0 16.0029Z" fill="#007B50"/>
<path d="M15.9835 17.1962C17.0566 16.5458 18.5869 15.6456 19.7902 15.6456C21.716 15.6456 23.3261 17.0091 23.3261 19.5991C23.3261 23.731 18.414 27.5403 11.4729 25.881C11.4499 25.8755 11.4274 25.8929 11.4274 25.9163V27.7742V28.0003V28.15C11.4274 28.1651 11.4366 28.1783 11.4508 28.1839C12.4078 28.5416 13.4184 28.7899 14.467 28.9128C22.5994 29.8688 29.6259 23.0855 28.9557 14.9246C28.7635 12.5845 27.9717 10.4326 26.6956 8.61235C26.6859 8.59859 26.6689 8.58987 26.645 8.60226L15.99 14.7603C14.7789 15.4512 13.3862 16.3155 12.1853 16.3155C10.2595 16.3155 8.64933 14.952 8.64933 12.3621C8.64933 8.22977 13.562 4.42088 20.5031 6.08059C20.5259 6.08609 20.548 6.06913 20.548 6.04527V3.84655C20.548 3.83141 20.5388 3.81764 20.5246 3.8126C19.1154 3.28918 17.591 3.00293 16.0001 3.00293C8.82042 3.00293 3 8.82338 3 16.003C3 18.7265 3.83811 21.2542 5.26983 23.3429C5.28083 23.3584 5.30193 23.3635 5.31845 23.3539L15.9835 17.1962Z" fill="white"/>
</svg>
