<svg width="32" height="32" viewBox="0 0 32 32" fill="none" xmlns="http://www.w3.org/2000/svg">
<g clip-path="url(#clip0_88_342)">
<circle cx="16" cy="16.0029" r="16" fill="#0C0C4F"/>
<path fill-rule="evenodd" clip-rule="evenodd" d="M11.0147 13.2369L11.3109 12.3217C11.3711 12.1356 11.518 11.9907 11.7048 11.9336L12.6245 11.6508C12.7518 11.6119 12.7528 11.4323 12.6265 11.3914L11.711 11.0952C11.5252 11.035 11.3804 10.888 11.3229 10.7012L11.0405 9.78159C11.0016 9.65464 10.822 9.65326 10.7811 9.77986L10.4848 10.695C10.4246 10.8808 10.2777 11.0257 10.0909 11.0831L9.17126 11.3656C9.04397 11.4048 9.04259 11.5841 9.1692 11.625L10.0847 11.9212C10.2705 11.9814 10.4153 12.1287 10.4728 12.3155L10.7553 13.2348C10.7941 13.3621 10.9737 13.3635 11.0147 13.2369Z" fill="#FAFAFA"/>
<path fill-rule="evenodd" clip-rule="evenodd" d="M25.5504 12.7042C25.1713 12.2803 24.5796 12.0416 24.0044 11.9437C23.4246 11.8497 22.8166 11.8584 22.2442 11.9601C21.086 12.156 20.0338 12.6356 19.116 13.2272C18.6394 13.5176 18.233 13.8535 17.8119 14.1957C17.6091 14.3688 17.4241 14.553 17.2315 14.7347L16.7051 15.2584C16.1332 15.8562 15.5694 16.4008 15.024 16.8521C14.4764 17.3013 13.9644 17.6426 13.4598 17.8808C12.9555 18.1204 12.416 18.2612 11.7127 18.2837C11.0156 18.3083 10.1908 18.1825 9.30864 17.9749C8.4217 17.7681 7.49032 17.4734 6.44952 17.2198C6.81268 18.2273 7.35955 19.1176 8.06167 19.9316C8.77203 20.7313 9.65904 21.4601 10.7985 21.9395C11.9216 22.4295 13.3329 22.6054 14.6525 22.3401C15.9756 22.0853 17.1366 21.4732 18.0752 20.765C19.0161 20.0497 19.7774 19.2349 20.4191 18.3878C20.5962 18.1538 20.69 18.0228 20.8182 17.8399L21.1726 17.315C21.4188 16.9903 21.643 16.6206 21.8866 16.299C22.3645 15.6253 22.8357 14.9523 23.3831 14.3324C23.6587 14.0179 23.9493 13.7172 24.2922 13.4281C24.4633 13.287 24.6481 13.1489 24.8529 13.0246C25.0607 12.8904 25.2802 12.7854 25.5504 12.7042Z" fill="#EC796B"/>
<path fill-rule="evenodd" clip-rule="evenodd" d="M25.5504 12.7042C25.1432 11.6764 24.386 10.8113 23.3696 10.1729C22.3595 9.54153 20.9566 9.21932 19.5662 9.49398C18.8794 9.62682 18.214 9.88255 17.6301 10.2231C17.0488 10.5623 16.5279 10.9707 16.077 11.4087C15.8519 11.6285 15.6475 11.8577 15.4445 12.0883L14.9184 12.7591L14.1058 13.8389C13.0698 15.2282 11.9541 16.8564 10.1233 17.3389C8.32602 17.8125 7.54649 17.393 6.44952 17.2198C6.65011 17.7376 6.89855 18.2405 7.23537 18.6829C7.56592 19.1343 7.95636 19.5582 8.44177 19.9217C8.68707 20.0962 8.94606 20.2684 9.23369 20.4146C9.52004 20.5557 9.82882 20.6799 10.1584 20.7734C10.814 20.9531 11.5521 21.0161 12.2667 20.9193C12.9817 20.8239 13.6651 20.5975 14.2625 20.2965C14.8642 19.9984 15.3884 19.6353 15.8565 19.2523C16.7869 18.4796 17.5107 17.6258 18.122 16.7628C18.4295 16.3313 18.7087 15.8917 18.9668 15.4519L19.2707 14.9284C19.3635 14.7753 19.4575 14.6214 19.5529 14.478C19.9379 13.9018 20.3145 13.4399 20.7718 13.0931C21.2228 12.7374 21.8509 12.4746 22.6902 12.4135C23.5259 12.3517 24.4908 12.4659 25.5504 12.7042Z" fill="#FAFAFA"/>
<path fill-rule="evenodd" clip-rule="evenodd" d="M21.0289 21.2433C21.0289 21.9983 21.6412 22.6104 22.396 22.6104C23.1509 22.6104 23.7623 21.9983 23.7623 21.2433C23.7623 20.4886 23.1509 19.8763 22.396 19.8763C21.6412 19.8763 21.0289 20.4886 21.0289 21.2433Z" fill="#EC796B"/>
</g>
<defs>
<clipPath id="clip0_88_342">
<rect width="32" height="32" fill="white" transform="translate(0 0.00289917)"/>
</clipPath>
</defs>
</svg>
