<svg width="32" height="32" viewBox="0 0 32 32" fill="none" xmlns="http://www.w3.org/2000/svg">
<path d="M16 32.0029C24.8366 32.0029 32 24.8395 32 16.0029C32 7.16637 24.8366 0.00292969 16 0.00292969C7.16344 0.00292969 0 7.16637 0 16.0029C0 24.8395 7.16344 32.0029 16 32.0029Z" fill="black"/>
<path d="M23.4939 19.2761C23.4939 23.4323 20.1561 25.9303 16.0431 25.9303C11.93 25.9303 9.06595 23.4753 8.52759 20.3313H12.3176C12.7268 21.5157 14.0834 22.3771 16.0431 22.3771C18.0027 22.3771 19.7685 21.2788 19.7685 19.3407C19.7685 17.4027 18.2396 16.3905 16.0215 16.3905V19.1254C11.8439 19.1254 8.63526 16.7566 8.63526 12.7728C8.63526 8.78893 11.7147 6.09714 16.0431 6.09714C20.3715 6.09714 22.9771 8.55205 23.2571 11.5453H19.5962C19.2948 10.4686 18.1104 9.6503 16.1292 9.6503C14.148 9.6503 12.3822 10.7701 12.3822 12.6651C12.3822 14.5601 13.9112 15.4861 16.0215 15.4861V12.6005C20.5653 12.6005 23.4939 15.3354 23.4939 19.2546V19.2761Z" fill="white"/>
</svg>
