<svg width="32" height="32" viewBox="0 0 32 32" fill="none" xmlns="http://www.w3.org/2000/svg">
<g clip-path="url(#clip0_3726_131)">
<rect width="32" height="32" rx="16" fill="#F9F9F9"/>
<path d="M21.0419 21.6367C21.1198 21.3871 21.189 21.1202 21.2557 20.8483C21.3212 20.7605 21.3917 20.6753 21.4547 20.5851C21.4547 20.9941 21.2397 21.3105 21.0419 21.6367ZM19.0164 24.8363C18.983 25.0019 18.852 25.034 18.721 25.0674C18.8471 24.7115 19.0115 24.3766 19.1721 24.0454C19.491 23.9243 19.7752 23.6487 20.0829 23.4868C19.7554 23.9564 19.4032 24.4112 19.0164 24.8363ZM20.7861 21.4563C20.5847 21.8802 20.34 22.3473 20.0372 22.9245C19.7826 23.032 19.659 23.2928 19.4836 23.4806C19.5169 23.383 19.549 23.2816 19.6096 23.2211C19.8926 22.5673 20.3375 22.0137 20.7861 21.4563ZM17.1046 26.2538C16.8735 26.6814 15.9515 27.2091 15.524 27.2091C15.063 27.2091 14.6663 26.7815 14.2053 26.7481C14.1064 26.4182 13.7444 26.5826 13.5133 26.4182C12.9534 26.0227 12.1946 25.2318 11.8659 24.6386C11.3061 23.5844 10.8117 22.2003 10.5151 21.0806C10.3841 20.6184 10.3841 17.949 10.3841 17.3892C10.3841 15.4131 10.3174 13.8634 11.1405 12.0517C11.1405 11.6562 11.5372 11.4251 11.5372 11.1285V10.9975C11.767 10.7343 11.767 10.3054 12.0649 10.0743C12.3602 9.11903 13.25 8.52584 13.711 7.63603C14.0731 7.47167 14.1732 6.97733 14.5031 6.74623C15.2261 6.28527 15.9849 5.62657 16.9068 5.62657C17.0057 5.69206 17.1046 5.75757 17.2368 5.75757C17.3035 5.75757 17.3357 5.72545 17.4024 5.72545L17.5346 5.62657C17.6656 5.6587 17.83 5.79093 17.8968 5.55983C18.4899 5.69206 19.3142 5.39547 19.6763 6.05417C20.9616 6.87846 20.5649 8.62469 21.0914 9.81109C21.1915 10.8653 21.2903 11.9194 21.3225 13.0069C21.3558 14.4899 21.5536 15.9729 21.5536 17.4881C21.5536 18.7103 21.4683 19.4938 21.2644 20.2131C21.1334 20.4652 20.9962 20.7123 20.8615 20.9818C20.5006 21.1782 20.4339 21.7059 20.0372 21.8382C19.7851 22.3164 19.4799 22.9937 19.1289 23.6771C19.1239 23.6783 19.1215 23.682 19.1153 23.6833C19.072 23.6487 19.0646 23.5993 19.0387 23.5585C18.9497 23.6647 18.8619 23.7735 18.7606 23.8699C18.8113 23.9403 18.8595 24.0145 18.9188 24.0713C18.396 25.0377 17.7868 25.9485 17.1046 26.2538ZM14.6997 27.7356C13.6789 27.7356 12.5258 27.3736 11.9326 26.517C11.4717 25.9238 10.8451 25.364 10.5473 24.6386C10.2519 24.3099 9.262 20.3552 9.262 19.762C9.262 19.7286 9.262 19.5976 9.36211 19.5976C9.75757 19.5976 10.4818 21.7059 10.5473 22.0025C10.8451 22.9912 11.4049 24.0454 11.8659 24.9673C12.1304 25.4295 12.4925 25.7595 12.7569 26.2204C13.0857 26.3193 13.25 26.6814 13.6121 26.7481C13.7777 27.0449 14.1064 27.077 14.3042 27.3078C14.4364 27.3078 14.7985 27.4069 14.7985 27.5711C14.7985 27.638 14.7985 27.7356 14.6997 27.7356ZM22.5422 17.7192C22.3766 17.8514 22.0813 18.0491 22.1146 18.3124V18.4112C21.8502 18.8067 21.8168 19.2677 21.5536 19.6631C21.5276 19.7051 21.5091 19.7509 21.4856 19.7929C21.8922 17.5696 22.0158 15.0176 22.0158 13.5668C22.0158 12.216 21.5536 10.8986 21.4226 9.54785C21.3558 8.49245 21.3225 7.33944 20.6304 6.48299C19.9383 5.69209 18.983 5.09887 17.8968 5.09887C17.7312 5.09887 17.568 5.09887 17.4024 5.13223C17.2702 5.03339 17.1046 5 16.9415 5C16.4459 5 16.0504 5.36211 15.5895 5.36211C15.4585 5.36211 15.3262 5.32998 15.2261 5.29662L15.063 5.46222L15.6562 5.49434C15.6895 5.55983 15.7538 5.62657 15.7538 5.69206C15.7538 5.88981 15.1952 5.82306 15.1273 6.15304C14.0731 6.71287 12.9534 8.06486 12.3269 9.05231C11.9648 9.64549 11.6348 10.3709 11.3061 10.9975C11.2727 11.0296 11.0416 11.524 10.9773 11.524C10.9773 11.7551 10.9106 11.9528 10.8785 12.1505C10.614 12.4138 10.7784 12.9081 10.5151 13.1725C10.1197 14.4232 9.79093 15.9729 9.79093 17.2582C9.79093 17.3558 9.72421 17.3892 9.62534 17.4226C9.59321 17.126 9.49311 16.796 9.52647 16.4673V16.2696C9.6587 13.3035 9.72421 10.7985 11.4717 8.22922C12.7878 6.28527 14.4698 5.98868 14.9641 5.39547C14.8653 5.39547 14.7985 5.36211 14.6997 5.36211C14.4364 5.36211 14.1732 5.49434 14.0422 5.72545C12.1637 6.35076 11.2406 8.06486 10.4484 9.71224C10.3174 9.90996 10.153 10.041 10.1197 10.3054C9.98745 10.8986 9.88857 11.4585 9.6587 12.0517C9.59321 12.2815 9.46098 12.6448 9.46098 12.8747C9.46098 13.0737 9.55985 13.2702 9.55985 13.4692C9.55985 13.7311 9.52647 13.9622 9.46098 14.2267C9.09887 16.0384 9 18.0157 9 19.8608C9 21.3438 9.6587 22.6612 10.1197 24.0132C10.614 25.4629 11.6682 26.6493 12.7878 27.638L13.6121 27.7689C13.8111 27.9345 14.0422 28 14.3042 28C14.6663 28 15.0296 27.8679 15.3917 27.9012H15.524C15.9849 27.6047 16.7758 27.4069 17.1379 27.0113C17.2368 26.9459 17.3035 26.7148 17.4358 26.7148C17.4667 26.7148 17.5013 26.7148 17.5346 26.7481C18.2255 25.9893 19.0832 25.364 19.7085 24.5731C20.0372 24.1776 20.2362 23.6833 20.5315 23.2557C20.6304 23.1235 20.6304 22.9245 20.796 22.8268C21.1915 21.8382 22.7733 18.6744 22.7733 17.818V17.7192H22.5422Z" fill="black"/>
<path d="M18.4591 16.5141H18.2947L18.8892 16.3819C18.8212 16.4153 18.4925 16.5141 18.4591 16.5141ZM19.119 16.3819H18.9535L19.119 16.283C18.9534 16.283 18.8212 16.283 18.6902 16.2176C17.9648 16.3486 17.2072 16.3819 16.5152 16.5141C16.4818 16.5141 16.4175 16.5796 16.4175 16.5796C16.4175 16.613 16.4175 16.613 16.4484 16.6451C16.7796 16.6451 17.1084 16.7119 17.4717 16.7119C17.767 16.7119 18.097 16.613 18.3936 16.5796C18.1304 16.7774 17.2072 16.7453 16.8451 16.7453C16.7129 16.7453 16.614 16.7774 16.5152 16.8107C16.5806 17.0085 16.8118 17.074 16.8785 17.2717C17.6015 17.9959 18.2614 19.0179 18.7879 19.8744C18.7879 19.9745 18.8212 20.1388 18.8892 20.2043V20.3353C18.8892 20.4021 18.9868 20.5009 19.0523 20.5343H19.0857C19.0857 20.5664 19.0523 20.5998 19.0523 20.6319C19.0523 20.7642 19.3502 20.863 19.3502 20.9619C19.3502 20.9953 19.3501 21.0286 19.3168 21.0286C19.0189 20.9953 18.9534 20.8309 18.8212 20.5998C18.5259 20.4021 18.4591 19.9745 18.097 19.8089C18.0315 19.5456 17.8659 19.5778 17.7671 19.3145L17.4717 18.6558C17.6015 18.6892 17.7015 18.7881 17.7015 18.9191C17.8993 19.3813 18.228 19.6779 18.4591 20.1055C18.558 20.1388 18.558 20.2711 18.6902 20.3032C18.4925 19.7434 18.1638 19.0179 17.6348 18.6558C17.6348 18.557 17.6015 18.4247 17.4717 18.4247C17.4049 18.4247 17.4049 18.557 17.4383 18.5891C17.3061 18.3926 17.2406 18.1949 17.0416 18.0627L17.075 17.9959C17.075 17.8315 16.9774 17.6993 16.8451 17.6672C16.7796 17.4361 16.5152 17.6672 16.3842 17.4027C16.2853 17.1728 15.9875 17.1073 15.791 17.1073C15.1978 17.9959 13.0227 20.0721 12.7261 20.9619C12.5284 20.9953 12.3961 21.1275 12.1996 21.1275C12.1663 21.1275 12.034 21.1275 12.034 21.0608C12.034 20.9952 12.1663 20.9285 12.1996 20.8309C12.5284 20.3032 15.461 17.2383 15.461 16.8429C15.461 16.7453 15.2311 16.6785 15.1323 16.6785C15.0322 16.6451 14.9012 16.613 14.8011 16.613C14.5057 16.613 14.2412 16.6785 13.9458 16.6785C13.2538 16.6785 12.5284 16.8107 11.8029 16.8107C11.6707 16.8107 11.7387 16.6785 11.6373 16.5796C11.8684 16.5463 12.0674 16.3819 12.2985 16.3819C12.3628 16.3819 12.495 16.4153 12.5939 16.4808C12.7928 16.4808 12.9893 16.5141 13.1871 16.5141C13.9125 16.5141 14.9333 16.4808 15.6254 16.3164C15.6587 16.283 15.6921 16.283 15.6921 16.2497C15.6921 16.2176 15.5265 16.1842 15.5598 16.0853C15.5598 15.9531 14.8011 15.2944 14.8011 15.0966C14.8344 15.0966 14.8344 15.0633 14.8344 15.0633C14.8344 14.7024 13.6814 13.3504 13.3836 13.0205V12.9883C13.3836 12.7906 13.2204 12.6917 13.2204 12.5274C13.2204 12.4606 13.3193 12.3951 13.3836 12.3951C13.4849 12.3951 13.5491 12.5274 13.6147 12.5929C13.5825 12.625 13.5491 12.6596 13.5491 12.6917C13.5491 12.8561 14.2746 13.778 14.3401 13.778C14.3735 13.778 14.3735 13.6804 14.4068 13.6804C15.1644 14.1413 15.3621 14.999 15.8552 15.6565C16.3508 15.6565 17.4383 12.9883 18.0649 12.7572H18.1304C17.5706 13.5815 16.944 14.3725 16.4818 15.2623L16.5473 15.3277C16.8451 15.1955 16.7796 14.8668 16.9106 14.7679C16.9774 14.669 17.3061 14.4713 17.3061 14.3725C17.3061 14.3057 18.1304 13.2849 18.2947 12.9228C18.4591 12.7572 18.558 12.5595 18.7236 12.363L18.4925 12.4272C18.558 12.164 19.119 11.8353 19.381 11.8674C19.0857 12.3951 18.5259 12.6917 18.2947 13.2516C17.9982 13.8781 17.6682 14.2402 17.2406 14.7679V14.8C17.2406 14.8989 17.0416 14.999 17.0416 15.0966C16.8451 15.4266 16.2185 15.7887 16.2185 16.2497C16.3174 16.283 16.4484 16.283 16.5473 16.283C17.4049 16.283 18.2947 16.0853 19.1512 16.0853C19.4478 16.0853 19.8766 16.0532 20.1399 16.1842C19.8111 16.3164 19.4478 16.3486 19.119 16.3819Z" fill="black" stroke="black" stroke-width="0.0771291" stroke-miterlimit="10"/>
<path d="M21.0419 21.6367C21.1198 21.3871 21.189 21.1202 21.2557 20.8483C21.3212 20.7605 21.3917 20.6753 21.4547 20.5851C21.4547 20.9941 21.2397 21.3105 21.0419 21.6367ZM19.0164 24.8363C18.983 25.0019 18.852 25.034 18.721 25.0674C18.8471 24.7115 19.0115 24.3766 19.1721 24.0454C19.491 23.9243 19.7752 23.6487 20.0829 23.4868C19.7554 23.9564 19.4032 24.4112 19.0164 24.8363ZM20.7861 21.4563C20.5847 21.8802 20.34 22.3473 20.0372 22.9245C19.7826 23.032 19.659 23.2928 19.4836 23.4806C19.5169 23.383 19.549 23.2816 19.6096 23.2211C19.8926 22.5673 20.3375 22.0137 20.7861 21.4563ZM17.1046 26.2538C16.8735 26.6814 15.9515 27.2091 15.524 27.2091C15.063 27.2091 14.6663 26.7815 14.2053 26.7481C14.1064 26.4182 13.7444 26.5826 13.5133 26.4182C12.9534 26.0227 12.1946 25.2318 11.8659 24.6386C11.3061 23.5844 10.8117 22.2003 10.5151 21.0806C10.3841 20.6184 10.3841 17.949 10.3841 17.3892C10.3841 15.4131 10.3174 13.8634 11.1405 12.0517C11.1405 11.6562 11.5372 11.4251 11.5372 11.1285V10.9975C11.767 10.7343 11.767 10.3054 12.0649 10.0743C12.3602 9.11903 13.25 8.52584 13.711 7.63603C14.0731 7.47167 14.1732 6.97733 14.5031 6.74623C15.2261 6.28527 15.9849 5.62657 16.9068 5.62657C17.0057 5.69206 17.1046 5.75757 17.2368 5.75757C17.3035 5.75757 17.3357 5.72545 17.4024 5.72545L17.5346 5.62657C17.6656 5.6587 17.83 5.79093 17.8968 5.55983C18.4899 5.69206 19.3142 5.39547 19.6763 6.05417C20.9616 6.87846 20.5649 8.62469 21.0914 9.81109C21.1915 10.8653 21.2903 11.9194 21.3225 13.0069C21.3558 14.4899 21.5536 15.9729 21.5536 17.4881C21.5536 18.7103 21.4683 19.4938 21.2644 20.2131C21.1334 20.4652 20.9962 20.7123 20.8615 20.9818C20.5006 21.1782 20.4339 21.7059 20.0372 21.8382C19.7851 22.3164 19.4799 22.9937 19.1289 23.6771C19.1239 23.6783 19.1215 23.682 19.1153 23.6833C19.072 23.6487 19.0646 23.5993 19.0387 23.5585C18.9497 23.6647 18.8619 23.7735 18.7606 23.8699C18.8113 23.9403 18.8595 24.0145 18.9188 24.0713C18.396 25.0377 17.7868 25.9485 17.1046 26.2538ZM14.6997 27.7356C13.6789 27.7356 12.5258 27.3736 11.9326 26.517C11.4717 25.9239 10.8451 25.364 10.5473 24.6386C10.2519 24.3098 9.262 20.3552 9.262 19.762C9.262 19.7286 9.262 19.5976 9.36211 19.5976C9.75757 19.5976 10.4818 21.706 10.5473 22.0025C10.8451 22.9912 11.4049 24.0454 11.8659 24.9673C12.1304 25.4295 12.4925 25.7595 12.7569 26.2204C13.0857 26.3193 13.25 26.6814 13.6121 26.7481C13.7777 27.0449 14.1064 27.077 14.3042 27.3078C14.4364 27.3078 14.7985 27.4069 14.7985 27.5711C14.7985 27.638 14.7985 27.7356 14.6997 27.7356ZM22.5422 17.7192C22.3766 17.8514 22.0813 18.0491 22.1146 18.3124V18.4112C21.8502 18.8067 21.8168 19.2677 21.5536 19.6631C21.5276 19.7051 21.5091 19.7509 21.4856 19.7929C21.8922 17.5696 22.0158 15.0176 22.0158 13.5668C22.0158 12.216 21.5536 10.8986 21.4226 9.54785C21.3558 8.49245 21.3225 7.33944 20.6304 6.48299C19.9383 5.69209 18.983 5.09887 17.8968 5.09887C17.7312 5.09887 17.568 5.09887 17.4024 5.13223C17.2702 5.03339 17.1046 5 16.9415 5C16.4459 5 16.0504 5.36211 15.5895 5.36211C15.4585 5.36211 15.3262 5.32998 15.2261 5.29662L15.063 5.46222L15.6562 5.49434C15.6895 5.55983 15.7538 5.62657 15.7538 5.69206C15.7538 5.88981 15.1952 5.82306 15.1273 6.15304C14.0731 6.71287 12.9534 8.06486 12.3269 9.05231C11.9648 9.64549 11.6348 10.3709 11.3061 10.9975C11.2727 11.0296 11.0416 11.524 10.9773 11.524C10.9773 11.7551 10.9106 11.9528 10.8785 12.1505C10.614 12.4138 10.7784 12.9081 10.5151 13.1725C10.1197 14.4232 9.79093 15.9729 9.79093 17.2582C9.79093 17.3558 9.72421 17.3892 9.62534 17.4226C9.59321 17.126 9.49311 16.796 9.52647 16.4673V16.2695C9.6587 13.3035 9.72421 10.7985 11.4717 8.22922C12.7878 6.28527 14.4698 5.98868 14.9641 5.39547C14.8653 5.39547 14.7985 5.36211 14.6997 5.36211C14.4364 5.36211 14.1732 5.49434 14.0422 5.72545C12.1637 6.35076 11.2406 8.06486 10.4484 9.71224C10.3174 9.90996 10.153 10.041 10.1197 10.3054C9.98745 10.8986 9.88857 11.4585 9.6587 12.0517C9.59321 12.2815 9.46098 12.6448 9.46098 12.8747C9.46098 13.0737 9.55985 13.2702 9.55985 13.4692C9.55985 13.7311 9.52647 13.9622 9.46098 14.2267C9.09887 16.0384 9 18.0157 9 19.8608C9 21.3438 9.6587 22.6612 10.1197 24.0132C10.614 25.4629 11.6682 26.6493 12.7878 27.638L13.6121 27.7689C13.8111 27.9345 14.0422 28 14.3042 28C14.6663 28 15.0296 27.8679 15.3917 27.9012H15.524C15.9849 27.6047 16.7758 27.4069 17.1379 27.0113C17.2368 26.9459 17.3035 26.7148 17.4358 26.7148C17.4667 26.7148 17.5013 26.7148 17.5346 26.7481C18.2255 25.9893 19.0832 25.364 19.7085 24.5731C20.0372 24.1776 20.2362 23.6833 20.5315 23.2557C20.6304 23.1235 20.6304 22.9245 20.796 22.8268C21.1915 21.8382 22.7733 18.6745 22.7733 17.818V17.7192H22.5422Z" stroke="black" stroke-width="0.0771291" stroke-miterlimit="10"/>
<path d="M15.6883 27.4375C15.6549 27.4375 15.6216 27.4708 15.6216 27.503H15.6883C15.6883 27.4708 15.6883 27.4708 15.7204 27.4708C15.7204 27.4375 15.7204 27.4375 15.6883 27.4375Z" fill="black"/>
<path d="M15.6885 27.4375V27.503" stroke="black" stroke-width="0.0771291" stroke-miterlimit="10"/>
</g>
<defs>
<clipPath id="clip0_3726_131">
<rect width="32" height="32" rx="16" fill="white"/>
</clipPath>
</defs>
</svg>
