<svg width="32" height="32" viewBox="0 0 32 32" fill="none" xmlns="http://www.w3.org/2000/svg">
<g clip-path="url(#clip0_4025_441)">
<path d="M31.9736 12.5933C31.9736 10.7793 30.2733 9.09907 27.1865 7.86175C24.1904 6.66134 20.213 6 15.987 6C11.761 6 7.78323 6.66134 4.78707 7.86175C1.70033 9.09907 0 10.7793 0 12.5933C0 14.4073 1.70033 16.0875 4.78707 17.3245C6.07583 17.8408 7.54729 18.2591 9.16633 18.5696H0V18.882C0 20.6961 1.70033 22.3763 4.78707 23.6133C7.78361 24.814 11.761 25.4754 15.9866 25.4754C20.2122 25.4754 24.19 24.814 27.1862 23.6133C30.2733 22.3763 31.9732 20.6961 31.9732 18.882C31.9732 17.068 30.2729 15.3878 27.1862 14.1505C25.8974 13.6342 24.4256 13.2159 22.8069 12.9053H31.9732V12.5933H31.9736ZM26.1658 18.0693C25.9846 18.3829 25.6607 18.5696 25.2987 18.5696H22.5721C22.4688 16.3772 21.2445 14.3458 19.3563 13.217C20.947 13.5142 22.4143 14.029 23.6099 14.7115C24.7962 15.3886 25.6562 16.1815 26.1666 17.068C26.347 17.3816 26.3466 17.7558 26.1658 18.069V18.0693ZM11.6737 15.7379C11.6737 14.1762 13.6086 12.9057 15.9866 12.9057C18.3647 12.9057 20.2995 14.1762 20.2995 15.7379C20.2995 17.2995 18.3647 18.57 15.9866 18.57C13.6086 18.57 11.6737 17.2995 11.6737 15.7379ZM5.80742 13.406C5.9886 13.0929 6.31255 12.9057 6.67455 12.9057H9.40115C9.50444 15.0981 10.7287 17.1295 12.6166 18.2584C11.0258 17.9612 9.55888 17.4464 8.36332 16.7638C7.17705 16.0864 6.31701 15.2939 5.80667 14.4073C5.62624 14.0938 5.62624 13.7195 5.80742 13.4064V13.406ZM9.40115 12.2809H6.67455C6.31255 12.2809 5.9886 12.0938 5.80742 11.7806C5.62624 11.4675 5.62586 11.0932 5.80667 10.7796C6.31664 9.89314 7.17705 9.10057 8.36332 8.42319C9.55813 7.74097 11.0251 7.22613 12.6166 6.92864C10.7287 8.0571 9.50444 10.0885 9.40115 12.2809ZM22.5724 19.1944H25.299C25.661 19.1944 25.985 19.3816 26.1662 19.6947C26.3474 20.0079 26.3478 20.3822 26.1669 20.6957C25.6566 21.5822 24.7965 22.3748 23.6103 23.0522C22.4155 23.7348 20.9485 24.2496 19.357 24.5467C21.2449 23.4182 22.4695 21.3869 22.5724 19.1941V19.1944ZM21.4936 11.7929C21.2691 12.1031 20.9206 12.2809 20.5377 12.2809H11.4355C11.0526 12.2809 10.7045 12.1031 10.4797 11.7929C10.2552 11.4831 10.1952 11.0973 10.3145 10.7338C11.1224 8.27594 13.4017 6.62444 15.9866 6.62444C18.5716 6.62444 20.8509 8.27594 21.6587 10.7338C21.778 11.0969 21.718 11.4831 21.4936 11.7929ZM9.46383 7.19631C8.96503 7.40098 8.49195 7.63025 8.05388 7.88077C6.01283 9.04614 4.81876 10.6078 4.68753 12.2813H1.91915C1.59631 12.2813 1.30665 12.1008 1.16312 11.8101C1.0196 11.5193 1.05128 11.1935 1.247 10.9381C1.39202 10.7491 1.56425 10.5597 1.75848 10.3755C2.51898 9.65491 3.61612 9.00438 5.01895 8.4422C6.32003 7.92066 7.81378 7.50201 9.46307 7.19668L9.46383 7.19631ZM1.91915 12.9057H4.68716C4.81839 14.5788 6.01245 16.1409 8.0535 17.3062C8.49195 17.5568 8.96503 17.786 9.46345 17.9911C7.81416 17.685 6.32041 17.2667 5.01932 16.7451C3.61612 16.183 2.51936 15.5325 1.75885 14.8118C1.56462 14.6277 1.3924 14.4383 1.24738 14.2493C1.05166 13.9935 1.01997 13.6677 1.1635 13.3773C1.30665 13.0865 1.59669 12.9061 1.91953 12.9061L1.91915 12.9057ZM10.48 19.6828C10.7045 19.3727 11.053 19.1948 11.4359 19.1948H20.5381C20.921 19.1948 21.2695 19.3727 21.4939 19.6828C21.7183 19.9926 21.7784 20.3788 21.6591 20.7419C20.8516 23.1998 18.5719 24.8513 15.987 24.8513C13.402 24.8513 11.1227 23.1998 10.3149 20.7419C10.1956 20.3788 10.2556 19.9926 10.48 19.6828ZM22.5101 24.2798C23.0089 24.0752 23.482 23.8455 23.9201 23.595C25.9611 22.4296 27.1552 20.8679 27.2864 19.1944H30.0544C30.3773 19.1944 30.6669 19.3749 30.8105 19.6657C30.954 19.9565 30.9223 20.2823 30.7266 20.5376C30.5816 20.7267 30.4094 20.916 30.2151 21.1002C29.4543 21.8212 28.3571 22.4717 26.9546 23.0336C25.6536 23.555 24.1598 23.9738 22.5105 24.2794L22.5101 24.2798ZM30.0544 18.57H27.2864C27.1552 16.8969 25.9611 15.3349 23.9201 14.1695C23.4828 13.9197 23.0093 13.6901 22.5098 13.4847C24.1594 13.7907 25.6528 14.209 26.9542 14.7306C28.3575 15.2928 29.4543 15.9433 30.2147 16.6639C30.409 16.8481 30.5812 17.0374 30.7262 17.2265C30.9219 17.4822 30.9536 17.808 30.8101 18.0985C30.6669 18.3892 30.3769 18.5696 30.0541 18.5696L30.0544 18.57ZM6.06204 19.927C6.279 19.4751 6.72522 19.1948 7.22666 19.1948H9.40115C9.50444 21.3876 10.7287 23.4186 12.6166 24.5475C11.0251 24.2504 9.55813 23.7355 8.36332 23.0529C7.45814 22.5362 6.73641 21.9453 6.21749 21.2963C5.90397 20.9045 5.84433 20.3796 6.06166 19.9274L6.06204 19.927ZM1.43601 19.858C1.60451 19.4491 1.98328 19.1948 2.42429 19.1948H4.68716C4.81839 20.8679 6.01245 22.43 8.0535 23.5953C8.49195 23.8459 8.96503 24.0752 9.46345 24.2802C7.81416 23.9741 6.32079 23.5558 5.01895 23.0343C3.61612 22.4721 2.51898 21.8216 1.75848 21.1009C1.72753 21.0715 1.69697 21.0417 1.66714 21.0122C1.35772 20.7054 1.269 20.2633 1.43564 19.8584L1.43601 19.858ZM22.5101 7.19631C24.1594 7.50201 25.6532 7.92066 26.9542 8.44183C28.3571 9.00401 29.4543 9.65454 30.2147 10.3752C30.2457 10.4046 30.2763 10.4344 30.3061 10.4639C30.6155 10.7707 30.7042 11.2128 30.5376 11.6177C30.3691 12.0267 29.9904 12.2809 29.549 12.2809H27.2861C27.1549 10.6078 25.9607 9.04576 23.9197 7.88039C23.4813 7.62987 23.0083 7.40061 22.5098 7.19594L22.5101 7.19631ZM25.912 11.5491C25.695 12.0006 25.2488 12.2813 24.7473 12.2813H22.5728C22.4695 10.0889 21.2453 8.05747 19.357 6.92864C20.9478 7.22576 22.4151 7.7406 23.6107 8.42319C24.5155 8.93952 25.2372 9.53078 25.7565 10.1798C26.07 10.572 26.1297 11.0965 25.9123 11.5491H25.912Z" fill="black"/>
</g>
<defs>
<clipPath id="clip0_4025_441">
<rect width="32" height="19.4892" fill="white" transform="translate(0 6)"/>
</clipPath>
</defs>
</svg>
