<svg width="32" height="32" viewBox="0 0 32 32" fill="none" xmlns="http://www.w3.org/2000/svg">
<rect x="0.0100098" y="0.00292969" width="32" height="32" rx="16" fill="#090710"/>
<path d="M12.3846 11.2901C13.1808 11.0894 14.1732 11.1456 15.0861 11.9074C15.5656 12.3075 16.0525 12.3466 16.4827 12.2474C16.7204 12.1926 16.9257 12.0983 17.0817 12.0061C17.2359 11.9149 17.3474 11.8224 17.3947 11.7673C17.666 11.4509 18.1423 11.4143 18.4587 11.6855C18.7751 11.9567 18.8117 12.4331 18.5405 12.7495C18.2259 13.1164 17.5855 13.5419 16.8218 13.718C16.0164 13.9037 15.0234 13.8206 14.1192 13.0662C13.6486 12.6734 13.1795 12.6461 12.7535 12.7535C12.2925 12.8697 11.9146 13.1425 11.7797 13.2729C11.4801 13.5626 11.0024 13.5545 10.7127 13.255C10.4231 12.9554 10.4311 12.4776 10.7307 12.188C11.02 11.9082 11.624 11.4818 12.3846 11.2901Z" fill="#98FF99"/>
<path d="M10.1763 11.0967C10.3294 10.7123 10.1384 10.2725 9.74956 10.1144C9.36076 9.95628 8.92145 10.1397 8.76835 10.5241C7.31344 14.1766 8.01047 18.366 10.3583 20.8588C10.6461 21.1644 11.125 21.1837 11.428 20.902C11.7309 20.6203 11.7431 20.1443 11.4553 19.8387C9.57084 17.8379 8.9043 14.2901 10.1763 11.0967Z" fill="#98FF99"/>
<path d="M19.505 10.1144C19.1162 10.2725 18.9251 10.7123 19.0783 11.0967C20.3503 14.2901 19.6837 17.8379 17.7993 19.8387C17.5115 20.1443 17.5237 20.6203 17.8267 20.902C18.1295 21.1837 18.6085 21.1644 18.8963 20.8588C21.2441 18.366 21.9412 14.1766 20.4862 10.5241C20.3332 10.1397 19.8938 9.95628 19.505 10.1144Z" fill="#98FF99"/>
<path d="M13.2042 20.439C12.7874 20.439 12.4496 20.7768 12.4496 21.1936C12.4496 21.6103 12.7874 21.9482 13.2042 21.9482H16.001C16.4177 21.9482 16.7556 21.6103 16.7556 21.1936C16.7556 20.7768 16.4177 20.439 16.001 20.439H13.2042Z" fill="#98FF99"/>
<path d="M22.5001 13.2108V13.1804C22.5001 12.7636 22.8379 12.4258 23.2547 12.4258C23.6714 12.4258 24.0092 12.7636 24.0092 13.1804V13.2108C24.0092 13.6276 23.6714 13.9654 23.2547 13.9654C22.8379 13.9654 22.5001 13.6276 22.5001 13.2108Z" fill="#98FF99"/>
<path d="M23.3345 15.6971C22.9201 15.6534 22.5487 15.954 22.505 16.3684C22.4352 17.0301 22.2498 17.6692 22.076 18.1517C21.9899 18.3906 21.9086 18.5857 21.8497 18.7193C21.8209 18.7846 21.7914 18.8496 21.76 18.9136C21.5727 19.2857 21.7223 19.7396 22.0943 19.927C22.4646 20.1136 22.9157 19.9663 23.1049 19.5982C23.1049 19.5982 23.191 19.418 23.2306 19.3281C23.3013 19.1678 23.396 18.9401 23.4957 18.6633C23.6935 18.1145 23.9189 17.3508 24.0058 16.5267C24.0495 16.1122 23.7489 15.7408 23.3345 15.6971Z" fill="#98FF99"/>
</svg>
