<svg width="32" height="32" viewBox="0 0 32 32" fill="none" xmlns="http://www.w3.org/2000/svg">
<path d="M32 16.0029C32 24.8395 24.8366 32.0029 16 32.0029C7.16344 32.0029 0 24.8395 0 16.0029C0 7.16637 7.16344 0.00292969 16 0.00292969C24.8366 0.00292969 32 7.16637 32 16.0029Z" fill="#FBF45B"/>
<path d="M19.1171 9.81433L15.3153 20.2595C15.3153 20.2595 15.3136 20.2586 15.3128 20.2586C15.2943 20.3145 15.2751 20.3702 15.2545 20.4256C14.9333 21.3023 14.4069 22.0802 13.7333 22.7005C12.6994 23.6527 11.3189 24.2336 9.80347 24.2336C9.18276 24.2336 8.58418 24.1364 8.02336 23.9559C7.43874 23.7675 6.89474 23.4894 6.40736 23.137C6.21987 23.0016 6.04059 22.8555 5.87115 22.6993C5.95115 22.7054 6.03361 22.7079 6.11526 22.7079C6.27115 22.7079 6.42418 22.6972 6.57433 22.6767C7.82274 22.5068 8.85369 21.6531 9.27876 20.5044C9.28241 20.4953 9.28569 20.4859 9.28902 20.4765L11.9007 13.3007C11.9315 13.2182 11.9639 13.1362 11.9984 13.0558C12.0611 12.9089 12.1304 12.7657 12.2059 12.6263C13.1081 10.9524 14.8775 9.81433 16.9128 9.81433H19.1171Z" fill="black"/>
<path d="M28 7.00293L23.1393 20.3584L23.1151 20.4253C22.3016 22.6476 20.1678 24.2337 17.664 24.2337C17.0347 24.2337 16.4287 24.1336 15.8613 23.9486C15.2853 23.7607 14.7495 23.485 14.2683 23.1371C14.0816 23.0025 13.9032 22.8573 13.7342 22.7014C13.8056 22.7059 13.8773 22.7083 13.9499 22.7083C14.1153 22.7083 14.2777 22.6965 14.4365 22.6731C15.6747 22.4942 16.6954 21.6417 17.1159 20.4983L20.7758 10.4446C20.8583 10.2275 20.9546 10.0171 21.0638 9.81441C21.9372 8.19226 23.6242 7.07267 25.5778 7.00293H28Z" fill="black"/>
<path d="M10.2277 12.6409L7.02195 21.4479C6.81928 22.0017 6.40287 22.4522 5.87241 22.6983C4.77703 21.6895 4.07015 20.2631 4.00492 18.6717C4.00164 18.5917 4 18.5104 4 18.4296C4 17.7367 4.12144 17.0721 4.3442 16.4563C5.152 14.2224 7.29149 12.6257 9.80387 12.6257C9.94666 12.6257 10.0878 12.6311 10.2277 12.6409Z" fill="black"/>
</svg>
