<svg width="32" height="32" viewBox="0 0 32 32" fill="none" xmlns="http://www.w3.org/2000/svg">
<g clip-path="url(#clip0_3674_363)">
<path d="M16 32C24.8366 32 32 24.8366 32 16C32 7.16344 24.8366 0 16 0C7.16344 0 0 7.16344 0 16C0 24.8366 7.16344 32 16 32Z" fill="#FBFBFB"/>
<g clip-path="url(#clip1_3674_363)">
<mask id="mask0_3674_363" style="mask-type:luminance" maskUnits="userSpaceOnUse" x="7" y="7" width="18" height="18">
<path d="M25 7H7V25H25V7Z" fill="white"/>
</mask>
<g mask="url(#mask0_3674_363)">
<path d="M7.13428 16C7.13428 11.0294 11.151 7 16.1059 7C21.0576 7 24.8834 10.9545 25 15.961C25 17.5585 24.4562 18.9026 23.0969 20.1689C21.9482 21.2388 19.9898 21.3961 18.5529 20.5974C17.5273 20.0039 16.7369 18.7399 16.0671 17.8117L14.8243 19.7208H12.1444L14.669 15.9609L12.2221 12.2598H14.9797L16.0865 14.1688L17.174 12.2598H19.951L17.4265 15.961C17.4265 15.961 18.6304 17.8117 19.2907 18.5324C19.951 19.2533 21.1549 19.2727 21.9318 18.4935C22.7857 17.6368 22.9769 16.9546 22.9804 15.961C22.9937 12.1154 19.9487 9.02597 16.1059 9.02597C12.2664 9.02597 9.15388 12.1484 9.15388 16C9.15388 19.8517 12.2664 22.974 16.1059 22.974C16.637 22.974 17.1461 22.9293 17.6401 22.8182L18.0673 24.7857C17.3644 24.9439 16.7964 25 16.1059 25C11.151 25 7.13428 20.9706 7.13428 16Z" fill="#FC4F37"/>
</g>
</g>
</g>
<defs>
<clipPath id="clip0_3674_363">
<rect width="32" height="32" rx="16" fill="white"/>
</clipPath>
<clipPath id="clip1_3674_363">
<rect width="18" height="18" fill="white" transform="translate(7 7)"/>
</clipPath>
</defs>
</svg>
